<svg xmlns="http://www.w3.org/2000/svg" xmlns:xlink="http://www.w3.org/1999/xlink" xmlns:serif="http://www.serif.com/" width="100%" height="100%" viewBox="0 0 1379 1780" xml:space="preserve" style="fill-rule:evenodd;clip-rule:evenodd;stroke-linejoin:round;stroke-miterlimit:2;"> <g transform="matrix(1,0,0,1,0.000820493,-3.67088)"> <g transform="matrix(4.16667,0,0,4.16667,0,0)"> <path d="M67.22,346.248L65.039,346.855L58.434,341.548L57.222,337.196C57.222,337.196 53.794,337.927 55.777,343.516C57.761,349.105 56.927,347.773 56.927,347.773C56.927,347.773 49.779,349.794 49.357,350.581C49.05,351.153 50.834,358.317 51.833,362.193C52.336,364.144 54.029,365.618 55.962,365.574C56.237,365.568 56.506,365.535 56.761,365.463C58.546,364.966 67.262,360.975 67.262,360.975L71.029,359.926L67.22,346.248Z" style="fill:rgb(229,229,228);fill-rule:nonzero;"></path> </g> <g transform="matrix(4.16667,0,0,4.16667,0,0)"> <path d="M73.13,343.315L75.941,358.603L72.207,359.642L68.137,345.028L73.13,343.315Z" style="fill:rgb(229,229,228);fill-rule:nonzero;"></path> </g> <g transform="matrix(4.16667,0,0,4.16667,0,0)"> <path d="M123.239,206.6C107.395,206.6 94.55,193.756 94.55,177.912C94.55,162.067 107.395,149.223 123.239,149.223C139.084,149.223 151.928,162.067 151.928,177.912C151.928,193.756 139.084,206.6 123.239,206.6Z" style="fill:rgb(229,229,228);fill-rule:nonzero;"></path> </g> <g transform="matrix(4.16667,0,0,4.16667,0,0)"> <path d="M127.48,176.948C127.109,176.09 126.723,175.235 126.311,174.388C129.83,172.864 132.659,170.794 134.767,168.168C136.823,170.597 138.114,173.683 138.305,177.06C134.38,176.418 130.771,176.382 127.48,176.948ZM131.625,190.469C130.957,186.884 129.979,183.379 128.699,179.959C131.557,179.555 134.704,179.659 138.146,180.258C137.48,184.504 135.056,188.172 131.625,190.469ZM123.239,193.02C119.744,193.02 116.531,191.816 113.968,189.816C116.968,185.108 120.8,182.044 125.547,180.629C126.959,184.318 128,188.112 128.66,191.999C126.974,192.65 125.152,193.02 123.239,193.02ZM108.132,177.911C108.132,177.78 108.149,177.652 108.152,177.522C114.016,177.513 119.076,176.84 123.315,175.506C123.67,176.23 124.01,176.957 124.336,177.69C119.186,179.299 114.942,182.598 111.631,187.565C109.449,184.946 108.132,181.58 108.132,177.911ZM116.423,164.447C118.453,167.103 120.25,169.84 121.814,172.649C118.11,173.738 113.689,174.298 108.578,174.334C109.634,170.013 112.543,166.42 116.423,164.447ZM123.239,162.804C126.707,162.804 129.897,163.991 132.449,165.962C130.614,168.33 128.078,170.203 124.85,171.57C123.301,168.734 121.532,165.968 119.534,163.283C120.721,162.981 121.959,162.804 123.239,162.804ZM123.239,159.623C113.139,159.623 104.951,167.811 104.951,177.912C104.951,188.012 113.139,196.2 123.239,196.2C133.34,196.2 141.528,188.012 141.528,177.912C141.528,167.811 133.34,159.623 123.239,159.623Z" style="fill:white;fill-rule:nonzero;"></path> </g> <g transform="matrix(4.16667,0,0,4.16667,0,0)"> <path d="M27.663,142.956L24.318,144.789L11.44,138.615L7.78,131.936C7.78,131.936 2.434,134.452 7.835,142.864C13.236,151.275 11.357,149.409 11.357,149.409C11.357,149.409 0.4,155.469 0.01,156.923C-0.273,157.98 5.403,169.052 8.53,175.03C10.104,178.04 13.448,179.809 16.604,178.995C17.052,178.88 17.482,178.72 17.873,178.506C20.612,177.005 33.384,167.11 33.384,167.11L39.164,163.943L27.663,142.956Z" style="fill:rgb(229,229,228);fill-rule:nonzero;"></path> </g> <g transform="matrix(4.16667,0,0,4.16667,0,0)"> <path d="M36.237,135.874L46.718,159.885L40.988,163.025L28.701,140.602L36.237,135.874Z" style="fill:rgb(229,229,228);fill-rule:nonzero;"></path> </g> <g transform="matrix(4.16667,0,0,4.16667,0,0)"> <path d="M102.969,240.689L100.801,240.337L97.144,232.972L97.849,228.644C97.849,228.644 94.531,227.892 94.003,233.623C93.474,239.354 93.282,237.841 93.282,237.841C93.282,237.841 86.162,236.71 85.47,237.232C84.967,237.611 83.621,244.647 82.923,248.468C82.571,250.392 83.462,252.379 85.182,253.128C85.427,253.234 85.678,253.314 85.931,253.355C87.706,253.644 97.008,253.679 97.008,253.679L100.754,254.289L102.969,240.689Z" style="fill:rgb(229,229,228);fill-rule:nonzero;"></path> </g> <g transform="matrix(4.16667,0,0,4.16667,0,0)"> <path d="M109.37,240.512L105.62,255.124L101.908,254.518L104.275,239.989L109.37,240.512Z" style="fill:rgb(229,229,228);fill-rule:nonzero;"></path> </g> <g transform="matrix(4.16667,0,0,4.16667,0,0)"> <path d="M126.97,376.585C113.454,376.585 102.497,365.628 102.497,352.112C102.497,338.596 113.454,327.639 126.97,327.639C140.486,327.639 151.443,338.596 151.443,352.112C151.443,365.628 140.486,376.585 126.97,376.585Z" style="fill:rgb(243,115,104);fill-rule:nonzero;"></path> </g> <g transform="matrix(4.16667,0,0,4.16667,0,0)"> <path d="M127.214,362.761C124.962,362.761 122.87,362.095 121.118,360.942L116.861,362.298L118.242,358.214C116.916,356.4 116.132,354.172 116.132,351.766C116.132,351.409 116.151,351.05 116.188,350.699C116.731,345.133 121.469,340.771 127.214,340.771C133.032,340.771 137.815,345.245 138.258,350.909C138.283,351.193 138.296,351.476 138.296,351.766C138.296,357.832 133.322,362.761 127.214,362.761ZM140.387,351.433C140.209,344.362 134.384,338.686 127.214,338.686C120.131,338.686 114.355,344.232 114.047,351.193C114.041,351.383 114.034,351.576 114.034,351.766C114.034,354.241 114.726,356.548 115.923,358.523L113.547,365.539L120.846,363.218C122.735,364.254 124.906,364.847 127.214,364.847C134.495,364.847 140.393,358.992 140.393,351.766C140.393,351.655 140.393,351.545 140.387,351.433Z" style="fill:white;"></path> </g> <g transform="matrix(4.16667,0,0,4.16667,0,0)"> <path d="M133.255,354.407C132.928,354.247 131.342,353.469 131.046,353.365C130.748,353.253 130.533,353.205 130.317,353.525C130.102,353.845 129.478,354.568 129.293,354.778C129.102,354.994 128.917,355.018 128.59,354.858C128.269,354.697 127.226,354.364 125.992,353.265C125.036,352.42 124.382,351.372 124.196,351.05C124.012,350.73 124.178,350.557 124.339,350.397C124.486,350.249 124.66,350.02 124.826,349.836L124.943,349.681C125.017,349.564 125.073,349.453 125.147,349.298C125.258,349.083 125.203,348.897 125.122,348.737C125.042,348.577 124.394,346.997 124.123,346.355C123.858,345.713 123.586,345.825 123.395,345.825C123.21,345.825 122.993,345.794 122.777,345.794C122.562,345.794 122.21,345.874 121.914,346.195C121.618,346.515 120.785,347.293 120.785,348.873C120.785,349.243 120.853,349.613 120.951,349.964C121.278,351.094 121.982,352.026 122.105,352.186C122.265,352.396 124.339,355.74 127.621,357.03C130.91,358.307 130.91,357.881 131.503,357.826C132.094,357.776 133.415,357.054 133.68,356.301C133.952,355.555 133.952,354.914 133.872,354.778C133.791,354.648 133.575,354.568 133.255,354.407Z" style="fill:white;"></path> </g> <g transform="matrix(4.16667,0,0,4.16667,0,0)"> <path d="M60.175,219.679C49.759,219.679 41.315,211.235 41.315,200.819C41.315,190.402 49.759,181.958 60.175,181.958C70.591,181.958 79.036,190.402 79.036,200.819C79.036,211.235 70.591,219.679 60.175,219.679Z" style="fill:rgb(243,115,104);fill-rule:nonzero;"></path> </g> <g transform="matrix(4.16667,0,0,4.16667,0,0)"> <path d="M54.14,202.571C54.434,202.692 54.698,202.576 54.784,202.251C54.843,202.024 54.984,201.455 55.047,201.217C55.133,200.894 55.099,200.781 54.861,200.5C54.343,199.889 54.012,199.097 54.012,197.976C54.012,194.725 56.445,191.814 60.347,191.814C63.802,191.814 65.7,193.925 65.7,196.746C65.7,200.455 64.059,203.586 61.621,203.586C60.275,203.586 59.268,202.473 59.591,201.108C59.978,199.478 60.727,197.719 60.727,196.542C60.727,195.489 60.161,194.61 58.991,194.61C57.615,194.61 56.509,196.034 56.509,197.941C56.509,199.155 56.921,199.977 56.921,199.977C56.921,199.977 55.512,205.943 55.265,206.988C54.774,209.068 55.191,211.62 55.227,211.878C55.248,212.031 55.444,212.066 55.532,211.952C55.66,211.786 57.299,209.762 57.855,207.74C58.013,207.169 58.761,204.205 58.761,204.205C59.207,205.057 60.514,205.807 61.903,205.807C66.04,205.807 68.846,202.037 68.846,196.989C68.846,193.173 65.614,189.619 60.7,189.619C54.587,189.619 51.505,194.002 51.505,197.656C51.505,199.87 52.343,201.838 54.14,202.571Z" style="fill:white;fill-rule:nonzero;"></path> </g> <g transform="matrix(4.16667,0,0,4.16667,0,0)"> <path d="M37.517,309.768C23.256,309.768 11.695,298.207 11.695,283.946C11.695,269.684 23.256,258.125 37.517,258.125C51.779,258.125 63.34,269.684 63.34,283.946C63.34,298.207 51.779,309.768 37.517,309.768Z" style="fill:rgb(51,88,99);fill-rule:nonzero;"></path> </g> <g transform="matrix(4.16667,0,0,4.16667,0,0)"> <path d="M37.517,269.788C33.672,269.788 33.19,269.803 31.68,269.873C30.173,269.941 29.144,270.181 28.243,270.531C27.312,270.892 26.522,271.377 25.735,272.164C24.948,272.951 24.464,273.741 24.102,274.671C23.752,275.572 23.513,276.601 23.445,278.108C23.375,279.619 23.359,280.1 23.359,283.946C23.359,287.792 23.375,288.273 23.445,289.784C23.513,291.291 23.752,292.319 24.102,293.22C24.464,294.151 24.948,294.941 25.735,295.728C26.522,296.515 27.312,297 28.243,297.361C29.144,297.711 30.173,297.951 31.68,298.019C33.19,298.088 33.672,298.104 37.517,298.104C41.362,298.104 41.844,298.088 43.355,298.019C44.862,297.951 45.891,297.711 46.792,297.361C47.723,297 48.512,296.515 49.3,295.728C50.087,294.941 50.571,294.151 50.933,293.22C51.282,292.319 51.522,291.291 51.591,289.784C51.659,288.273 51.675,287.792 51.675,283.946C51.675,280.1 51.659,279.619 51.591,278.108C51.522,276.601 51.282,275.572 50.933,274.671C50.571,273.741 50.087,272.951 49.3,272.164C48.512,271.377 47.723,270.892 46.792,270.531C45.891,270.181 44.862,269.941 43.355,269.873C41.844,269.803 41.362,269.788 37.517,269.788ZM37.517,272.338C41.298,272.338 41.746,272.353 43.238,272.42C44.619,272.484 45.369,272.714 45.868,272.909C46.529,273.166 47,273.472 47.496,273.967C47.991,274.463 48.298,274.934 48.554,275.595C48.749,276.094 48.979,276.844 49.042,278.224C49.11,279.717 49.125,280.166 49.125,283.946C49.125,287.726 49.11,288.174 49.042,289.667C48.979,291.047 48.749,291.797 48.554,292.296C48.298,292.957 47.991,293.428 47.496,293.924C47,294.42 46.529,294.726 45.868,294.983C45.369,295.177 44.619,295.408 43.238,295.471C41.746,295.539 41.298,295.553 37.517,295.553C33.737,295.553 33.289,295.539 31.796,295.471C30.416,295.408 29.666,295.177 29.167,294.983C28.506,294.726 28.035,294.42 27.539,293.924C27.044,293.428 26.737,292.957 26.48,292.296C26.286,291.797 26.055,291.047 25.992,289.667C25.925,288.174 25.91,287.726 25.91,283.946C25.91,280.166 25.925,279.717 25.992,278.224C26.055,276.844 26.286,276.094 26.48,275.595C26.737,274.934 27.044,274.463 27.539,273.967C28.035,273.472 28.506,273.166 29.167,272.909C29.666,272.714 30.416,272.484 31.796,272.42C33.289,272.353 33.737,272.338 37.517,272.338Z" style="fill:white;fill-rule:nonzero;"></path> </g> <g transform="matrix(4.16667,0,0,4.16667,0,0)"> <path d="M37.517,288.666C34.911,288.666 32.798,286.552 32.798,283.946C32.798,281.339 34.911,279.226 37.517,279.226C40.124,279.226 42.237,281.339 42.237,283.946C42.237,286.552 40.124,288.666 37.517,288.666ZM37.517,276.675C33.502,276.675 30.247,279.93 30.247,283.946C30.247,287.962 33.502,291.216 37.517,291.216C41.533,291.216 44.788,287.962 44.788,283.946C44.788,279.93 41.533,276.675 37.517,276.675Z" style="fill:white;fill-rule:nonzero;"></path> </g> <g transform="matrix(4.16667,0,0,4.16667,0,0)"> <path d="M46.774,276.388C46.774,277.326 46.013,278.087 45.075,278.087C44.136,278.087 43.376,277.326 43.376,276.388C43.376,275.45 44.136,274.689 45.075,274.689C46.013,274.689 46.774,275.45 46.774,276.388Z" style="fill:white;fill-rule:nonzero;"></path> </g> <g transform="matrix(4.16667,0,0,4.16667,0,0)"> <path d="M100.448,144.276C91.857,144.276 84.893,137.312 84.893,128.722C84.893,120.131 91.857,113.168 100.448,113.168C109.038,113.168 116.002,120.131 116.002,128.722C116.002,137.312 109.038,144.276 100.448,144.276Z" style="fill:rgb(51,88,99);fill-rule:nonzero;"></path> </g> <g transform="matrix(4.16667,0,0,4.16667,0,0)"> <path d="M98.077,138.124L101.864,138.124L101.864,128.642L104.506,128.642L104.787,125.467L101.864,125.467L101.864,123.659C101.864,122.911 102.015,122.615 102.738,122.615L104.787,122.615L104.787,119.32L102.166,119.32C99.348,119.32 98.077,120.561 98.077,122.936L98.077,125.467L96.108,125.467L96.108,128.682L98.077,128.682L98.077,138.124Z" style="fill:white;fill-rule:nonzero;"></path> </g> <g transform="matrix(4.16667,0,0,4.16667,0,0)"> <path d="M69.961,24.585L88.158,1.245L92.612,30.597L116.622,29.784L98.822,53.158L122.456,71.426L92.282,60.226L88.061,89.606L67.815,69.904L42.299,87.638L47.885,61.854L18.928,57.295L41.45,44.003L28.321,21.358L51.182,34.315L53.565,2.228L69.961,24.585Z" style="fill:rgb(249,249,249);fill-rule:nonzero;"></path> </g> <g transform="matrix(4.16667,0,0,4.16667,0,0)"> <path d="M98.822,53.158C98.822,53.158 99.382,53.573 100.443,54.382C101.506,55.195 103.075,56.397 105.128,57.966C109.228,61.112 115.25,65.733 122.967,71.654L123.579,72.124L122.865,71.829C118.743,70.127 114.053,68.442 108.913,66.652C103.777,64.851 98.178,62.956 92.34,60.555L92.533,60.446C91.191,69.198 89.681,79.043 88.061,89.606L88.012,89.924L87.782,89.699C81.457,83.493 74.679,76.845 67.584,69.884L67.815,69.904C59.811,75.467 51.406,81.309 42.697,87.361L42.299,87.638L42.397,87.163C44.062,79.118 45.834,70.554 47.647,61.791L47.815,62.014C38.642,60.574 28.94,59.05 19.049,57.498L18.479,57.408L18.978,57.118C25.211,53.494 31.828,49.647 38.524,45.754C39.539,45.164 40.552,44.575 41.563,43.987L41.497,44.283C38.997,40.645 36.801,36.862 34.653,33.096C32.512,29.325 30.458,25.547 28.47,21.776L28.147,21.163L28.751,21.503C36.523,25.876 44.145,30.165 51.592,34.355L51.295,34.515C51.679,28.929 52.057,23.43 52.429,18.028C52.594,15.325 52.758,12.647 52.921,9.994C52.988,8.667 53.056,7.346 53.124,6.032C53.149,5.375 53.173,4.72 53.197,4.066L53.216,3.089L53.213,2.606C53.212,2.465 53.181,2.248 53.196,2.228L53.431,1.906L53.502,2.003C59.282,9.917 64.832,17.515 70.131,24.77L69.847,24.767C76.245,16.396 82.264,8.518 87.877,1.174L88.1,0.881L88.158,1.245C89.89,12.016 91.453,21.735 92.852,30.441L92.713,30.331C101.984,30.042 109.876,29.795 116.615,29.585L116.825,29.578L116.698,29.744C110.92,37.326 106.463,43.174 103.446,47.132C101.934,49.109 100.784,50.613 100.007,51.629C99.231,52.64 98.822,53.158 98.822,53.158C98.822,53.158 99.196,52.645 99.954,51.633C100.719,50.615 101.852,49.107 103.341,47.126C106.346,43.141 110.784,37.255 116.539,29.625L116.622,29.784C109.886,30.012 101.999,30.279 92.733,30.593L92.612,30.597L92.593,30.483C91.178,21.779 89.598,12.064 87.846,1.295L88.128,1.366C82.525,8.717 76.515,16.603 70.129,24.982L69.985,25.171L69.845,24.98C64.539,17.729 58.982,10.136 53.196,2.228L53.502,2.003C53.615,2.297 53.568,2.411 53.592,2.595L53.597,3.091L53.579,4.077C53.555,4.732 53.53,5.39 53.506,6.049C53.44,7.365 53.373,8.687 53.306,10.015C53.145,12.67 52.983,15.349 52.819,18.053C52.45,23.457 52.075,28.957 51.694,34.543L51.672,34.858L51.396,34.703C43.947,30.515 36.324,26.229 28.551,21.859L28.832,21.586C30.818,25.351 32.872,29.127 35.01,32.893C37.154,36.653 39.351,40.434 41.835,44.047L41.962,44.232L41.769,44.343C40.758,44.931 39.745,45.52 38.731,46.11C32.035,50.002 25.417,53.849 19.184,57.472L19.112,57.093C29.003,58.648 38.704,60.175 47.877,61.618L48.085,61.65L48.045,61.841C46.225,70.614 44.447,79.188 42.776,87.242L42.476,87.044C51.19,80.998 59.599,75.163 67.608,69.606L67.731,69.521L67.838,69.626C74.925,76.595 81.695,83.251 88.014,89.463L87.735,89.556C89.372,78.996 90.898,69.153 92.255,60.403L92.282,60.226L92.448,60.294C98.27,62.701 103.861,64.606 108.994,66.421C114.13,68.224 118.82,69.922 122.944,71.641L122.841,71.815C115.135,65.839 109.12,61.174 105.026,58C102.994,56.419 101.441,55.21 100.388,54.392C99.345,53.578 98.822,53.158 98.822,53.158Z" style="fill:rgb(12,43,52);fill-rule:nonzero;"></path> </g> <g transform="matrix(4.16667,0,0,4.16667,0,0)"> <path d="M67.702,48.199C67.702,49.525 66.628,50.6 65.302,50.6C63.976,50.6 62.901,49.525 62.901,48.199C62.901,46.873 63.976,45.798 65.302,45.798C66.628,45.798 67.702,46.873 67.702,48.199Z" style="fill:rgb(12,43,52);fill-rule:nonzero;"></path> </g> <g transform="matrix(4.16667,0,0,4.16667,0,0)"> <path d="M75.029,48.199C75.029,49.525 73.954,50.6 72.629,50.6C71.303,50.6 70.228,49.525 70.228,48.199C70.228,46.873 71.303,45.798 72.629,45.798C73.954,45.798 75.029,46.873 75.029,48.199Z" style="fill:rgb(12,43,52);fill-rule:nonzero;"></path> </g> <g transform="matrix(4.16667,0,0,4.16667,0,0)"> <path d="M82.356,48.199C82.356,49.525 81.281,50.6 79.955,50.6C78.63,50.6 77.555,49.525 77.555,48.199C77.555,46.873 78.63,45.798 79.955,45.798C81.281,45.798 82.356,46.873 82.356,48.199Z" style="fill:rgb(12,43,52);fill-rule:nonzero;"></path> </g> <g transform="matrix(4.16667,0,0,4.16667,0,0)"> <path d="M309.922,425.45L175.665,425.45C164.114,425.45 154.751,416.086 154.751,404.536L154.751,28.822C154.751,17.272 164.114,7.909 175.665,7.909L309.922,7.909C321.472,7.909 330.836,17.272 330.836,28.822L330.836,404.536C330.836,416.086 321.472,425.45 309.922,425.45Z" style="fill:rgb(12,43,52);fill-rule:nonzero;"></path> </g> <g transform="matrix(4.16667,0,0,4.16667,0,0)"> <path d="M294.037,425.623L163.059,425.623C150.604,425.623 140.506,415.525 140.506,403.069L140.506,30.634C140.506,18.179 150.604,8.081 163.059,8.081L294.037,8.081C306.493,8.081 316.591,18.179 316.591,30.634L316.591,403.069C316.591,415.525 306.493,425.623 294.037,425.623Z" style="fill:rgb(51,88,99);fill-rule:nonzero;"></path> </g> <g transform="matrix(4.16667,0,0,4.16667,0,0)"> <path d="M290.043,14.742L266.121,14.708C262.913,14.704 260.312,17.921 260.316,21.894L260.318,27.035C260.32,31.008 257.72,34.226 254.513,34.221L207.884,34.153C204.676,34.149 202.074,30.924 202.072,26.951L202.069,21.81C202.068,17.836 199.465,14.612 196.257,14.607L187.844,14.595L166.906,14.565C156.508,14.55 148.081,24.527 148.087,36.847L148.253,394.544C148.258,406.857 156.686,416.848 167.078,416.863L290.215,417.04C300.612,417.055 309.039,407.078 309.034,394.758L308.868,37.061C308.862,24.748 300.436,14.757 290.043,14.742Z" style="fill:white;fill-rule:nonzero;"></path> </g> <g transform="matrix(4.16667,0,0,4.16667,0,0)"> <path d="M290.043,14.742C290.043,14.742 290.287,14.749 290.77,14.773C291.253,14.804 291.98,14.801 292.918,15.006C294.786,15.324 297.596,16.203 300.567,18.501C302.008,19.688 303.48,21.197 304.785,23.101C306.101,24.997 307.194,27.309 307.947,29.935C308.317,31.249 308.61,32.643 308.767,34.106C308.942,35.565 308.959,37.095 308.959,38.661C308.964,41.799 308.969,45.14 308.975,48.68C309.008,76.999 309.055,117.968 309.113,168.592C309.153,219.22 309.2,279.503 309.252,346.438C309.257,354.805 309.263,363.276 309.268,371.845C309.271,376.13 309.274,380.439 309.277,384.772C309.278,386.939 309.279,389.111 309.28,391.29C309.275,393.461 309.347,395.658 309.083,397.862C308.865,400.063 308.285,402.226 307.48,404.295C306.685,406.37 305.575,408.337 304.178,410.086C302.794,411.84 301.137,413.398 299.239,414.62C297.338,415.834 295.183,416.665 292.948,417.039C290.692,417.413 288.44,417.258 286.201,417.288C283.956,417.284 281.706,417.281 279.45,417.278C274.939,417.272 270.406,417.266 265.854,417.26C247.644,417.235 229.111,417.21 210.304,417.184C200.901,417.171 191.428,417.158 181.893,417.144C177.125,417.138 172.341,417.131 167.543,417.125C165.121,417.133 162.661,416.682 160.432,415.68C158.196,414.696 156.183,413.234 154.49,411.474C151.07,407.952 149.029,403.28 148.306,398.503C147.896,396.101 148.018,393.671 147.991,391.292C147.99,388.899 147.989,386.51 147.988,384.127C147.984,374.587 147.98,365.112 147.976,355.706C147.968,336.893 147.961,318.356 147.954,300.141C147.943,263.712 147.931,228.575 147.921,195.101C147.913,161.628 147.907,129.82 147.901,100.052C147.899,85.168 147.897,70.794 147.895,56.977C147.898,50.067 147.9,43.298 147.902,36.673C147.962,30.029 150.509,23.433 155.258,19.108C157.616,16.975 160.461,15.343 163.539,14.754C164.307,14.614 165.07,14.455 165.849,14.448C166.627,14.386 167.393,14.378 168.153,14.389C169.678,14.392 171.193,14.395 172.698,14.398C178.719,14.41 184.583,14.421 190.284,14.433C191.71,14.436 193.125,14.439 194.529,14.441C195.237,14.454 195.92,14.421 196.641,14.47C197.36,14.527 198.059,14.746 198.684,15.088C199.941,15.778 200.866,16.931 201.448,18.186C202.031,19.449 202.261,20.852 202.226,22.202C202.225,23.544 202.225,24.876 202.225,26.197C202.198,27.517 202.3,28.811 202.79,30.004C203.244,31.189 203.994,32.273 205.001,33.01C205.502,33.374 206.054,33.679 206.652,33.832C207.248,33.997 207.853,34.017 208.489,34.009C218.544,34.031 227.901,34.051 236.514,34.071C240.821,34.081 244.942,34.09 248.87,34.1C250.834,34.102 252.749,34.105 254.616,34.107C256.47,34.076 258.084,32.894 258.989,31.419C259.932,29.939 260.282,28.203 260.221,26.547C260.226,24.876 260.23,23.256 260.234,21.687C260.265,20.103 260.728,18.58 261.534,17.335C262.346,16.101 263.534,15.142 264.884,14.793C265.557,14.613 266.246,14.632 266.894,14.635C267.549,14.637 268.191,14.639 268.819,14.641C270.076,14.645 271.279,14.648 272.429,14.652C274.729,14.66 276.813,14.667 278.676,14.673C282.4,14.69 285.24,14.703 287.154,14.711C289.065,14.723 290.043,14.742 290.043,14.742C290.043,14.742 289.065,14.759 287.154,14.765C285.24,14.768 282.4,14.773 278.676,14.778C276.813,14.78 274.729,14.781 272.429,14.782C271.279,14.783 270.076,14.783 268.819,14.783C268.191,14.783 267.549,14.783 266.894,14.784C266.237,14.783 265.574,14.768 264.923,14.942C263.618,15.284 262.465,16.218 261.673,17.426C260.89,18.645 260.44,20.138 260.414,21.69C260.414,23.259 260.413,24.877 260.413,26.546C260.479,28.217 260.126,30.008 259.161,31.528C258.236,33.044 256.564,34.284 254.62,34.321C252.752,34.323 250.835,34.324 248.87,34.325C244.941,34.323 240.82,34.321 236.514,34.319C227.901,34.313 218.543,34.307 208.489,34.3C207.87,34.31 207.201,34.291 206.573,34.115C205.938,33.953 205.353,33.631 204.824,33.248C203.763,32.473 202.982,31.343 202.508,30.113C202,28.886 201.892,27.511 201.918,26.198C201.917,24.877 201.916,23.544 201.914,22.202C201.946,20.871 201.722,19.537 201.16,18.318C200.601,17.113 199.713,16.017 198.529,15.37C197.94,15.049 197.286,14.846 196.615,14.793C195.945,14.747 195.226,14.779 194.529,14.768C193.124,14.767 191.709,14.766 190.284,14.764C184.583,14.759 178.718,14.753 172.698,14.748C171.193,14.747 169.678,14.746 168.153,14.744C167.389,14.733 166.626,14.743 165.872,14.804C165.111,14.811 164.364,14.969 163.613,15.106C160.604,15.684 157.819,17.284 155.507,19.379C150.849,23.627 148.34,30.126 148.287,36.675C148.29,43.299 148.294,50.068 148.297,56.977C148.308,70.794 148.32,85.168 148.332,100.052C148.354,129.82 148.376,161.628 148.4,195.101C148.421,228.574 148.442,263.712 148.464,300.141C148.474,318.356 148.484,336.893 148.494,355.706C148.499,365.112 148.504,374.587 148.508,384.126C148.509,386.51 148.51,388.899 148.511,391.292C148.538,393.688 148.418,396.082 148.82,398.425C149.529,403.107 151.53,407.681 154.866,411.114C156.516,412.829 158.474,414.249 160.642,415.204C162.81,416.175 165.169,416.61 167.544,416.604C172.342,416.611 177.126,416.618 181.894,416.625C191.429,416.638 200.902,416.652 210.305,416.667C229.112,416.695 247.644,416.722 265.855,416.75C270.407,416.756 274.939,416.764 279.451,416.771C281.707,416.774 283.957,416.778 286.202,416.781C288.446,416.754 290.705,416.903 292.864,416.542C295.03,416.179 297.12,415.376 298.97,414.196C300.815,413.007 302.431,411.49 303.785,409.776C305.15,408.068 306.236,406.144 307.016,404.111C307.805,402.085 308.376,399.964 308.589,397.804C308.849,395.657 308.779,393.47 308.785,391.29C308.784,389.111 308.784,386.939 308.783,384.772C308.782,380.439 308.78,376.13 308.779,371.846C308.777,363.277 308.775,354.805 308.772,346.439C308.762,279.503 308.753,219.221 308.745,168.593C308.757,117.968 308.766,76.999 308.773,48.68C308.775,45.14 308.777,41.799 308.779,38.661C308.784,37.091 308.77,35.576 308.601,34.124C308.449,32.67 308.161,31.284 307.798,29.977C307.058,27.365 305.979,25.063 304.678,23.174C303.386,21.276 301.93,19.771 300.501,18.583C297.558,16.285 294.767,15.392 292.908,15.059C291.975,14.845 291.25,14.839 290.769,14.8C290.287,14.766 290.043,14.742 290.043,14.742Z" style="fill:rgb(12,43,52);fill-rule:nonzero;"></path> </g> <g transform="matrix(4.16667,0,0,4.16667,0,0)"> <path d="M189.945,379.658L187.32,418.568L204.113,420.629L212.155,380.893L189.945,379.658Z" style="fill:rgb(185,102,83);fill-rule:nonzero;"></path> </g> <g transform="matrix(4.16667,0,0,4.16667,0,0)"> <path d="M187.526,413.427L187.372,414.542C187.372,414.542 167.448,419.602 166.766,423.162L204.333,428L205.432,415.433C199.513,417.3 193.631,416.839 187.526,413.427Z" style="fill:rgb(243,115,104);fill-rule:nonzero;"></path> </g> <g transform="matrix(4.16667,0,0,4.16667,0,0)"> <path d="M201.113,418.94C201.815,419.233 202.212,420.115 201.948,420.828C201.685,421.541 200.792,421.952 200.085,421.671C199.379,421.392 198.869,420.347 199.211,419.669C199.552,418.99 200.628,418.564 201.247,419.005" style="fill:white;fill-rule:nonzero;"></path> </g> <g transform="matrix(4.16667,0,0,4.16667,0,0)"> <path d="M204.333,428L204.597,424.977L168.495,421.447C168.495,421.447 166.729,421.96 166.766,423.162L204.333,428Z" style="fill:white;fill-rule:nonzero;"></path> </g> <g transform="matrix(4.16667,0,0,4.16667,0,0)"> <path d="M187.227,414.63C187.209,414.814 188.115,415.015 188.942,415.721C189.787,416.406 190.15,417.26 190.328,417.21C190.502,417.196 190.37,416.064 189.354,415.227C188.346,414.38 187.208,414.457 187.227,414.63Z" style="fill:rgb(12,43,52);fill-rule:nonzero;"></path> </g> <g transform="matrix(4.16667,0,0,4.16667,0,0)"> <path d="M183.076,415.753C183.011,415.924 183.766,416.338 184.289,417.195C184.838,418.036 184.886,418.895 185.07,418.911C185.239,418.962 185.504,417.903 184.833,416.851C184.173,415.794 183.103,415.578 183.076,415.753Z" style="fill:rgb(12,43,52);fill-rule:nonzero;"></path> </g> <g transform="matrix(4.16667,0,0,4.16667,0,0)"> <path d="M180.232,420.18C180.393,420.241 180.766,419.357 180.424,418.292C180.09,417.223 179.277,416.716 179.179,416.859C179.056,416.997 179.544,417.607 179.811,418.486C180.099,419.358 180.051,420.138 180.232,420.18Z" style="fill:rgb(12,43,52);fill-rule:nonzero;"></path> </g> <g transform="matrix(4.16667,0,0,4.16667,0,0)"> <path d="M257.776,66.459C258.193,63.773 260.613,61.708 263.254,61.06C265.893,60.411 268.69,60.953 271.251,61.866C274.124,62.891 276.873,64.415 278.945,66.653C281.017,68.891 282.359,71.9 282.196,74.946C282.044,77.801 280.62,80.666 281.415,83.412C282.019,85.498 283.784,87.02 285.554,88.278C287.324,89.537 289.241,90.716 290.432,92.532C291.623,94.348 291.819,97.05 290.21,98.508C288.778,99.805 286.209,99.954 285.607,101.79C285.233,102.928 285.867,104.118 286.217,105.264C286.957,107.689 286.383,110.394 285.047,112.547C283.709,114.701 281.673,116.348 279.465,117.595C275.595,119.78 270.77,120.802 266.682,119.057C264.659,118.193 262.936,116.699 261.644,114.919C259.493,111.956 258.532,108.263 258.308,104.609C258.084,100.955 258.551,97.298 259.017,93.667" style="fill:rgb(12,43,52);fill-rule:nonzero;"></path> </g> <g transform="matrix(4.16667,0,0,4.16667,0,0)"> <path d="M256.355,109.936C259.725,110.865 263.514,110.111 266.27,107.963C269.027,105.815 270.683,102.324 270.604,98.831C270.53,95.569 269.055,92.245 270.069,89.143C270.765,87.013 272.55,85.354 273.149,83.195C274.042,79.972 272.094,76.715 270.233,73.936C269.039,72.153 267.82,70.342 266.156,68.988C264.492,67.633 262.286,66.779 260.187,67.224" style="fill:rgb(12,43,52);fill-rule:nonzero;"></path> </g> <g transform="matrix(4.16667,0,0,4.16667,0,0)"> <path d="M226.275,67.509C226.457,69.972 224.831,72.171 223.192,74.019C221.553,75.866 219.731,77.792 219.377,80.235C218.749,84.566 222.989,88.586 222.114,92.875C221.646,95.172 219.764,97.018 219.429,99.339C219.104,101.584 220.308,103.781 221.799,105.491C223.29,107.2 225.108,108.625 226.427,110.47C226.427,110.47 229.173,114.977 237.629,112.091" style="fill:rgb(12,43,52);fill-rule:nonzero;"></path> </g> <g transform="matrix(4.16667,0,0,4.16667,0,0)"> <path d="M264.123,71.275C264.187,69.042 262.121,67.316 260.043,66.499C257.963,65.681 255.653,65.372 253.799,64.125C252.158,63.02 251.055,61.297 249.667,59.889C246.258,56.435 240.938,55.002 236.257,56.28C231.576,57.557 227.719,61.492 226.538,66.199C225.739,69.379 226.285,73.14 228.792,75.253C231.701,77.706 236.015,77.161 239.743,76.398C243.472,75.635 247.692,74.882 250.804,77.072C252.681,78.392 253.757,80.54 254.905,82.528C256.052,84.516 257.493,86.545 259.663,87.292C261.833,88.04 264.779,86.749 264.864,84.456" style="fill:rgb(12,43,52);fill-rule:nonzero;"></path> </g> <g transform="matrix(4.16667,0,0,4.16667,0,0)"> <path d="M255.316,71.734C257.245,71.942 258.694,73.592 258.651,75.532L256.422,126C256.328,131.961 247.615,135.309 241.234,135.161C234.789,135.011 234.582,131.85 234.501,126.18C234.366,116.706 234.378,113.149 234.374,113.203C234.374,113.203 226.234,111.833 224.57,101.205C223.743,95.919 224.027,87.256 224.489,80.176C224.905,73.803 229.145,65.992 235.495,66.678L255.316,71.734Z" style="fill:rgb(185,102,83);fill-rule:nonzero;"></path> </g> <g transform="matrix(4.16667,0,0,4.16667,0,0)"> <path d="M226.37,87.17C226.342,87.89 226.929,88.506 227.681,88.547C228.43,88.589 229.061,88.042 229.088,87.322C229.115,86.603 228.528,85.986 227.778,85.944C227.027,85.901 226.397,86.45 226.37,87.17Z" style="fill:rgb(12,43,52);fill-rule:nonzero;"></path> </g> <g transform="matrix(4.16667,0,0,4.16667,0,0)"> <path d="M226.02,83.539C226.189,83.716 227.223,82.955 228.689,82.962C230.154,82.948 231.228,83.705 231.388,83.525C231.466,83.446 231.295,83.125 230.826,82.783C230.366,82.442 229.58,82.11 228.667,82.112C227.754,82.115 226.985,82.449 226.542,82.793C226.09,83.138 225.937,83.459 226.02,83.539Z" style="fill:rgb(12,43,52);fill-rule:nonzero;"></path> </g> <g transform="matrix(4.16667,0,0,4.16667,0,0)"> <path d="M239.989,87.429C239.962,88.148 240.548,88.765 241.299,88.807C242.049,88.848 242.68,88.301 242.707,87.581C242.734,86.862 242.147,86.245 241.397,86.203C240.646,86.161 240.016,86.71 239.989,87.429Z" style="fill:rgb(12,43,52);fill-rule:nonzero;"></path> </g> <g transform="matrix(4.16667,0,0,4.16667,0,0)"> <path d="M240.771,84.266C240.94,84.443 241.975,83.682 243.44,83.689C244.905,83.675 245.98,84.432 246.139,84.253C246.217,84.173 246.048,83.852 245.578,83.51C245.117,83.169 244.332,82.837 243.418,82.839C242.505,82.842 241.736,83.176 241.293,83.52C240.843,83.865 240.689,84.186 240.771,84.266Z" style="fill:rgb(12,43,52);fill-rule:nonzero;"></path> </g> <g transform="matrix(4.16667,0,0,4.16667,0,0)"> <path d="M235.425,95.855C235.433,95.772 234.522,95.612 233.045,95.42C232.671,95.38 232.316,95.305 232.254,95.049C232.166,94.778 232.324,94.376 232.506,93.94C232.86,93.035 233.231,92.086 233.62,91.092C235.167,87.036 236.287,83.7 236.123,83.64C235.959,83.579 234.572,86.816 233.026,90.873C232.654,91.873 232.298,92.826 231.959,93.738C231.816,94.164 231.571,94.646 231.761,95.208C231.861,95.487 232.136,95.691 232.376,95.756C232.615,95.83 232.826,95.835 233.011,95.846C234.498,95.929 235.42,95.938 235.425,95.855Z" style="fill:rgb(12,43,52);fill-rule:nonzero;"></path> </g> <g transform="matrix(4.16667,0,0,4.16667,0,0)"> <path d="M234.374,113.203C234.374,113.203 241.521,113.68 248.612,109.439C248.612,109.439 245.006,116.737 234.374,115.719L234.374,113.203Z" style="fill:rgb(118,69,62);fill-rule:nonzero;"></path> </g> <g transform="matrix(4.16667,0,0,4.16667,0,0)"> <path d="M240.128,80.699C240.272,81.098 241.736,80.912 243.456,81.123C245.18,81.3 246.566,81.806 246.795,81.449C246.898,81.278 246.656,80.903 246.096,80.516C245.542,80.129 244.655,79.761 243.623,79.643C242.59,79.528 241.644,79.69 241.017,79.943C240.385,80.196 240.067,80.509 240.128,80.699Z" style="fill:rgb(12,43,52);fill-rule:nonzero;"></path> </g> <g transform="matrix(4.16667,0,0,4.16667,0,0)"> <path d="M226.238,80.288C226.53,80.622 227.676,80.278 229.053,80.265C230.43,80.21 231.597,80.495 231.866,80.147C231.984,79.978 231.801,79.644 231.292,79.328C230.791,79.012 229.951,78.754 229.005,78.777C228.058,78.801 227.237,79.101 226.757,79.441C226.27,79.783 226.11,80.125 226.238,80.288Z" style="fill:rgb(12,43,52);fill-rule:nonzero;"></path> </g> <g transform="matrix(4.16667,0,0,4.16667,0,0)"> <path d="M262.735,106.69C259.812,107.278 256.631,106.38 254.447,104.351C252.264,102.321 251.137,99.213 251.511,96.256C251.841,93.647 253.248,90.992 252.344,88.522C251.148,85.257 246.57,84.252 245.355,80.993C244.65,79.1 245.283,76.884 244.483,75.028C243.73,73.283 241.894,72.278 240.107,71.631C238.319,70.985 236.403,70.54 234.902,69.373C233.402,68.207 232.466,66.005 233.434,64.37C241.361,65.319 249.173,67.217 256.651,70.011C258.385,70.658 260.207,71.437 261.232,72.978C262.317,74.608 262.264,76.716 262.173,78.672C261.728,88.212 261.282,97.752 260.838,107.292" style="fill:rgb(12,43,52);fill-rule:nonzero;"></path> </g> <g transform="matrix(4.16667,0,0,4.16667,0,0)"> <path d="M268.35,72.168C268.35,72.168 268.474,72.29 268.527,72.602C268.589,72.908 268.503,73.415 268.117,73.879C267.742,74.334 267.093,74.791 266.215,74.841C265.342,74.862 264.438,74.479 263.523,74.035C262.609,73.575 261.601,73.168 260.423,73.12C259.254,73.047 257.993,73.226 256.672,73.461C255.349,73.692 253.943,73.995 252.429,74.008C250.938,74.028 249.256,73.58 248.078,72.419C246.886,71.289 246.208,69.852 245.573,68.534C244.943,67.206 244.354,65.924 243.546,64.889C241.973,62.745 239.297,62.156 237.413,62.651C235.47,63.141 234.3,64.465 233.715,65.387C233.117,66.344 232.989,66.98 232.936,66.961C232.919,66.957 232.94,66.799 233.016,66.504C233.099,66.213 233.248,65.786 233.53,65.277C234.08,64.292 235.245,62.853 237.316,62.273C238.333,61.998 239.536,61.976 240.729,62.341C241.926,62.683 243.09,63.471 243.944,64.574C244.814,65.667 245.426,66.982 246.061,68.3C246.697,69.612 247.366,70.988 248.455,72.017C249.528,73.068 251.015,73.473 252.431,73.467C253.863,73.464 255.251,73.181 256.586,72.96C257.92,72.737 259.222,72.566 260.456,72.664C261.696,72.73 262.806,73.206 263.695,73.685C264.594,74.151 265.439,74.524 266.208,74.532C266.969,74.521 267.594,74.132 267.955,73.738C268.328,73.336 268.438,72.898 268.416,72.613C268.403,72.323 268.319,72.179 268.35,72.168Z" style="fill:rgb(51,88,99);fill-rule:nonzero;"></path> </g> <g transform="matrix(4.16667,0,0,4.16667,0,0)"> <path d="M269.545,73.179C269.407,73.296 267.783,70.587 264.514,68.745C261.273,66.849 258.116,66.813 258.148,66.635C258.147,66.573 258.924,66.49 260.17,66.659C261.411,66.825 263.114,67.309 264.788,68.267C266.459,69.23 267.735,70.455 268.504,71.445C269.279,72.436 269.599,73.149 269.545,73.179Z" style="fill:rgb(51,88,99);fill-rule:nonzero;"></path> </g> <g transform="matrix(4.16667,0,0,4.16667,0,0)"> <path d="M257.621,66.087C257.635,66.097 257.586,66.203 257.471,66.4C257.338,66.582 257.137,66.859 256.786,67.122C256.112,67.656 254.834,68.145 253.272,67.903C251.699,67.666 250.089,66.587 248.673,65.162C247.234,63.761 245.901,61.957 243.947,60.847C241.996,59.75 239.715,59.585 237.848,60.071C235.955,60.545 234.513,61.687 233.591,62.83C232.657,63.982 232.202,65.126 231.97,65.921C231.739,66.724 231.695,67.192 231.647,67.188C231.628,67.186 231.624,67.068 231.632,66.844C231.638,66.619 231.676,66.288 231.766,65.87C231.941,65.038 232.354,63.829 233.29,62.593C234.211,61.37 235.714,60.121 237.721,59.589C239.697,59.046 242.12,59.201 244.212,60.376C246.304,61.573 247.634,63.427 249.026,64.809C250.392,66.223 251.893,67.261 253.338,67.526C254.78,67.798 255.995,67.402 256.665,66.95C257.351,66.49 257.577,66.054 257.621,66.087Z" style="fill:rgb(51,88,99);fill-rule:nonzero;"></path> </g> <g transform="matrix(4.16667,0,0,4.16667,0,0)"> <path d="M257.131,111.25C257.127,111.272 257.29,111.316 257.605,111.38C257.919,111.442 258.39,111.506 259.001,111.521C260.213,111.547 262.039,111.366 264.026,110.388C266.006,109.449 268.106,107.621 269.381,104.974C270.677,102.369 271.16,98.975 270.288,95.716C269.907,94.101 269.426,92.566 269.354,91.061C269.241,89.549 269.724,88.174 270.405,86.933C271.072,85.696 271.768,84.46 272.05,83.168C272.361,81.894 272.343,80.653 272.153,79.565C271.768,77.376 270.766,75.814 269.959,74.91C269.556,74.448 269.194,74.136 268.939,73.943C268.681,73.752 268.54,73.66 268.527,73.678C268.487,73.725 269.03,74.129 269.77,75.066C270.499,75.993 271.401,77.537 271.713,79.635C271.866,80.676 271.856,81.851 271.542,83.044C271.257,84.248 270.59,85.398 269.891,86.662C269.551,87.297 269.218,87.977 268.997,88.728C268.782,89.481 268.698,90.288 268.736,91.09C268.808,92.705 269.302,94.273 269.674,95.861C270.513,99.004 270.066,102.205 268.858,104.721C267.666,107.263 265.707,109.033 263.825,109.99C261.94,110.981 260.183,111.227 258.999,111.275C257.803,111.313 257.14,111.192 257.131,111.25Z" style="fill:rgb(51,88,99);fill-rule:nonzero;"></path> </g> <g transform="matrix(4.16667,0,0,4.16667,0,0)"> <path d="M275.953,64.196C275.992,64.141 275.375,63.615 274.139,63.258C272.927,62.897 271.04,62.804 269.221,63.635C267.404,64.472 266.244,65.963 265.727,67.117C265.192,68.287 265.188,69.098 265.256,69.104C265.358,69.127 265.521,68.368 266.123,67.323C266.71,66.286 267.832,64.97 269.484,64.208C271.139,63.453 272.868,63.46 274.037,63.692C275.222,63.918 275.903,64.289 275.953,64.196Z" style="fill:rgb(51,88,99);fill-rule:nonzero;"></path> </g> <g transform="matrix(4.16667,0,0,4.16667,0,0)"> <path d="M268.096,70.903C268.128,70.896 268.068,70.659 268.051,70.212C268.029,69.77 268.111,69.087 268.52,68.346C268.923,67.61 269.65,66.815 270.721,66.278C271.788,65.74 273.219,65.58 274.608,66.179C275.998,66.735 277.246,67.949 278.083,69.506C278.926,71.069 279.249,73.001 279.164,75.012C279.092,77.032 278.641,79.127 278.168,81.309C277.708,83.488 277.229,85.804 277.353,88.232C277.487,90.669 278.307,92.913 279.152,94.978C280.004,97.05 280.91,98.999 281.463,100.946C282.035,102.883 282.215,104.817 281.944,106.589C281.694,108.362 281.124,109.959 280.47,111.345C279.132,114.116 277.589,116.118 276.574,117.515C276.088,118.163 275.692,118.692 275.376,119.112C275.104,119.48 274.969,119.679 274.986,119.693C275.003,119.707 275.171,119.534 275.475,119.193C275.779,118.852 276.219,118.34 276.768,117.666C277.845,116.309 279.453,114.341 280.871,111.54C281.564,110.137 282.179,108.504 282.462,106.663C282.767,104.827 282.597,102.784 282.022,100.788C281.467,98.778 280.561,96.802 279.725,94.744C278.892,92.692 278.109,90.514 277.983,88.198C277.79,83.535 279.68,79.222 279.745,75.031C279.818,72.955 279.462,70.909 278.543,69.257C277.636,67.619 276.289,66.341 274.774,65.765C273.271,65.143 271.67,65.355 270.562,65.963C269.434,66.567 268.694,67.436 268.301,68.234C267.903,69.037 267.86,69.764 267.924,70.22C267.983,70.682 268.096,70.903 268.096,70.903Z" style="fill:rgb(51,88,99);fill-rule:nonzero;"></path> </g> <g transform="matrix(4.16667,0,0,4.16667,0,0)"> <path d="M235.981,99.42C236.228,100.045 236.48,100.68 236.894,101.209C237.308,101.739 237.913,102.158 238.584,102.19C239.299,102.224 239.989,101.8 240.388,101.206C240.787,100.612 240.923,99.871 240.891,99.155C240.862,98.508 240.566,97.736 239.923,97.66C239.655,97.628 239.392,97.731 239.142,97.833C238.016,98.29 236.889,98.747 235.763,99.204" style="fill:rgb(118,69,62);fill-rule:nonzero;"></path> </g> <g transform="matrix(4.16667,0,0,4.16667,0,0)"> <path d="M237.331,102.2C237.348,102.094 238.09,102.395 239.133,101.977C239.638,101.774 240.191,101.371 240.496,100.74C240.8,100.115 240.861,99.269 240.54,98.529C240.466,98.344 240.354,98.174 240.245,98.024C240.111,97.883 240.136,97.89 239.99,97.911C239.853,97.948 239.63,98.053 239.449,98.124C239.261,98.2 239.075,98.275 238.894,98.35C238.171,98.642 237.516,98.898 236.963,99.105C235.856,99.518 235.155,99.735 235.122,99.659C235.09,99.582 235.731,99.226 236.795,98.712C237.327,98.455 237.964,98.159 238.675,97.838C238.855,97.758 239.037,97.677 239.223,97.594C239.42,97.512 239.57,97.424 239.84,97.339C239.972,97.302 240.159,97.281 240.341,97.354C240.52,97.426 240.631,97.547 240.714,97.648C240.865,97.85 240.998,98.056 241.094,98.289C241.491,99.213 241.396,100.235 240.991,100.993C240.577,101.767 239.873,102.202 239.276,102.379C238.667,102.567 238.144,102.522 237.811,102.437C237.475,102.348 237.318,102.233 237.331,102.2Z" style="fill:rgb(12,43,52);fill-rule:nonzero;"></path> </g> <g transform="matrix(4.16667,0,0,4.16667,0,0)"> <path d="M274.95,231.89C274.976,232.006 274.996,232.148 275.021,232.271C274.974,231.855 274.926,231.5 274.95,231.89Z" style="fill:rgb(12,43,52);fill-rule:nonzero;"></path> </g> <g transform="matrix(4.16667,0,0,4.16667,0,0)"> <path d="M284.903,240.997L286.404,254.25L298.53,265.327C298.53,265.327 299.556,263.664 299.002,262.28C298.448,260.895 301.771,264.079 301.771,264.079L301.771,271.693C301.771,271.693 303.847,272.524 304.54,270.724C305.232,268.924 305.647,262.418 305.647,262.418L304.678,261.725C304.678,261.725 305.924,260.618 305.647,258.681C305.647,258.681 306.755,256.327 306.339,253.142C305.924,249.959 305.093,248.297 305.093,248.297L295.161,237.212L284.903,240.997Z" style="fill:rgb(185,102,83);fill-rule:nonzero;"></path> </g> <g transform="matrix(4.16667,0,0,4.16667,0,0)"> <path d="M290.992,253.753C290.885,253.833 292.36,255.942 294.57,258.208C296.775,260.48 298.842,262.013 298.925,261.909C299.019,261.794 297.117,260.1 294.936,257.851C292.749,255.61 291.109,253.662 290.992,253.753Z" style="fill:rgb(118,69,62);fill-rule:nonzero;"></path> </g> <g transform="matrix(4.16667,0,0,4.16667,0,0)"> <path d="M299.507,256.175C299.408,256.276 300.701,257.765 302.393,259.501C304.086,261.238 305.542,262.567 305.645,262.471C305.748,262.375 304.456,260.886 302.758,259.145C301.062,257.405 299.606,256.075 299.507,256.175Z" style="fill:rgb(118,69,62);fill-rule:nonzero;"></path> </g> <g transform="matrix(4.16667,0,0,4.16667,0,0)"> <path d="M301.146,253.138C301.049,253.253 302.208,254.35 303.439,255.866C304.679,257.375 305.524,258.728 305.653,258.657C305.773,258.597 305.11,257.096 303.834,255.543C302.567,253.984 301.228,253.034 301.146,253.138Z" style="fill:rgb(118,69,62);fill-rule:nonzero;"></path> </g> <g transform="matrix(4.16667,0,0,4.16667,0,0)"> <path d="M302.544,250.004C302.448,250.114 303.33,251.024 304.343,252.2C305.361,253.372 306.134,254.376 306.257,254.296C306.372,254.225 305.774,253.07 304.729,251.866C303.688,250.659 302.632,249.9 302.544,250.004Z" style="fill:rgb(118,69,62);fill-rule:nonzero;"></path> </g> <g transform="matrix(4.16667,0,0,4.16667,0,0)"> <path d="M213.282,91.236C213.217,91.377 211.234,90.606 208.85,89.515C206.465,88.423 204.585,87.425 204.649,87.285C204.713,87.145 206.697,87.916 209.082,89.007C211.465,90.099 213.346,91.096 213.282,91.236Z" style="fill:rgb(51,88,99);fill-rule:nonzero;"></path> </g> <g transform="matrix(4.16667,0,0,4.16667,0,0)"> <path d="M199.272,111.598C198.274,111.558 195.847,113.004 193.899,115.687L193.799,115.805C192.412,117.608 191.11,112.462 190.875,110.547C190.723,109.304 189.379,108.541 188.162,108.99L181.726,112.001L179.847,112.064C178.9,112.415 178.373,113.389 178.621,114.335L181.697,124.497L181.764,127.271L194.651,129.016L194.85,122.068C195.042,121.265 195.298,120.318 195.641,119.237C195.95,118.266 196.429,117.34 197.059,116.524C197.72,115.67 198.619,114.59 199.376,113.983L199.587,113.84C199.743,113.756 199.858,113.643 199.954,113.523C200.606,112.817 200.246,111.637 199.272,111.598Z" style="fill:rgb(185,102,83);fill-rule:nonzero;"></path> </g> <g transform="matrix(4.16667,0,0,4.16667,0,0)"> <path d="M199.018,80.287C199.018,80.287 191.497,78.845 180.692,69.029C169.887,59.213 164.563,45.921 163.278,46.023C161.992,46.126 156.297,43.675 146.264,67.236C136.233,90.797 140.597,96.079 142.723,95.975C144.85,95.871 159.182,91.435 168.235,92.205C177.287,92.975 189.019,97.348 189.019,97.348L199.018,80.287Z" style="fill:rgb(243,115,104);fill-rule:nonzero;"></path> </g> <g transform="matrix(4.16667,0,0,4.16667,0,0)"> <path d="M215.257,92.513L212.844,97.434L211.763,99.638C210.281,102.661 206.692,103.995 203.595,102.673L187.416,97.546L196.142,75.982L212.39,84.058C215.508,85.608 216.79,89.386 215.257,92.513Z" style="fill:rgb(12,43,52);fill-rule:nonzero;"></path> </g> <g transform="matrix(4.16667,0,0,4.16667,0,0)"> <path d="M206.24,100.538L201.418,110.688L198.844,110.051L182.557,124.087L177.639,115.097C177.639,115.097 187.371,110.573 189.094,107.008C190.816,103.443 188.688,102.706 188.688,102.706L193.175,97.305L206.24,100.538Z" style="fill:rgb(12,43,52);fill-rule:nonzero;"></path> </g> <g transform="matrix(4.16667,0,0,4.16667,0,0)"> <path d="M147.14,67.635C141.808,80.396 139.757,91.689 142.561,92.861C145.365,94.033 151.961,84.639 157.294,71.878C162.626,59.118 164.676,47.824 161.873,46.652C159.069,45.481 152.473,54.875 147.14,67.635Z" style="fill:rgb(12,43,52);fill-rule:nonzero;"></path> </g> <g transform="matrix(4.16667,0,0,4.16667,0,0)"> <path d="M216.83,99.48L212.449,98.239L214.991,93.054L218.306,94.986L216.83,99.48Z" style="fill:rgb(51,88,99);fill-rule:nonzero;"></path> </g> <g transform="matrix(4.16667,0,0,4.16667,0,0)"> <path d="M203.518,106.267L204.893,103.374L203.518,106.267ZM191.637,99.156L191.638,99.156" style="fill:rgb(168,171,171);fill-rule:nonzero;"></path> </g> <g transform="matrix(4.16667,0,0,4.16667,0,0)"> <path d="M203.518,106.267L191.637,99.156L191.638,99.156L204.893,103.374L203.518,106.267Z" style="fill:rgb(1,23,33);fill-rule:nonzero;"></path> </g> <g transform="matrix(4.16667,0,0,4.16667,0,0)"> <path d="M212.033,94.317C211.973,94.46 209.782,93.678 207.14,92.573C204.495,91.468 202.402,90.456 202.461,90.314C202.52,90.172 204.711,90.953 207.355,92.058C209.998,93.164 212.092,94.175 212.033,94.317Z" style="fill:rgb(51,88,99);fill-rule:nonzero;"></path> </g> <g transform="matrix(4.16667,0,0,4.16667,0,0)"> <path d="M210.439,97.557C210.418,97.631 209.899,97.527 209.069,97.296C208.654,97.181 208.163,97.034 207.618,96.862C207.078,96.684 206.514,96.418 205.911,96.166C203.504,95.13 201.659,94.102 201.715,93.972C201.781,93.819 203.744,94.627 206.129,95.652C206.727,95.903 207.283,96.182 207.805,96.383C208.329,96.578 208.8,96.76 209.193,96.921C209.979,97.244 210.46,97.482 210.439,97.557Z" style="fill:rgb(51,88,99);fill-rule:nonzero;"></path> </g> <g transform="matrix(4.16667,0,0,4.16667,0,0)"> <path d="M158.662,64.504C158.662,64.504 152.051,60.66 148.746,69.538C145.441,78.416 152.317,79.666 152.317,79.666C154.99,75.249 157.122,70.213 158.662,64.504Z" style="fill:rgb(249,249,249);fill-rule:nonzero;"></path> </g> <g transform="matrix(4.16667,0,0,4.16667,0,0)"> <path d="M165.274,53.848C165.313,53.853 165.237,54.452 165.067,55.532C164.892,56.61 164.646,58.175 164.283,60.099C164.036,61.048 163.764,62.085 163.474,63.196C163.327,63.752 163.174,64.328 163.018,64.921C162.939,65.217 162.859,65.518 162.778,65.823C162.689,66.125 162.571,66.423 162.466,66.729C162.033,67.95 161.578,69.231 161.107,70.558C160.988,70.89 160.869,71.224 160.748,71.562C160.631,71.901 160.462,72.221 160.319,72.556C160.02,73.22 159.717,73.893 159.41,74.574C159.102,75.255 158.798,75.928 158.498,76.592C158.341,76.92 158.213,77.26 158.037,77.572C157.863,77.886 157.692,78.197 157.521,78.506C156.838,79.738 156.178,80.926 155.55,82.06C155.389,82.341 155.244,82.627 155.076,82.893C154.901,83.156 154.728,83.416 154.557,83.671C154.216,84.182 153.885,84.678 153.565,85.158C152.923,86.111 152.324,87.002 151.776,87.817C150.576,89.357 149.569,90.574 148.876,91.418C148.179,92.259 147.78,92.713 147.75,92.689C147.719,92.666 148.061,92.167 148.705,91.285C149.373,90.387 150.311,89.125 151.464,87.575C151.99,86.755 152.565,85.858 153.182,84.898C153.492,84.418 153.812,83.921 154.142,83.41C154.308,83.155 154.476,82.896 154.646,82.633C154.809,82.367 154.95,82.081 155.107,81.8C155.722,80.669 156.367,79.483 157.036,78.253C157.204,77.946 157.373,77.637 157.544,77.324C157.718,77.014 157.844,76.676 157.999,76.35C158.296,75.69 158.597,75.022 158.902,74.345C159.207,73.668 159.509,73.001 159.807,72.342C159.949,72.01 160.119,71.692 160.236,71.356C160.358,71.022 160.478,70.69 160.597,70.361C161.075,69.046 161.538,67.778 161.978,66.569C162.085,66.266 162.206,65.971 162.298,65.672C162.382,65.371 162.465,65.073 162.548,64.779C162.713,64.193 162.873,63.624 163.028,63.072C163.34,61.974 163.632,60.948 163.9,60.009C164.298,58.124 164.622,56.589 164.853,55.496C165.088,54.43 165.236,53.842 165.274,53.848Z" style="fill:rgb(12,43,52);fill-rule:nonzero;"></path> </g> <g transform="matrix(4.16667,0,0,4.16667,0,0)"> <path d="M185.913,107.048C185.223,107.346 184.882,108.158 185.141,108.89C185.636,110.292 186.435,112.49 187.034,113.822C187.227,114.251 187.435,114.688 187.769,115.009C188.103,115.33 188.594,115.516 189.021,115.354C189.471,115.182 189.735,114.668 189.769,114.169C189.804,113.669 189.654,113.178 189.501,112.704C189.079,111.394 188.351,109.434 187.729,107.839C187.438,107.095 186.624,106.741 185.913,107.048Z" style="fill:rgb(185,102,83);fill-rule:nonzero;"></path> </g> <g transform="matrix(4.16667,0,0,4.16667,0,0)"> <path d="M183.957,109.631C183.267,109.93 182.926,110.742 183.184,111.474C183.679,112.875 184.479,115.074 185.078,116.406C185.271,116.835 185.479,117.272 185.813,117.592C186.147,117.914 186.638,118.099 187.065,117.937C187.515,117.766 187.778,117.251 187.813,116.752C187.848,116.253 187.698,115.762 187.545,115.288C187.123,113.978 186.395,112.018 185.773,110.423C185.482,109.679 184.668,109.324 183.957,109.631Z" style="fill:rgb(185,102,83);fill-rule:nonzero;"></path> </g> <g transform="matrix(4.16667,0,0,4.16667,0,0)"> <path d="M182.07,111.271C181.446,111.529 181.138,112.233 181.372,112.866C181.819,114.08 182.543,115.983 183.085,117.137C183.259,117.508 183.447,117.886 183.75,118.165C184.052,118.442 184.496,118.603 184.882,118.463C185.29,118.315 185.528,117.869 185.56,117.437C185.591,117.004 185.455,116.579 185.317,116.169C184.935,115.034 184.277,113.337 183.713,111.957C183.45,111.312 182.714,111.005 182.07,111.271Z" style="fill:rgb(185,102,83);fill-rule:nonzero;"></path> </g> <g transform="matrix(4.16667,0,0,4.16667,0,0)"> <path d="M179.588,111.822C178.961,112.082 178.651,112.789 178.886,113.425C179.336,114.645 180.063,116.557 180.607,117.716C180.783,118.089 180.971,118.469 181.275,118.749C181.579,119.028 182.026,119.19 182.413,119.048C182.822,118.899 183.062,118.452 183.093,118.017C183.125,117.583 182.989,117.156 182.85,116.743C182.466,115.603 181.804,113.899 181.238,112.511C180.974,111.863 180.235,111.555 179.588,111.822Z" style="fill:rgb(185,102,83);fill-rule:nonzero;"></path> </g> <g transform="matrix(4.16667,0,0,4.16667,0,0)"> <path d="M187.638,115.065C187.506,115.12 186.92,114.021 186.33,112.61C185.74,111.199 185.37,110.011 185.503,109.955C185.635,109.9 186.221,110.999 186.811,112.41C187.401,113.82 187.771,115.009 187.638,115.065Z" style="fill:rgb(118,69,62);fill-rule:nonzero;"></path> </g> <g transform="matrix(4.16667,0,0,4.16667,0,0)"> <path d="M185.503,117.21C185.368,117.262 184.74,115.994 184.1,114.379C183.46,112.763 183.049,111.409 183.181,111.353C183.314,111.297 183.942,112.565 184.584,114.184C185.225,115.803 185.636,117.158 185.503,117.21Z" style="fill:rgb(118,69,62);fill-rule:nonzero;"></path> </g> <g transform="matrix(4.16667,0,0,4.16667,0,0)"> <path d="M183.276,117.495C183.151,117.561 182.459,116.497 181.861,115.059C181.26,113.621 180.991,112.38 181.126,112.339C181.266,112.295 181.75,113.445 182.341,114.858C182.929,116.273 183.405,117.426 183.276,117.495Z" style="fill:rgb(118,69,62);fill-rule:nonzero;"></path> </g> <g transform="matrix(4.16667,0,0,4.16667,0,0)"> <path d="M277.079,313.818L270.285,259.323C274.709,248.995 276.313,238.68 275.021,232.271C275.097,232.941 275.132,233.772 274.95,231.89C273.849,220.542 264.05,212.199 264.05,212.199L260.772,198.431L218.813,204.332L220.401,227.379L193.244,322.997L188.315,403.827L210.24,406.399C210.24,406.399 218.836,365.979 221.153,349.091C223.282,333.576 223.331,321.455 223.331,321.455L243.934,290.632C246.373,303.357 249.129,319.059 250.549,327.254C251.185,330.921 252.758,334.352 255.118,337.228L309.027,379.658L309.034,354.101C303.898,341.861 277.079,313.818 277.079,313.818Z" style="fill:rgb(12,43,52);fill-rule:nonzero;"></path> </g> <g transform="matrix(4.16667,0,0,4.16667,0,0)"> <path d="M224.199,221.433C224.136,221.454 223.77,220.593 223.323,219.15C222.875,217.708 222.37,215.675 222.023,213.394C221.679,211.111 221.561,209.02 221.562,207.51C221.562,206 221.657,205.069 221.723,205.07C221.801,205.072 221.836,206.003 221.93,207.499C222.023,208.995 222.198,211.057 222.538,213.316C222.881,215.574 223.324,217.595 223.678,219.052C224.031,220.509 224.273,221.409 224.199,221.433Z" style="fill:rgb(51,88,99);fill-rule:nonzero;"></path> </g> <g transform="matrix(4.16667,0,0,4.16667,0,0)"> <path d="M226.141,205.755C226.129,205.73 226.303,205.597 226.682,205.513C227.056,205.433 227.653,205.43 228.291,205.745C228.915,206.035 229.613,206.714 229.717,207.707C229.813,208.665 229.343,209.762 228.377,210.35C227.381,210.962 226.155,210.669 225.438,210.082C224.674,209.497 224.364,208.567 224.445,207.874C224.502,207.17 224.746,206.664 224.915,206.333C225.092,206.002 225.222,205.839 225.252,205.854C225.286,205.872 225.217,206.066 225.101,206.413C224.992,206.757 224.817,207.264 224.814,207.886C224.793,208.506 225.077,209.219 225.73,209.701C226.358,210.176 227.339,210.381 228.11,209.903C228.883,209.439 229.298,208.522 229.239,207.75C229.183,206.962 228.649,206.367 228.118,206.07C227.002,205.439 226.144,205.855 226.141,205.755Z" style="fill:rgb(51,88,99);fill-rule:nonzero;"></path> </g> <g transform="matrix(4.16667,0,0,4.16667,0,0)"> <path d="M253.72,216.872C253.731,216.906 253.469,217.012 252.983,217.176C252.5,217.352 251.772,217.522 250.862,217.656C249.951,217.797 248.849,217.84 247.631,217.769C246.415,217.672 245.085,217.446 243.737,217.028C242.395,216.592 241.178,216.01 240.128,215.389C239.092,214.745 238.215,214.074 237.553,213.433C236.887,212.799 236.391,212.241 236.097,211.819C235.795,211.404 235.642,211.167 235.671,211.144C235.747,211.084 236.431,211.987 237.799,213.159C238.476,213.751 239.352,214.372 240.372,214.976C241.406,215.557 242.592,216.108 243.895,216.531C245.203,216.936 246.49,217.17 247.67,217.291C248.851,217.385 249.925,217.383 250.819,217.29C252.612,217.121 253.692,216.777 253.72,216.872Z" style="fill:rgb(51,88,99);fill-rule:nonzero;"></path> </g> <g transform="matrix(4.16667,0,0,4.16667,0,0)"> <path d="M267.214,257.998C267.227,258.009 267.069,258.23 266.757,258.638C266.41,259.082 265.95,259.67 265.373,260.407C264.21,261.974 262.527,264.241 260.506,267.087C256.454,272.771 250.986,280.714 245.002,289.527C239.048,298.337 233.661,306.31 229.725,312.134C227.789,314.991 226.212,317.318 225.086,318.98C224.552,319.751 224.127,320.366 223.806,320.829C223.509,321.249 223.346,321.464 223.331,321.455C223.316,321.445 223.45,321.21 223.718,320.771C224.019,320.295 224.417,319.662 224.917,318.868C226.009,317.184 227.54,314.826 229.418,311.93C233.247,306.09 238.582,298.051 244.571,289.235C250.557,280.42 256.077,272.505 260.207,266.871C262.268,264.05 263.999,261.813 265.214,260.282C265.823,259.569 266.31,259 266.677,258.57C267.016,258.183 267.2,257.987 267.214,257.998Z" style="fill:rgb(51,88,99);fill-rule:nonzero;"></path> </g> <g transform="matrix(4.16667,0,0,4.16667,0,0)"> <path d="M259.816,135.887C259.9,135.887 259.896,134.835 260.178,133.18C260.461,131.531 261.099,129.274 262.377,127.063C263.612,124.826 265.31,123.163 266.838,122.522C268.37,121.86 269.454,122.211 269.457,122.104C269.464,122.084 269.218,121.96 268.734,121.907C268.254,121.847 267.527,121.884 266.702,122.187C265.038,122.777 263.196,124.517 261.933,126.809C260.618,129.087 260.015,131.432 259.821,133.128C259.626,134.833 259.759,135.891 259.816,135.887Z" style="fill:rgb(12,43,52);fill-rule:nonzero;"></path> </g> <g transform="matrix(4.16667,0,0,4.16667,0,0)"> <path d="M256.355,119.693L234.374,123.101L230.458,126.491C230.458,126.491 216.622,153.432 216.368,158.868C216.088,164.879 219.313,175.196 219.313,175.196L216.148,198.997C215.68,201.73 217.456,204.354 218.65,204.354L256.622,199.261C261.574,198.289 263.606,195.701 263.3,192.836L262.735,187.532L278.953,133.215C279.913,136.426 278.413,124.558 271.172,121.898C268.105,120.77 261.015,118.718 256.355,119.693Z" style="fill:rgb(243,115,104);fill-rule:nonzero;"></path> </g> <g transform="matrix(4.16667,0,0,4.16667,0,0)"> <path d="M232.484,124.892C232.484,124.892 225.718,130.106 219.313,136.036C212.908,141.967 195.827,153.828 195.827,153.828L194.651,129.016L181.764,127.271C181.764,127.271 175.465,158.211 179.462,166.752C183.46,175.292 188.236,175.653 201.521,171.383C214.805,167.113 218.601,165.215 218.601,165.215L232.484,124.892Z" style="fill:rgb(243,115,104);fill-rule:nonzero;"></path> </g> <g transform="matrix(4.16667,0,0,4.16667,0,0)"> <path d="M229.087,128.575C229.072,128.565 228.967,128.698 228.782,128.959C228.569,129.272 228.308,129.654 227.993,130.116C227.319,131.127 226.357,132.599 225.213,134.448C222.952,138.145 219.857,143.378 217.837,149.749C215.82,156.126 215.741,162.356 216.7,166.62C217.159,168.758 217.77,170.43 218.292,171.532C218.527,172.095 218.781,172.499 218.926,172.784C219.081,173.064 219.17,173.208 219.186,173.199C219.227,173.178 218.93,172.574 218.474,171.454C218.013,170.337 217.462,168.668 217.054,166.549C216.199,162.325 216.333,156.2 218.324,149.901C220.319,143.603 223.343,138.372 225.522,134.635C226.606,132.822 227.498,131.331 228.162,130.222C228.444,129.74 228.677,129.341 228.869,129.014C229.026,128.735 229.102,128.584 229.087,128.575Z" style="fill:rgb(12,43,52);fill-rule:nonzero;"></path> </g> <g transform="matrix(4.16667,0,0,4.16667,0,0)"> <path d="M267.041,121.902C267.041,121.902 260.196,130.866 259.823,139.089C259.449,147.312 272.103,196.617 272.103,196.617L283.199,241.626L297.012,236.53C297.012,236.53 293.798,204.486 293.187,200.507C291.913,192.216 286.448,176.058 285.7,166.713C284.953,157.369 281.49,139.376 279.778,135.166C278.066,130.955 278.002,121.667 267.041,121.902Z" style="fill:rgb(243,115,104);fill-rule:nonzero;"></path> </g> <g transform="matrix(4.16667,0,0,4.16667,0,0)"> <path d="M260.389,143.631C260.372,143.634 260.38,143.8 260.411,144.114C260.454,144.487 260.506,144.94 260.571,145.487C260.734,146.676 261.002,148.391 261.381,150.502C262.137,154.725 263.343,160.525 264.782,166.906C266.232,173.287 267.634,179.042 268.709,183.192C269.245,185.268 269.698,186.942 270.026,188.096C270.182,188.624 270.312,189.061 270.419,189.42C270.515,189.721 270.573,189.877 270.59,189.872C270.607,189.868 270.582,189.703 270.519,189.394C270.437,189.028 270.338,188.583 270.218,188.046C269.926,186.802 269.535,185.133 269.059,183.106C268.075,178.86 266.748,173.128 265.28,166.794C263.842,160.416 262.581,154.633 261.736,150.435C261.338,148.391 261.01,146.71 260.767,145.456C260.665,144.915 260.582,144.468 260.512,144.1C260.449,143.791 260.407,143.629 260.389,143.631Z" style="fill:rgb(12,43,52);fill-rule:nonzero;"></path> </g> <g transform="matrix(4.16667,0,0,4.16667,0,0)"> <path d="M259.402,198.514C259.381,198.494 259.363,198.474 259.344,198.455C261.868,197.388 263.132,195.718 263.309,193.851C263.139,195.731 261.91,197.788 259.402,198.514ZM263.303,192.864C263.302,192.855 263.301,192.845 263.3,192.836L262.735,187.532C262.735,187.532 263.153,190.792 263.303,192.864ZM262.735,187.532L266.585,174.636C266.587,174.643 266.589,174.651 266.591,174.658C265.797,178.149 262.742,187.511 262.735,187.532Z" style="fill:rgb(168,171,171);fill-rule:nonzero;"></path> </g> <g transform="matrix(4.16667,0,0,4.16667,0,0)"> <path d="M259.344,198.455C257.215,196.269 256.763,192.983 256.424,189.943C255.338,180.185 254.252,170.427 253.165,160.669C252.695,156.446 252.242,152.079 252.777,147.904C255.48,148.637 257.032,149.498 257.215,149.498C257.225,149.498 257.23,149.496 257.233,149.491C257.241,149.475 257.12,149.398 256.881,149.263C256.644,149.129 256.294,148.928 255.82,148.716C255.093,148.371 254.084,147.951 252.822,147.572C253.066,145.849 253.483,144.16 254.142,142.53C254.487,141.678 254.994,140.765 255.879,140.516C256.026,140.474 256.176,140.455 256.325,140.455C257.03,140.455 257.726,140.885 258.163,141.46C258.605,142.046 259.721,142.848 260.196,143.593C260.471,145.55 260.885,147.927 261.394,150.573C262.15,154.79 263.351,160.561 264.782,166.906C265.399,169.621 266.007,172.223 266.585,174.636L262.735,187.532L263.3,192.836C263.301,192.845 263.302,192.855 263.303,192.864C263.309,192.941 263.314,193.016 263.319,193.09C263.335,193.338 263.332,193.593 263.309,193.851C263.132,195.718 261.868,197.388 259.344,198.455Z" style="fill:rgb(204,87,73);fill-rule:nonzero;"></path> </g> <g transform="matrix(4.16667,0,0,4.16667,0,0)"> <path d="M266.79,173.309C266.676,172.819 266.561,172.322 266.444,171.819C266.655,172.303 266.803,172.689 266.79,173.309ZM262.934,156.167C262.478,154.045 262.074,152.113 261.736,150.435C261.388,148.647 261.094,147.136 260.863,145.946C261.668,149.365 262.307,152.767 262.934,156.167ZM261.394,150.573C260.885,147.927 260.471,145.55 260.196,143.593C260.286,143.735 260.355,143.876 260.389,144.012C260.396,144.037 260.402,144.061 260.407,144.085C260.409,144.095 260.41,144.104 260.411,144.114C260.454,144.487 260.506,144.94 260.571,145.487C260.734,146.676 261.002,148.391 261.381,150.502C261.385,150.526 261.39,150.549 261.394,150.573Z" style="fill:rgb(204,87,73);fill-rule:nonzero;"></path> </g> <g transform="matrix(4.16667,0,0,4.16667,0,0)"> <path d="M266.591,174.658C266.589,174.651 266.587,174.643 266.585,174.636C266.007,172.223 265.399,169.621 264.782,166.906C263.351,160.561 262.15,154.79 261.394,150.573C261.39,150.549 261.385,150.526 261.381,150.502C261.002,148.391 260.734,146.676 260.571,145.487C260.506,144.94 260.454,144.487 260.411,144.114C260.41,144.104 260.409,144.095 260.407,144.085C260.566,144.706 260.717,145.326 260.863,145.946C261.094,147.136 261.388,148.647 261.736,150.435C262.074,152.113 262.478,154.045 262.934,156.167C263.78,160.76 264.604,165.35 265.783,169.977C266.004,170.845 266.251,171.373 266.444,171.819C266.561,172.322 266.676,172.819 266.79,173.309C266.783,173.63 266.732,174.014 266.625,174.505C266.614,174.555 266.603,174.606 266.591,174.658Z" style="fill:rgb(1,23,33);fill-rule:nonzero;"></path> </g> <g transform="matrix(4.16667,0,0,4.16667,0,0)"> <path d="M261.441,148.483C261.424,148.512 261.689,148.708 262.192,149.027C262.697,149.341 263.438,149.789 264.423,150.222C265.401,150.645 266.672,151.069 268.138,150.972C269.614,150.894 271.095,150.17 272.45,149.275C273.814,148.375 275.03,147.439 276.279,146.866C277.517,146.273 278.761,146.086 279.768,146.296C280.783,146.475 281.503,146.958 281.9,147.366C282.298,147.783 282.431,148.092 282.473,148.071C282.495,148.065 282.425,147.723 282.048,147.234C281.673,146.756 280.923,146.181 279.841,145.942C278.77,145.667 277.388,145.837 276.085,146.438C274.762,147.017 273.507,147.967 272.172,148.847C270.84,149.726 269.456,150.407 268.103,150.503C266.752,150.619 265.53,150.259 264.56,149.888C262.616,149.098 261.486,148.396 261.441,148.483Z" style="fill:rgb(249,249,249);fill-rule:nonzero;"></path> </g> <g transform="matrix(4.16667,0,0,4.16667,0,0)"> <path d="M218.609,147.436C218.595,147.445 218.663,147.571 218.807,147.804C218.945,148.043 219.195,148.365 219.553,148.747C220.272,149.504 221.56,150.417 223.382,150.911C225.188,151.419 227.487,151.536 229.909,151.002C232.335,150.498 234.847,149.474 237.498,148.558C242.785,146.591 248.035,146.783 251.589,147.61C255.182,148.417 257.187,149.602 257.233,149.491C257.241,149.475 257.12,149.398 256.881,149.263C256.644,149.129 256.294,148.928 255.82,148.716C254.883,148.272 253.482,147.703 251.672,147.259C249.867,146.808 247.649,146.492 245.18,146.562C242.714,146.604 240.004,147.125 237.333,148.074C234.658,149 232.176,150.025 229.81,150.542C227.458,151.087 225.236,151.009 223.475,150.563C221.701,150.128 220.433,149.297 219.692,148.605C218.948,147.905 218.655,147.403 218.609,147.436Z" style="fill:rgb(249,249,249);fill-rule:nonzero;"></path> </g> <g transform="matrix(4.16667,0,0,4.16667,0,0)"> <path d="M210.535,143.074C210.481,143.068 210.336,143.853 210.43,145.132C210.52,146.406 210.923,148.168 211.836,149.909C212.756,151.648 213.983,152.976 214.983,153.77C215.985,154.57 216.714,154.894 216.74,154.846C216.785,154.774 216.132,154.344 215.219,153.498C214.306,152.656 213.174,151.344 212.288,149.671C211.409,147.995 210.966,146.32 210.788,145.09C210.606,143.86 210.621,143.078 210.535,143.074Z" style="fill:rgb(249,249,249);fill-rule:nonzero;"></path> </g> <g transform="matrix(4.16667,0,0,4.16667,0,0)"> <path d="M211.79,167.909C213.961,167.126 215.516,166.522 216.588,166.087L216.588,166.088C215.213,166.654 213.588,167.266 211.79,167.909Z" style="fill:rgb(168,171,171);fill-rule:nonzero;"></path> </g> <g transform="matrix(4.16667,0,0,4.16667,0,0)"> <path d="M201.521,171.383C203.631,163.547 207.292,156.507 211.895,150.019C212.808,151.704 214.004,152.992 214.983,153.77C215.752,154.385 216.361,154.719 216.614,154.818C216.522,155.361 216.444,155.899 216.378,156.43C216.36,156.524 216.342,156.617 216.324,156.711C216.136,157.673 216.087,158.822 216.114,159.978C216.061,162.24 216.238,164.315 216.588,166.087C215.516,166.522 213.961,167.126 211.79,167.909C208.74,169 205.192,170.18 201.521,171.383Z" style="fill:rgb(204,87,73);fill-rule:nonzero;"></path> </g> <g transform="matrix(4.16667,0,0,4.16667,0,0)"> <path d="M216.588,166.088L216.588,166.087C216.238,164.315 216.061,162.24 216.114,159.978C216.184,162.97 216.764,166.015 216.764,166.015C216.706,166.039 216.647,166.063 216.588,166.088ZM216.378,156.43C216.444,155.899 216.522,155.361 216.614,154.818C216.633,154.826 216.65,154.832 216.665,154.837C216.568,155.376 216.478,155.9 216.378,156.43Z" style="fill:rgb(1,23,33);fill-rule:nonzero;"></path> </g> <g transform="matrix(4.16667,0,0,4.16667,0,0)"> <path d="M216.633,154.708C216.414,154.511 215.885,154.116 215.219,153.498C214.306,152.656 213.174,151.344 212.288,149.671C212.267,149.632 212.247,149.593 212.227,149.554C215.893,144.457 220.135,139.701 224.654,135.166C224.253,135.902 223.875,136.608 223.515,137.287C221.878,140.111 220.081,143.531 218.631,147.442C218.624,147.437 218.619,147.434 218.614,147.434C218.613,147.434 218.611,147.435 218.609,147.436C218.605,147.438 218.608,147.452 218.618,147.475C218.344,148.216 218.083,148.974 217.837,149.749C217.307,151.423 216.911,153.087 216.633,154.708Z" style="fill:rgb(204,87,73);fill-rule:nonzero;"></path> </g> <g transform="matrix(4.16667,0,0,4.16667,0,0)"> <path d="M216.68,154.752C216.666,154.739 216.65,154.724 216.633,154.708C216.911,153.087 217.307,151.423 217.837,149.749C218.083,148.974 218.344,148.216 218.618,147.475C218.63,147.501 218.65,147.539 218.679,147.59C217.447,150.798 217.018,152.874 216.68,154.752ZM218.705,147.52C218.672,147.481 218.647,147.454 218.631,147.442C220.081,143.531 221.878,140.111 223.515,137.287C221.174,141.714 219.688,144.973 218.705,147.52Z" style="fill:rgb(1,23,33);fill-rule:nonzero;"></path> </g> <g transform="matrix(4.16667,0,0,4.16667,0,0)"> <path d="M218.679,147.59C218.65,147.539 218.63,147.501 218.618,147.475C218.608,147.452 218.605,147.438 218.609,147.436C218.611,147.435 218.613,147.434 218.614,147.434C218.619,147.434 218.624,147.437 218.631,147.442C218.647,147.454 218.672,147.481 218.705,147.52C218.696,147.544 218.688,147.567 218.679,147.59Z" style="fill:rgb(165,167,168);fill-rule:nonzero;"></path> </g> <g transform="matrix(4.16667,0,0,4.16667,0,0)"> <path d="M216.665,154.837C216.65,154.832 216.633,154.826 216.614,154.818C216.361,154.719 215.752,154.385 214.983,153.77C214.004,152.992 212.808,151.704 211.895,150.019C212.005,149.864 212.116,149.709 212.227,149.554C212.247,149.593 212.267,149.632 212.288,149.671C213.174,151.344 214.306,152.656 215.219,153.498C215.885,154.116 216.414,154.511 216.633,154.708C216.65,154.724 216.666,154.739 216.68,154.752C216.675,154.781 216.67,154.809 216.665,154.837Z" style="fill:rgb(165,167,168);fill-rule:nonzero;"></path> </g> <g transform="matrix(4.16667,0,0,4.16667,0,0)"> <path d="M196.019,153.885C196.128,154 194.845,155.197 193.945,157.107C193.019,159.003 192.888,160.754 192.73,160.74C192.6,160.758 192.497,158.896 193.475,156.881C194.434,154.858 195.952,153.772 196.019,153.885Z" style="fill:rgb(12,43,52);fill-rule:nonzero;"></path> </g> <g transform="matrix(4.16667,0,0,4.16667,0,0)"> <path d="M210.541,192.37L203.465,252.183L128.649,243.333L135.725,183.52L210.541,192.37Z" style="fill:rgb(249,249,249);fill-rule:nonzero;"></path> </g> <g transform="matrix(4.16667,0,0,4.16667,0,0)"> <path d="M210.541,192.37C210.541,192.37 210.414,192.363 210.177,192.338C209.929,192.312 209.581,192.274 209.126,192.225C208.192,192.12 206.829,191.967 205.059,191.768C201.5,191.359 196.312,190.763 189.736,190.007C176.591,188.476 157.91,186.3 135.702,183.714L135.919,183.543C133.82,201.346 131.413,221.755 128.867,243.352L128.866,243.359L128.675,243.116C156.371,246.406 182.11,249.463 203.486,252.003L203.285,252.163C205.454,234.156 207.253,219.231 208.51,208.793C209.148,203.573 209.649,199.478 209.991,196.673C210.165,195.281 210.298,194.212 210.39,193.477C210.483,192.753 210.541,192.37 210.541,192.37C210.541,192.37 210.512,192.729 210.434,193.443C210.353,194.171 210.235,195.231 210.081,196.61C209.76,199.408 209.293,203.493 208.697,208.7C207.482,219.17 205.743,234.142 203.646,252.205L203.625,252.385L203.444,252.364C182.065,249.845 156.323,246.813 128.623,243.549L128.407,243.524L128.432,243.307L128.433,243.3C130.996,221.706 133.418,201.298 135.531,183.497L135.554,183.302L135.748,183.325C157.999,185.998 176.715,188.246 189.884,189.828C196.437,190.626 201.606,191.254 205.151,191.686C206.903,191.904 208.251,192.071 209.175,192.186C209.62,192.243 209.96,192.287 210.202,192.318C210.431,192.349 210.541,192.37 210.541,192.37Z" style="fill:rgb(12,43,52);fill-rule:nonzero;"></path> </g> <g transform="matrix(4.16667,0,0,4.16667,0,0)"> <path d="M131.674,239.873L201.234,248.101L207.419,195.819L137.859,187.59L131.674,239.873Z" style="fill:rgb(229,229,228);fill-rule:nonzero;"></path> </g> <g transform="matrix(4.16667,0,0,4.16667,0,0)"> <path d="M131.674,239.873L159.814,210.249L172.459,232.361L183.952,222.699L201.234,248.101L131.674,239.873Z" style="fill:rgb(215,217,217);fill-rule:nonzero;"></path> </g> <g transform="matrix(4.16667,0,0,4.16667,0,0)"> <path d="M181.723,208.803C181.365,211.829 178.623,213.99 175.598,213.632C172.573,213.275 170.411,210.533 170.769,207.507C171.127,204.483 173.869,202.321 176.894,202.678C179.919,203.037 182.081,205.779 181.723,208.803Z" style="fill:rgb(215,217,217);fill-rule:nonzero;"></path> </g> <g transform="matrix(4.16667,0,0,4.16667,0,0)"> <path d="M147.056,264.015L151.583,314.807L88.05,320.469L83.524,269.677L147.056,264.015Z" style="fill:rgb(249,249,249);fill-rule:nonzero;"></path> </g> <g transform="matrix(4.16667,0,0,4.16667,0,0)"> <path d="M147.056,264.015C147.056,264.015 146.95,264.031 146.749,264.052C146.539,264.073 146.244,264.103 145.859,264.141C145.066,264.216 143.911,264.326 142.409,264.468C139.389,264.748 134.986,265.155 129.406,265.671C118.248,266.686 102.39,268.128 83.539,269.842L83.689,269.663C85.042,284.78 86.593,302.11 88.234,320.448L88.235,320.453L88.034,320.286C111.556,318.201 133.415,316.263 151.569,314.655L151.43,314.821C150.1,299.524 148.997,286.844 148.226,277.976C147.848,273.541 147.551,270.06 147.348,267.676C147.25,266.493 147.175,265.585 147.123,264.96C147.074,264.342 147.056,264.015 147.056,264.015C147.056,264.015 147.094,264.318 147.154,264.923C147.213,265.541 147.299,266.439 147.411,267.609C147.632,269.983 147.954,273.449 148.365,277.867C149.176,286.754 150.337,299.462 151.736,314.794L151.75,314.947L151.596,314.961C133.444,316.587 111.587,318.546 88.067,320.654L87.883,320.67L87.866,320.486L87.865,320.48C86.238,302.141 84.7,284.81 83.359,269.692L83.344,269.527L83.509,269.512C102.411,267.862 118.311,266.474 129.498,265.498C135.066,265.02 139.459,264.643 142.471,264.385C143.961,264.261 145.107,264.166 145.892,264.1C146.271,264.071 146.56,264.047 146.766,264.032C146.962,264.017 147.056,264.015 147.056,264.015Z" style="fill:rgb(12,43,52);fill-rule:nonzero;"></path> </g> <g transform="matrix(4.16667,0,0,4.16667,0,0)"> <path d="M89.956,317.077L149.025,311.813L145.068,267.416L85.999,272.679L89.956,317.077Z" style="fill:rgb(229,229,228);fill-rule:nonzero;"></path> </g> <g transform="matrix(4.16667,0,0,4.16667,0,0)"> <path d="M89.956,317.077L108.128,287.641L122.446,303.768L130.292,293.765L149.025,311.813L89.956,317.077Z" style="fill:rgb(215,217,217);fill-rule:nonzero;"></path> </g> <g transform="matrix(4.16667,0,0,4.16667,0,0)"> <path d="M126.031,282.638C126.26,285.208 124.364,287.475 121.795,287.704C119.226,287.932 116.959,286.036 116.73,283.467C116.501,280.898 118.398,278.63 120.966,278.402C123.535,278.173 125.802,280.07 126.031,282.638Z" style="fill:rgb(215,217,217);fill-rule:nonzero;"></path> </g> </g> </svg>