<svg xmlns="http://www.w3.org/2000/svg" xmlns:xlink="http://www.w3.org/1999/xlink" xmlns:serif="http://www.serif.com/" width="100%" height="100%" viewBox="0 0 1084 1744" xml:space="preserve" style="fill-rule:evenodd;clip-rule:evenodd;stroke-linejoin:round;stroke-miterlimit:2;"> <g transform="matrix(1,0,0,1,-1498.42,-31.4727)"> <g transform="matrix(4.16667,0,0,4.16667,0,0)"> <path d="M460.218,394.901L460.218,412.399L457.297,412.399L457.297,414.297L460.218,414.297L460.218,426.009L514.828,426.009L514.828,415.353L510.784,415.353L510.784,413.032L514.828,413.032L514.828,409.55L516.627,409.55L516.627,407.967L514.492,407.967L514.492,394.901L460.218,394.901Z" style="fill:rgb(240,240,240);fill-rule:nonzero;"></path> </g> <g transform="matrix(4.16667,0,0,4.16667,0,0)"> <path d="M500.327,394.952L500.327,425.814L514.828,425.814L514.828,415.158L510.784,415.158L510.784,413.032L514.828,413.104L514.828,409.622L516.662,409.625L516.627,407.825L514.492,407.772L514.492,394.901L500.327,394.952Z" style="fill:rgb(215,217,217);fill-rule:nonzero;"></path> </g> <g transform="matrix(4.16667,0,0,4.16667,0,0)"> <path d="M501.36,414.046C501.36,414.154 491.478,414.241 479.291,414.241C467.099,414.241 457.219,414.154 457.219,414.046C457.219,413.939 467.099,413.852 479.291,413.852C491.478,413.852 501.36,413.939 501.36,414.046Z" style="fill:rgb(215,217,217);fill-rule:nonzero;"></path> </g> <g transform="matrix(4.16667,0,0,4.16667,0,0)"> <path d="M501.36,412.269C501.36,412.377 491.478,412.463 479.291,412.463C467.099,412.463 457.219,412.377 457.219,412.269C457.219,412.162 467.099,412.075 479.291,412.075C491.478,412.075 501.36,412.162 501.36,412.269Z" style="fill:rgb(215,217,217);fill-rule:nonzero;"></path> </g> <g transform="matrix(4.16667,0,0,4.16667,0,0)"> <path d="M504.195,407.485C504.195,407.592 494.313,407.679 482.126,407.679C469.934,407.679 460.054,407.592 460.054,407.485C460.054,407.378 469.934,407.292 482.126,407.292C494.313,407.292 504.195,407.378 504.195,407.485Z" style="fill:rgb(215,217,217);fill-rule:nonzero;"></path> </g> <g transform="matrix(4.16667,0,0,4.16667,0,0)"> <path d="M504.467,420.521C504.467,420.628 494.586,420.714 482.398,420.714C470.207,420.714 460.327,420.628 460.327,420.521C460.327,420.414 470.207,420.327 482.398,420.327C494.586,420.327 504.467,420.414 504.467,420.521Z" style="fill:rgb(215,217,217);fill-rule:nonzero;"></path> </g> <g transform="matrix(4.16667,0,0,4.16667,0,0)"> <rect x="548.439" y="374.11" width="12.176" height="14.476" style="fill:rgb(240,240,240);fill-rule:nonzero;"></rect> </g> <g transform="matrix(4.16667,0,0,4.16667,0,0)"> <rect x="493.832" y="373.166" width="55.026" height="16.33" style="fill:rgb(215,217,217);fill-rule:nonzero;"></rect> </g> <g transform="matrix(4.16667,0,0,4.16667,0,0)"> <path d="M560.984,374.54L547.383,374.54L547.383,373.166L560.984,373.166C561.363,373.166 561.671,373.473 561.671,373.852C561.671,374.232 561.363,374.54 560.984,374.54Z" style="fill:rgb(215,217,217);fill-rule:nonzero;"></path> </g> <g transform="matrix(4.16667,0,0,4.16667,0,0)"> <path d="M560.984,389.496L547.383,389.496L547.383,388.122L560.984,388.122C561.363,388.122 561.671,388.429 561.671,388.809C561.671,389.188 561.363,389.496 560.984,389.496Z" style="fill:rgb(215,217,217);fill-rule:nonzero;"></path> </g> <g transform="matrix(4.16667,0,0,4.16667,0,0)"> <rect x="538.031" y="373.166" width="6.501" height="16.33" style="fill:rgb(229,229,228);fill-rule:nonzero;"></rect> </g> <g transform="matrix(4.16667,0,0,4.16667,0,0)"> <rect x="499.065" y="373.346" width="6.501" height="16.33" style="fill:rgb(229,229,228);fill-rule:nonzero;"></rect> </g> <g transform="matrix(4.16667,0,0,4.16667,0,0)"> <path d="M560.615,376.503C560.615,376.544 557.98,376.576 554.73,376.576C551.478,376.576 548.843,376.544 548.843,376.503C548.843,376.464 551.478,376.431 554.73,376.431C557.98,376.431 560.615,376.464 560.615,376.503Z" style="fill:rgb(215,217,217);fill-rule:nonzero;"></path> </g> <g transform="matrix(4.16667,0,0,4.16667,0,0)"> <path d="M560.615,378.674C560.615,378.714 557.98,378.747 554.73,378.747C551.478,378.747 548.843,378.714 548.843,378.674C548.843,378.634 551.478,378.602 554.73,378.602C557.98,378.602 560.615,378.634 560.615,378.674Z" style="fill:rgb(215,217,217);fill-rule:nonzero;"></path> </g> <g transform="matrix(4.16667,0,0,4.16667,0,0)"> <path d="M560.615,381.347C560.615,381.387 557.98,381.42 554.73,381.42C551.478,381.42 548.843,381.387 548.843,381.347C548.843,381.307 551.478,381.275 554.73,381.275C557.98,381.275 560.615,381.307 560.615,381.347Z" style="fill:rgb(215,217,217);fill-rule:nonzero;"></path> </g> <g transform="matrix(4.16667,0,0,4.16667,0,0)"> <path d="M560.615,384.02C560.615,384.06 557.98,384.092 554.73,384.092C551.478,384.092 548.843,384.06 548.843,384.02C548.843,383.98 551.478,383.948 554.73,383.948C557.98,383.948 560.615,383.98 560.615,384.02Z" style="fill:rgb(215,217,217);fill-rule:nonzero;"></path> </g> <g transform="matrix(4.16667,0,0,4.16667,0,0)"> <path d="M560.615,386.693C560.615,386.733 557.98,386.765 554.73,386.765C551.478,386.765 548.843,386.733 548.843,386.693C548.843,386.653 551.478,386.621 554.73,386.621C557.98,386.621 560.615,386.653 560.615,386.693Z" style="fill:rgb(215,217,217);fill-rule:nonzero;"></path> </g> <g transform="matrix(4.16667,0,0,4.16667,0,0)"> <rect x="509.78" y="379.878" width="24.756" height="2.939" style="fill:rgb(229,229,228);fill-rule:nonzero;"></rect> </g> <g transform="matrix(4.16667,0,0,4.16667,0,0)"> <rect x="548.129" y="389.815" width="12.362" height="8.82" style="fill:rgb(249,249,249);fill-rule:nonzero;"></rect> </g> <g transform="matrix(4.16667,0,0,4.16667,0,0)"> <rect x="495.654" y="389.496" width="52.612" height="9.46" style="fill:rgb(240,240,240);fill-rule:nonzero;"></rect> </g> <g transform="matrix(4.16667,0,0,4.16667,0,0)"> <path d="M547.884,390.135L561.173,390.135C561.349,390.135 561.493,389.992 561.493,389.815C561.493,389.638 561.349,389.496 561.173,389.496L547.884,389.496L547.884,390.135Z" style="fill:rgb(240,240,240);fill-rule:nonzero;"></path> </g> <g transform="matrix(4.16667,0,0,4.16667,0,0)"> <path d="M547.884,398.956L561.173,398.956C561.349,398.956 561.493,398.812 561.493,398.635C561.493,398.459 561.349,398.315 561.173,398.315L547.884,398.315L547.884,398.956Z" style="fill:rgb(240,240,240);fill-rule:nonzero;"></path> </g> <g transform="matrix(4.16667,0,0,4.16667,0,0)"> <path d="M560.491,391.491C560.491,391.531 557.755,391.563 554.38,391.563C551.003,391.563 548.266,391.531 548.266,391.491C548.266,391.451 551.003,391.419 554.38,391.419C557.755,391.419 560.491,391.451 560.491,391.491Z" style="fill:rgb(215,217,217);fill-rule:nonzero;"></path> </g> <g transform="matrix(4.16667,0,0,4.16667,0,0)"> <path d="M560.491,393.16C560.491,393.2 557.755,393.232 554.38,393.232C551.003,393.232 548.266,393.2 548.266,393.16C548.266,393.12 551.003,393.087 554.38,393.087C557.755,393.087 560.491,393.12 560.491,393.16Z" style="fill:rgb(215,217,217);fill-rule:nonzero;"></path> </g> <g transform="matrix(4.16667,0,0,4.16667,0,0)"> <path d="M560.491,394.829C560.491,394.869 557.755,394.901 554.38,394.901C551.003,394.901 548.266,394.869 548.266,394.829C548.266,394.789 551.003,394.756 554.38,394.756C557.755,394.756 560.491,394.789 560.491,394.829Z" style="fill:rgb(215,217,217);fill-rule:nonzero;"></path> </g> <g transform="matrix(4.16667,0,0,4.16667,0,0)"> <path d="M560.491,396.497C560.491,396.537 557.755,396.569 554.38,396.569C551.003,396.569 548.266,396.537 548.266,396.497C548.266,396.457 551.003,396.424 554.38,396.424C557.755,396.424 560.491,396.457 560.491,396.497Z" style="fill:rgb(215,217,217);fill-rule:nonzero;"></path> </g> <g transform="matrix(4.16667,0,0,4.16667,0,0)"> <rect x="549.748" y="399.796" width="12.619" height="23.91" style="fill:rgb(229,229,228);fill-rule:nonzero;"></rect> </g> <g transform="matrix(4.16667,0,0,4.16667,0,0)"> <rect x="490.515" y="398.956" width="59.233" height="25.924" style="fill:rgb(215,217,217);fill-rule:nonzero;"></rect> </g> <g transform="matrix(4.16667,0,0,4.16667,0,0)"> <path d="M563.354,424.88L548.129,424.88L548.129,423.199L563.354,423.199C563.818,423.199 564.195,423.575 564.195,424.04C564.195,424.503 563.818,424.88 563.354,424.88Z" style="fill:rgb(215,217,217);fill-rule:nonzero;"></path> </g> <g transform="matrix(4.16667,0,0,4.16667,0,0)"> <path d="M563.354,400.637L548.129,400.637L548.129,398.956L563.354,398.956C563.819,398.956 564.195,399.332 564.195,399.796C564.195,400.26 563.819,400.637 563.354,400.637Z" style="fill:rgb(215,217,217);fill-rule:nonzero;"></path> </g> <g transform="matrix(4.16667,0,0,4.16667,0,0)"> <path d="M562.367,403.002C562.367,403.042 559.542,403.074 556.057,403.074C552.572,403.074 549.748,403.042 549.748,403.002C549.748,402.962 552.572,402.929 556.057,402.929C559.542,402.929 562.367,402.962 562.367,403.002Z" style="fill:rgb(215,217,217);fill-rule:nonzero;"></path> </g> <g transform="matrix(4.16667,0,0,4.16667,0,0)"> <path d="M562.367,406.068C562.367,406.108 559.542,406.14 556.057,406.14C552.572,406.14 549.748,406.108 549.748,406.068C549.748,406.028 552.572,405.996 556.057,405.996C559.542,405.996 562.367,406.028 562.367,406.068Z" style="fill:rgb(215,217,217);fill-rule:nonzero;"></path> </g> <g transform="matrix(4.16667,0,0,4.16667,0,0)"> <path d="M562.367,409.134C562.367,409.174 559.542,409.207 556.057,409.207C552.572,409.207 549.748,409.174 549.748,409.134C549.748,409.094 552.572,409.062 556.057,409.062C559.542,409.062 562.367,409.094 562.367,409.134Z" style="fill:rgb(215,217,217);fill-rule:nonzero;"></path> </g> <g transform="matrix(4.16667,0,0,4.16667,0,0)"> <path d="M562.367,412.201C562.367,412.241 559.542,412.273 556.057,412.273C552.572,412.273 549.748,412.241 549.748,412.201C549.748,412.161 552.572,412.128 556.057,412.128C559.542,412.128 562.367,412.161 562.367,412.201Z" style="fill:rgb(215,217,217);fill-rule:nonzero;"></path> </g> <g transform="matrix(4.16667,0,0,4.16667,0,0)"> <path d="M562.367,415.268C562.367,415.308 559.542,415.34 556.057,415.34C552.572,415.34 549.748,415.308 549.748,415.268C549.748,415.228 552.572,415.196 556.057,415.196C559.542,415.196 562.367,415.228 562.367,415.268Z" style="fill:rgb(215,217,217);fill-rule:nonzero;"></path> </g> <g transform="matrix(4.16667,0,0,4.16667,0,0)"> <path d="M562.367,418.335C562.367,418.375 559.542,418.407 556.057,418.407C552.572,418.407 549.748,418.375 549.748,418.335C549.748,418.295 552.572,418.262 556.057,418.262C559.542,418.262 562.367,418.295 562.367,418.335Z" style="fill:rgb(215,217,217);fill-rule:nonzero;"></path> </g> <g transform="matrix(4.16667,0,0,4.16667,0,0)"> <path d="M562.367,421.401C562.367,421.441 559.542,421.473 556.057,421.473C552.572,421.473 549.748,421.441 549.748,421.401C549.748,421.361 552.572,421.329 556.057,421.329C559.542,421.329 562.367,421.361 562.367,421.401Z" style="fill:rgb(215,217,217);fill-rule:nonzero;"></path> </g> <g transform="matrix(4.16667,0,0,4.16667,0,0)"> <path d="M510.784,413.337L510.784,414.779C510.784,416.516 509.916,417.509 508.24,417.509C506.565,417.509 505.697,416.516 505.697,414.779L505.697,409.133C505.697,407.396 506.565,406.403 508.24,406.403C509.916,406.403 510.784,407.396 510.784,409.133L510.784,410.188L509.171,410.188L509.171,409.025C509.171,408.249 508.83,407.955 508.287,407.955C507.744,407.955 507.403,408.249 507.403,409.025L507.403,414.887C507.403,415.664 507.744,415.942 508.287,415.942C508.83,415.942 509.171,415.664 509.171,414.887L509.171,413.337L510.784,413.337Z" style="fill:rgb(229,229,228);fill-rule:nonzero;"></path> </g> <g transform="matrix(4.16667,0,0,4.16667,0,0)"> <path d="M513.388,414.887C513.388,415.664 513.729,415.958 514.271,415.958C514.815,415.958 515.156,415.664 515.156,414.887L515.156,409.025C515.156,408.249 514.815,407.955 514.271,407.955C513.729,407.955 513.388,408.249 513.388,409.025L513.388,414.887ZM511.682,409.133C511.682,407.396 512.597,406.403 514.271,406.403C515.948,406.403 516.862,407.396 516.862,409.133L516.862,414.779C516.862,416.516 515.948,417.509 514.271,417.509C512.597,417.509 511.682,416.516 511.682,414.779L511.682,409.133Z" style="fill:rgb(229,229,228);fill-rule:nonzero;"></path> </g> <g transform="matrix(4.16667,0,0,4.16667,0,0)"> <path d="M517.963,406.527L519.669,406.527L519.669,415.834L522.476,415.834L522.476,417.384L517.963,417.384L517.963,406.527Z" style="fill:rgb(229,229,228);fill-rule:nonzero;"></path> </g> <g transform="matrix(4.16667,0,0,4.16667,0,0)"> <path d="M524.786,414.887C524.786,415.664 525.128,415.958 525.671,415.958C526.213,415.958 526.554,415.664 526.554,414.887L526.554,409.025C526.554,408.249 526.213,407.955 525.671,407.955C525.128,407.955 524.786,408.249 524.786,409.025L524.786,414.887ZM523.08,409.133C523.08,407.396 523.995,406.403 525.671,406.403C527.345,406.403 528.26,407.396 528.26,409.133L528.26,414.779C528.26,416.516 527.345,417.509 525.671,417.509C523.995,417.509 523.08,416.516 523.08,414.779L523.08,409.133Z" style="fill:rgb(229,229,228);fill-rule:nonzero;"></path> </g> <g transform="matrix(4.16667,0,0,4.16667,0,0)"> <path d="M530.989,406.527L530.989,414.903C530.989,415.678 531.331,415.958 531.874,415.958C532.417,415.958 532.758,415.678 532.758,414.903L532.758,406.527L534.371,406.527L534.371,414.795C534.371,416.532 533.502,417.524 531.827,417.524C530.152,417.524 529.283,416.532 529.283,414.795L529.283,406.527L530.989,406.527Z" style="fill:rgb(229,229,228);fill-rule:nonzero;"></path> </g> <g transform="matrix(4.16667,0,0,4.16667,0,0)"> <path d="M537.239,408.079L537.239,411.414L537.906,411.414C538.542,411.414 538.929,411.134 538.929,410.265L538.929,409.195C538.929,408.42 538.666,408.079 538.061,408.079L537.239,408.079ZM539.1,417.384C539.007,417.106 538.945,416.935 538.945,416.051L538.945,414.344C538.945,413.337 538.603,412.964 537.828,412.964L537.239,412.964L537.239,417.384L535.533,417.384L535.533,406.527L538.107,406.527C539.876,406.527 540.635,407.349 540.635,409.025L540.635,409.878C540.635,410.995 540.279,411.723 539.519,412.081C540.372,412.437 540.651,413.259 540.651,414.391L540.651,416.066C540.651,416.593 540.667,416.982 540.837,417.384L539.1,417.384Z" style="fill:rgb(229,229,228);fill-rule:nonzero;"></path> </g> <g transform="matrix(4.16667,0,0,4.16667,0,0)"> <path d="M510.415,393.221L509.171,393.221L509.236,392.899L512.091,392.899L512.021,393.221L510.783,393.221L510.143,396.424L509.775,396.424L510.415,393.221Z" style="fill:rgb(215,217,217);fill-rule:nonzero;"></path> </g> <g transform="matrix(4.16667,0,0,4.16667,0,0)"> <path d="M514.487,393.775L512.554,396.767C512.227,397.271 511.98,397.426 511.597,397.426C511.35,397.426 511.098,397.341 510.967,397.19L511.159,396.928C511.275,397.049 511.426,397.12 511.628,397.12C511.854,397.12 512.03,397.014 512.237,396.692L512.424,396.41L511.763,393.775L512.125,393.775L512.674,396.032L514.12,393.775L514.487,393.775Z" style="fill:rgb(215,217,217);fill-rule:nonzero;"></path> </g> <g transform="matrix(4.16667,0,0,4.16667,0,0)"> <path d="M517.07,394.894C517.07,394.375 516.754,394.068 516.198,394.068C515.539,394.068 515.056,394.587 515.056,395.311C515.056,395.831 515.374,396.132 515.927,396.132C516.588,396.132 517.07,395.614 517.07,394.894ZM517.432,394.874C517.432,395.785 516.799,396.45 515.932,396.45C515.427,396.45 515.076,396.243 514.925,395.871L514.623,397.402L514.265,397.402L514.986,393.775L515.328,393.775L515.242,394.199C515.494,393.917 515.847,393.755 516.275,393.755C516.955,393.755 517.432,394.178 517.432,394.874Z" style="fill:rgb(215,217,217);fill-rule:nonzero;"></path> </g> <g transform="matrix(4.16667,0,0,4.16667,0,0)"> <path d="M520.227,394.894C520.227,394.375 519.909,394.068 519.356,394.068C518.695,394.068 518.208,394.59 518.208,395.311C518.208,395.831 518.525,396.132 519.078,396.132C519.739,396.132 520.227,395.614 520.227,394.894ZM517.849,395.327C517.849,394.425 518.49,393.755 519.38,393.755C520.116,393.755 520.585,394.188 520.585,394.874C520.585,395.78 519.945,396.45 519.052,396.45C518.318,396.45 517.849,396.006 517.849,395.327Z" style="fill:rgb(215,217,217);fill-rule:nonzero;"></path> </g> <g transform="matrix(4.16667,0,0,4.16667,0,0)"> <path d="M523.409,394.837C523.409,394.354 523.081,394.068 522.531,394.068C521.862,394.068 521.379,394.561 521.379,395.236C521.379,395.719 521.702,396.006 522.255,396.006C522.921,396.006 523.409,395.513 523.409,394.837ZM524.013,393.775L523.549,396.102C523.364,397.039 522.87,397.426 522.008,397.426C521.51,397.426 521.102,397.286 520.83,397.029L521.042,396.757C521.253,396.973 521.611,397.11 522.034,397.11C522.703,397.11 523.056,396.802 523.182,396.163L523.242,395.871C522.991,396.153 522.633,396.324 522.185,396.324C521.485,396.324 521.016,395.917 521.016,395.255C521.016,394.405 521.646,393.755 522.528,393.755C523.016,393.755 523.409,393.957 523.56,394.36L523.671,393.775L524.013,393.775Z" style="fill:rgb(215,217,217);fill-rule:nonzero;"></path> </g> <g transform="matrix(4.16667,0,0,4.16667,0,0)"> <path d="M526.348,393.755L526.283,394.103L526.182,394.097C525.618,394.097 525.241,394.42 525.109,395.08L524.842,396.424L524.485,396.424L525.009,393.775L525.351,393.775L525.26,394.258C525.498,393.911 525.844,393.755 526.348,393.755Z" style="fill:rgb(215,217,217);fill-rule:nonzero;"></path> </g> <g transform="matrix(4.16667,0,0,4.16667,0,0)"> <path d="M528.791,394.894C528.791,394.375 528.473,394.068 527.92,394.068C527.259,394.068 526.771,394.59 526.771,395.311C526.771,395.831 527.088,396.132 527.642,396.132C528.301,396.132 528.791,395.614 528.791,394.894ZM529.384,393.775L528.856,396.424L528.513,396.424L528.599,396.006C528.347,396.284 527.995,396.45 527.566,396.45C526.886,396.45 526.413,396.027 526.413,395.327C526.413,394.42 527.048,393.755 527.909,393.755C528.413,393.755 528.765,393.962 528.917,394.33L529.027,393.775L529.384,393.775Z" style="fill:rgb(215,217,217);fill-rule:nonzero;"></path> </g> <g transform="matrix(4.16667,0,0,4.16667,0,0)"> <path d="M532.461,394.894C532.461,394.375 532.143,394.068 531.59,394.068C530.929,394.068 530.446,394.587 530.446,395.311C530.446,395.831 530.763,396.132 531.317,396.132C531.977,396.132 532.461,395.614 532.461,394.894ZM532.823,394.874C532.823,395.785 532.188,396.45 531.322,396.45C530.818,396.45 530.466,396.243 530.314,395.871L530.012,397.402L529.655,397.402L530.376,393.775L530.717,393.775L530.632,394.199C530.883,393.917 531.236,393.755 531.665,393.755C532.344,393.755 532.823,394.178 532.823,394.874Z" style="fill:rgb(215,217,217);fill-rule:nonzero;"></path> </g> <g transform="matrix(4.16667,0,0,4.16667,0,0)"> <path d="M536.03,394.617C536.03,394.712 536.02,394.813 536,394.919L535.697,396.424L535.34,396.424L535.642,394.914L535.667,394.671C535.667,394.295 535.44,394.078 534.982,394.078C534.419,394.078 534.03,394.384 533.904,395.004L533.623,396.424L533.264,396.424L534.01,392.687L534.368,392.687L534.07,394.172C534.322,393.886 534.675,393.755 535.083,393.755C535.682,393.755 536.03,394.078 536.03,394.617Z" style="fill:rgb(215,217,217);fill-rule:nonzero;"></path> </g> <g transform="matrix(4.16667,0,0,4.16667,0,0)"> <path d="M539.378,393.775L537.443,396.767C537.116,397.271 536.869,397.426 536.486,397.426C536.24,397.426 535.988,397.341 535.857,397.19L536.049,396.928C536.164,397.049 536.315,397.12 536.516,397.12C536.744,397.12 536.92,397.014 537.126,396.692L537.312,396.41L536.653,393.775L537.015,393.775L537.564,396.032L539.009,393.775L539.378,393.775Z" style="fill:rgb(215,217,217);fill-rule:nonzero;"></path> </g> <g transform="matrix(4.16667,0,0,4.16667,0,0)"> <g transform="matrix(1,0,0,1,270.471,-8.7014)"> <path d="M123.239,206.6C107.395,206.6 94.55,193.756 94.55,177.912C94.55,162.067 107.395,149.223 123.239,149.223C139.084,149.223 151.928,162.067 151.928,177.912C151.928,193.756 139.084,206.6 123.239,206.6Z" style="fill:rgb(229,229,228);fill-rule:nonzero;"></path> </g> </g> <g transform="matrix(4.16667,0,0,4.16667,0,0)"> <g transform="matrix(1,0,0,1,270.471,-8.7014)"> <path d="M127.48,176.948C127.109,176.09 126.723,175.235 126.311,174.388C129.83,172.864 132.659,170.794 134.767,168.168C136.823,170.597 138.114,173.683 138.305,177.06C134.38,176.418 130.771,176.382 127.48,176.948ZM131.625,190.469C130.957,186.884 129.979,183.379 128.699,179.959C131.557,179.555 134.704,179.659 138.146,180.258C137.48,184.504 135.056,188.172 131.625,190.469ZM123.239,193.02C119.744,193.02 116.531,191.816 113.968,189.816C116.968,185.108 120.8,182.044 125.547,180.629C126.959,184.318 128,188.112 128.66,191.999C126.974,192.65 125.152,193.02 123.239,193.02ZM108.132,177.911C108.132,177.78 108.149,177.652 108.152,177.522C114.016,177.513 119.076,176.84 123.315,175.506C123.67,176.23 124.01,176.957 124.336,177.69C119.186,179.299 114.942,182.598 111.631,187.565C109.449,184.946 108.132,181.58 108.132,177.911ZM116.423,164.447C118.453,167.103 120.25,169.84 121.814,172.649C118.11,173.738 113.689,174.298 108.578,174.334C109.634,170.013 112.543,166.42 116.423,164.447ZM123.239,162.804C126.707,162.804 129.897,163.991 132.449,165.962C130.614,168.33 128.078,170.203 124.85,171.57C123.301,168.734 121.532,165.968 119.534,163.283C120.721,162.981 121.959,162.804 123.239,162.804ZM123.239,159.623C113.139,159.623 104.951,167.811 104.951,177.912C104.951,188.012 113.139,196.2 123.239,196.2C133.34,196.2 141.528,188.012 141.528,177.912C141.528,167.811 133.34,159.623 123.239,159.623Z" style="fill:white;fill-rule:nonzero;"></path> </g> </g> <g transform="matrix(4.16667,0,0,4.16667,0,0)"> <path d="M429.132,41.597C429.528,60.79 414.29,76.67 395.097,77.066C375.904,77.461 360.023,62.223 359.628,43.03C359.232,23.836 374.47,7.956 393.664,7.561C412.857,7.165 428.737,22.404 429.132,41.597Z" style="fill:rgb(240,240,240);fill-rule:nonzero;"></path> </g> <g transform="matrix(4.16667,0,0,4.16667,0,0)"> <path d="M382.388,33.556C383.705,33.447 384.9,34.9 385.057,36.802C385.214,38.704 384.273,40.332 382.956,40.441C381.638,40.55 380.443,39.096 380.287,37.195C380.13,35.293 381.071,33.664 382.388,33.556Z" style="fill:rgb(215,217,217);fill-rule:nonzero;"></path> </g> <g transform="matrix(4.16667,0,0,4.16667,0,0)"> <path d="M385.445,24.755C385.42,25.055 382.509,24.779 379.254,26.01C375.977,27.188 373.943,29.287 373.729,29.075C373.505,28.95 375.358,26.361 378.908,25.074C382.444,23.75 385.535,24.514 385.445,24.755Z" style="fill:rgb(215,217,217);fill-rule:nonzero;"></path> </g> <g transform="matrix(4.16667,0,0,4.16667,0,0)"> <path d="M404.487,33.101C403.167,33.046 402.033,34.547 401.955,36.454C401.877,38.36 402.883,39.949 404.205,40.003C405.525,40.058 406.66,38.555 406.738,36.649C406.816,34.744 405.808,33.154 404.487,33.101Z" style="fill:rgb(215,217,217);fill-rule:nonzero;"></path> </g> <g transform="matrix(4.16667,0,0,4.16667,0,0)"> <path d="M401.07,24.432C400.971,24.196 404.028,23.304 407.615,24.482C411.215,25.623 413.173,28.132 412.955,28.266C412.75,28.486 410.631,26.473 407.308,25.432C404.004,24.335 401.108,24.731 401.07,24.432Z" style="fill:rgb(215,217,217);fill-rule:nonzero;"></path> </g> <g transform="matrix(4.16667,0,0,4.16667,0,0)"> <path d="M411.529,41.959C411.583,41.966 411.554,42.639 411.287,43.821C411.025,45.004 410.416,46.681 409.268,48.539C408.129,50.397 406.366,52.387 403.967,54.024C401.584,55.663 398.507,56.883 395.132,57.088C391.754,57.235 388.566,56.341 386.026,54.959C383.469,53.578 381.51,51.782 380.185,50.051C378.85,48.322 378.07,46.718 377.687,45.569C377.298,44.42 377.202,43.755 377.253,43.743C377.46,43.653 378.003,46.368 380.732,49.605C382.075,51.213 383.999,52.873 386.455,54.144C388.897,55.417 391.913,56.227 395.081,56.091C398.245,55.897 401.16,54.779 403.457,53.259C405.767,51.741 407.507,49.891 408.676,48.152C411.055,44.649 411.315,41.892 411.529,41.959Z" style="fill:rgb(215,217,217);fill-rule:nonzero;"></path> </g> <g transform="matrix(4.16667,0,0,4.16667,0,0)"> <path d="M509.231,50.109C509.231,62.497 499.189,72.539 486.802,72.539C474.415,72.539 464.373,62.497 464.373,50.109C464.373,37.722 474.415,27.68 486.802,27.68C499.189,27.68 509.231,37.722 509.231,50.109Z" style="fill:white;fill-rule:nonzero;"></path> </g> <g transform="matrix(4.16667,0,0,4.16667,0,0)"> <path d="M509.231,50.109C509.231,50.109 509.188,49.617 509.132,48.682C509.116,48.212 509.075,47.635 508.945,46.96C508.839,46.284 508.738,45.499 508.48,44.646C508.086,42.913 507.275,40.865 505.997,38.694C504.709,36.532 502.848,34.273 500.315,32.356C497.791,30.457 494.602,28.84 490.922,28.186C487.265,27.555 483.136,27.667 479.204,29.159C477.224,29.845 475.314,30.883 473.56,32.194C472.653,32.816 471.86,33.595 471.03,34.344C470.28,35.174 469.492,35.987 468.844,36.929C466.099,40.577 464.549,45.271 464.507,50.106C464.548,54.943 466.097,59.639 468.843,63.288C469.49,64.231 470.278,65.043 471.029,65.874C471.859,66.623 472.652,67.402 473.559,68.024C475.314,69.336 477.223,70.374 479.204,71.06C483.137,72.552 487.266,72.664 490.923,72.033C494.604,71.378 497.792,69.762 500.317,67.862C502.85,65.944 504.71,63.686 505.998,61.524C507.276,59.353 508.086,57.305 508.48,55.572C508.738,54.719 508.839,53.934 508.945,53.258C509.075,52.584 509.116,52.006 509.132,51.537C509.188,50.602 509.231,50.109 509.231,50.109C509.231,50.109 509.225,50.602 509.186,51.541C509.178,52.011 509.145,52.591 509.024,53.269C508.925,53.949 508.832,54.738 508.581,55.598C508.2,57.342 507.4,59.407 506.126,61.6C504.841,63.784 502.978,66.069 500.431,68.012C497.892,69.938 494.679,71.58 490.964,72.25C487.272,72.897 483.1,72.793 479.12,71.291C477.117,70.6 475.184,69.553 473.407,68.229C472.49,67.6 471.686,66.814 470.846,66.056C470.086,65.218 469.289,64.396 468.632,63.443C465.852,59.753 464.281,55 464.239,50.106C464.283,45.213 465.854,40.462 468.634,36.774C469.29,35.822 470.088,35 470.847,34.162C471.687,33.404 472.491,32.618 473.408,31.989C475.184,30.666 477.117,29.619 479.12,28.928C483.099,27.426 487.271,27.321 490.962,27.969C494.678,28.639 497.891,30.281 500.43,32.206C502.977,34.149 504.84,36.434 506.125,38.617C507.4,40.81 508.2,42.876 508.581,44.62C508.832,45.48 508.925,46.269 509.023,46.95C509.145,47.627 509.178,48.208 509.186,48.678C509.225,49.617 509.231,50.109 509.231,50.109Z" style="fill:rgb(12,43,52);fill-rule:nonzero;"></path> </g> <g transform="matrix(4.16667,0,0,4.16667,0,0)"> <path d="M486.802,35.458C486.802,35.458 488.111,35.282 490.41,35.792C492.663,36.296 496.007,37.734 498.631,41.106C499.913,42.776 501.009,44.897 501.465,47.355C501.904,49.797 501.84,52.562 500.849,55.204C500.392,56.532 499.7,57.815 498.823,58.995C497.963,60.188 496.893,61.271 495.652,62.167C493.207,64.015 490.052,65.066 486.804,65.094C483.554,65.067 480.399,64.016 477.954,62.168C476.712,61.272 475.642,60.188 474.782,58.995C473.904,57.815 473.212,56.532 472.755,55.204C471.762,52.562 471.7,49.796 472.139,47.355C472.594,44.896 473.692,42.775 474.974,41.105C477.597,37.733 480.942,36.296 483.195,35.792C485.494,35.282 486.802,35.458 486.802,35.458C486.809,35.55 485.496,35.465 483.257,36.043C481.063,36.615 477.841,38.089 475.348,41.391C474.132,43.027 473.097,45.085 472.683,47.457C472.284,49.812 472.365,52.468 473.333,54.993C473.778,56.265 474.448,57.49 475.294,58.616C476.123,59.755 477.15,60.789 478.34,61.641C480.686,63.404 483.698,64.399 486.804,64.427C489.909,64.398 492.921,63.402 495.264,61.641C496.455,60.788 497.482,59.754 498.311,58.615C499.156,57.49 499.827,56.265 500.271,54.993C501.239,52.469 501.32,49.813 500.922,47.457C500.507,45.086 499.473,43.028 498.256,41.392C495.763,38.09 492.542,36.615 490.346,36.043C488.108,35.465 486.795,35.55 486.802,35.458Z" style="fill:rgb(243,115,104);fill-rule:nonzero;"></path> </g> <g transform="matrix(4.16667,0,0,4.16667,0,0)"> <path d="M486.802,45.459C486.799,45.428 487.218,45.34 487.969,45.479C488.704,45.616 489.807,46.06 490.685,47.154C491.563,48.209 492.095,50.016 491.458,51.798C490.879,53.563 489.006,55.113 486.802,55.094C484.599,55.114 482.726,53.563 482.146,51.798C481.508,50.015 482.041,48.209 482.92,47.153C483.798,46.06 484.901,45.616 485.635,45.479C486.385,45.34 486.805,45.428 486.802,45.459C486.804,45.519 486.388,45.523 485.699,45.731C485.021,45.935 484.041,46.416 483.295,47.439C482.546,48.43 482.135,50.041 482.723,51.588C483.264,53.123 484.898,54.443 486.802,54.427C488.707,54.442 490.34,53.122 490.881,51.588C491.468,50.041 491.058,48.43 490.31,47.44C489.564,46.416 488.583,45.935 487.906,45.731C487.215,45.523 486.799,45.519 486.802,45.459Z" style="fill:rgb(243,115,104);fill-rule:nonzero;"></path> </g> <g transform="matrix(4.16667,0,0,4.16667,0,0)"> <path d="M462.904,66.273C470.653,60.869 479.053,55.513 486.802,50.109" style="fill:rgb(240,240,240);fill-rule:nonzero;"></path> </g> <g transform="matrix(4.16667,0,0,4.16667,0,0)"> <path d="M486.8,50.11C486.841,50.171 481.525,53.84 474.927,58.302C468.327,62.767 462.944,66.335 462.903,66.274C462.862,66.213 468.177,62.545 474.777,58.081C481.376,53.619 486.759,50.049 486.8,50.11Z" style="fill:rgb(12,43,52);fill-rule:nonzero;"></path> </g> <g transform="matrix(4.16667,0,0,4.16667,0,0)"> <path d="M465.533,64.71C465.531,64.783 464.29,64.798 462.762,64.743C461.234,64.687 459.998,64.582 460.001,64.509C460.004,64.435 461.244,64.42 462.772,64.476C464.299,64.532 465.536,64.636 465.533,64.71Z" style="fill:rgb(12,43,52);fill-rule:nonzero;"></path> </g> <g transform="matrix(4.16667,0,0,4.16667,0,0)"> <path d="M464.593,68.349C464.521,68.334 464.643,67.484 464.866,66.452C465.089,65.42 465.328,64.596 465.399,64.612C465.471,64.627 465.349,65.476 465.127,66.509C464.904,67.541 464.666,68.365 464.593,68.349Z" style="fill:rgb(12,43,52);fill-rule:nonzero;"></path> </g> <g transform="matrix(4.16667,0,0,4.16667,0,0)"> <path d="M465.949,67.922C465.876,67.909 465.974,67.023 466.169,65.942C466.363,64.862 466.58,63.997 466.652,64.01C466.724,64.023 466.626,64.909 466.431,65.99C466.237,67.07 466.021,67.936 465.949,67.922Z" style="fill:rgb(12,43,52);fill-rule:nonzero;"></path> </g> <g transform="matrix(4.16667,0,0,4.16667,0,0)"> <path d="M462.767,63.114C462.784,63.043 463.646,63.185 464.692,63.431C465.738,63.678 466.573,63.937 466.555,64.008C466.539,64.08 465.676,63.938 464.631,63.691C463.585,63.444 462.75,63.186 462.767,63.114Z" style="fill:rgb(12,43,52);fill-rule:nonzero;"></path> </g> <g transform="matrix(4.16667,0,0,4.16667,0,0)"> <path d="M580.228,168.329C580.24,168.326 580.273,168.421 580.326,168.609C580.367,168.8 580.428,169.086 580.439,169.465C580.471,170.219 580.309,171.358 579.666,172.62C579.031,173.889 577.891,175.186 576.533,176.543C575.196,177.941 573.702,179.503 572.081,181.195L571.94,181.343L571.777,181.212C570.283,180.013 568.682,178.727 567.001,177.376C565.349,176.035 563.41,174.606 562.407,172.362C561.782,170.99 561.64,169.334 562.303,167.973C562.943,166.631 564.155,165.637 565.511,165.268C566.88,164.87 568.331,165.243 569.384,165.982C570.447,166.726 571.189,167.834 571.416,169.009L570.995,169.032C571.217,166.972 572.719,165.479 574.237,164.951C575.8,164.384 577.306,164.858 578.238,165.479C579.208,166.11 579.714,166.898 579.964,167.444C580.088,167.721 580.162,167.942 580.192,168.095C580.226,168.248 580.239,168.326 580.228,168.329C580.196,168.338 580.126,168.023 579.849,167.501C579.571,166.989 579.049,166.257 578.108,165.687C577.197,165.123 575.783,164.724 574.355,165.275C572.96,165.786 571.591,167.211 571.419,169.069L571.286,170.499L570.999,169.092C570.783,168.037 570.097,167.032 569.123,166.361C568.151,165.697 566.857,165.377 565.641,165.738C564.429,166.071 563.327,166.985 562.76,168.188C562.176,169.392 562.293,170.874 562.874,172.156C563.796,174.237 565.656,175.64 567.311,176.989C568.984,178.351 570.577,179.648 572.062,180.857L571.758,180.874C573.399,179.201 574.913,177.658 576.266,176.277C577.645,174.942 578.777,173.703 579.426,172.493C580.083,171.291 580.282,170.199 580.296,169.466C580.308,168.727 580.194,168.336 580.228,168.329Z" style="fill:rgb(243,115,104);fill-rule:nonzero;"></path> </g> <g transform="matrix(4.16667,0,0,4.16667,0,0)"> <path d="M555.174,155.597C555.174,155.597 555.198,155.81 555.225,156.208C555.251,156.623 555.287,157.207 555.333,157.962C555.422,159.515 555.55,161.768 555.715,164.657C556.03,170.457 556.482,178.806 557.04,189.091L556.842,188.913C563.27,188.58 570.508,188.205 578.353,187.798L578.578,187.787L578.589,188.012C578.755,191.24 578.931,194.69 579.113,198.235L578.7,198.088C581.797,194.66 585.053,191.054 588.404,187.345L588.473,187.269L588.576,187.263C596.083,186.885 604.008,186.486 612.155,186.076C614.59,185.955 617.005,185.834 619.389,185.714L619.148,185.982C618.562,174.139 618.005,162.858 617.491,152.477L617.737,152.699C599.377,153.571 583.77,154.313 572.731,154.837C567.215,155.087 562.842,155.284 559.826,155.42C558.337,155.483 557.183,155.531 556.381,155.564C556.001,155.577 555.707,155.587 555.487,155.595C555.285,155.601 555.179,155.601 555.174,155.597C555.17,155.592 555.265,155.583 555.459,155.569C555.672,155.555 555.956,155.536 556.324,155.511C557.115,155.465 558.252,155.399 559.719,155.313C562.722,155.148 567.075,154.908 572.565,154.607C583.639,154.024 599.296,153.2 617.714,152.231L617.948,152.218L617.96,152.453C618.485,162.834 619.057,174.114 619.657,185.956L619.67,186.211L619.416,186.223C617.031,186.342 614.616,186.464 612.181,186.586C604.034,186.991 596.107,187.386 588.601,187.76L588.772,187.678C585.416,191.382 582.154,194.983 579.052,198.407L578.668,198.831L578.639,198.259C578.465,194.713 578.297,191.263 578.139,188.035L578.376,188.249C570.53,188.628 563.291,188.978 556.861,189.288L556.673,189.297L556.665,189.11C556.189,178.773 555.803,170.381 555.536,164.551C555.412,161.678 555.316,159.438 555.25,157.893C555.221,157.152 555.199,156.579 555.183,156.171C555.171,155.785 555.174,155.597 555.174,155.597Z" style="fill:rgb(243,115,104);fill-rule:nonzero;"></path> </g> <g transform="matrix(4.16667,0,0,4.16667,0,0)"> <path d="M590.499,171.222L587.862,171.354L587.99,173.922L587.365,173.953L587.237,171.385L584.598,171.517L584.569,170.92L587.207,170.788L587.077,168.206L587.702,168.175L587.832,170.757L590.469,170.625L590.499,171.222Z" style="fill:rgb(12,43,52);fill-rule:nonzero;"></path> </g> <g transform="matrix(4.16667,0,0,4.16667,0,0)"> <path d="M594.229,165.858L594.715,175.577L594.007,175.612L593.553,166.532L591.179,166.651L591.147,166.012L594.229,165.858Z" style="fill:rgb(12,43,52);fill-rule:nonzero;"></path> </g> <g transform="matrix(4.16667,0,0,4.16667,0,0)"> <path d="M603.833,170.249C603.697,167.541 602.355,166.036 600.522,166.128C598.689,166.219 597.505,167.851 597.64,170.559C597.776,173.266 599.118,174.771 600.951,174.679C602.783,174.587 603.968,172.956 603.833,170.249ZM596.932,170.594C596.78,167.554 598.255,165.587 600.49,165.475C602.725,165.363 604.388,167.173 604.541,170.213C604.693,173.253 603.218,175.22 600.983,175.333C598.748,175.444 597.085,173.634 596.932,170.594Z" style="fill:rgb(12,43,52);fill-rule:nonzero;"></path> </g> <g transform="matrix(4.16667,0,0,4.16667,0,0)"> <path d="M612.972,169.791C612.837,167.083 611.495,165.578 609.662,165.67C607.83,165.761 606.645,167.393 606.78,170.101C606.916,172.808 608.257,174.313 610.09,174.222C611.922,174.13 613.108,172.498 612.972,169.791ZM606.072,170.137C605.921,167.097 607.394,165.129 609.63,165.018C611.865,164.905 613.528,166.715 613.68,169.755C613.833,172.795 612.358,174.763 610.123,174.875C607.887,174.987 606.224,173.177 606.072,170.137Z" style="fill:rgb(12,43,52);fill-rule:nonzero;"></path> </g> <g transform="matrix(4.16667,0,0,4.16667,0,0)"> <rect x="564.668" y="82.344" width="6.773" height="26.964" style="fill:rgb(243,115,104);fill-rule:nonzero;"></rect> </g> <g transform="matrix(4.16667,0,0,4.16667,0,0)"> <rect x="553.532" y="80.302" width="6.773" height="29.006" style="fill:rgb(243,115,104);fill-rule:nonzero;"></rect> </g> <g transform="matrix(4.16667,0,0,4.16667,0,0)"> <rect x="542.734" y="83.894" width="6.773" height="25.414" style="fill:rgb(243,115,104);fill-rule:nonzero;"></rect> </g> <g transform="matrix(4.16667,0,0,4.16667,0,0)"> <rect x="531.771" y="87.862" width="6.774" height="21.446" style="fill:rgb(243,115,104);fill-rule:nonzero;"></rect> </g> <g transform="matrix(4.16667,0,0,4.16667,0,0)"> <path d="M576.577,109.406C576.577,109.549 565.446,109.666 551.718,109.666C537.987,109.666 526.859,109.549 526.859,109.406C526.859,109.262 537.987,109.145 551.718,109.145C565.446,109.145 576.577,109.262 576.577,109.406Z" style="fill:rgb(12,43,52);fill-rule:nonzero;"></path> </g> <g transform="matrix(4.16667,0,0,4.16667,0,0)"> <path d="M573.75,84.012C573.744,84.064 572.972,83.932 571.583,84.007C570.21,84.104 568.167,84.441 566.016,85.683C564.943,86.293 563.872,87.137 562.918,88.232C561.953,89.321 561.089,90.635 560.058,91.95C559.037,93.253 557.757,94.593 556.041,95.347C554.345,96.123 552.42,96.368 550.503,96.436C548.576,96.504 546.71,96.409 544.923,96.49C543.136,96.568 541.42,96.785 539.832,97.183C536.649,97.963 534.059,99.63 532.597,101.626C531.091,103.6 530.615,105.639 530.576,107.009C530.563,108.397 530.841,109.143 530.781,109.155C530.781,109.155 530.424,108.435 530.373,107.008C530.349,105.601 530.784,103.474 532.302,101.406C533.061,100.388 534.059,99.373 535.337,98.579C536.597,97.767 538.092,97.149 539.713,96.718C541.338,96.297 543.088,96.067 544.901,95.981C546.718,95.892 548.588,95.983 550.484,95.915C552.372,95.849 554.227,95.609 555.83,94.882C557.449,94.179 558.664,92.927 559.683,91.651C560.707,90.369 561.59,89.052 562.595,87.945C563.591,86.829 564.72,85.968 565.836,85.362C568.074,84.126 570.175,83.841 571.575,83.804C572.282,83.798 572.829,83.844 573.195,83.897C573.562,83.955 573.752,83.994 573.75,84.012Z" style="fill:rgb(12,43,52);fill-rule:nonzero;"></path> </g> <g transform="matrix(4.16667,0,0,4.16667,0,0)"> <path d="M527.755,77.615C527.898,77.615 528.014,84.849 528.014,93.77C528.014,102.694 527.898,109.926 527.755,109.926C527.611,109.926 527.494,102.694 527.494,93.77C527.494,84.849 527.611,77.615 527.755,77.615Z" style="fill:rgb(12,43,52);fill-rule:nonzero;"></path> </g> <g transform="matrix(4.16667,0,0,4.16667,0,0)"> <path d="M467.907,143.121C467.936,143.264 466.868,143.596 465.548,143.964C464.226,144.33 463.14,144.598 463.09,144.461C463.043,144.328 464.065,143.834 465.408,143.462C466.749,143.088 467.88,142.982 467.907,143.121Z" style="fill:rgb(12,43,52);fill-rule:nonzero;"></path> </g> <g transform="matrix(4.16667,0,0,4.16667,0,0)"> <path d="M477.845,142.279C477.839,142.425 476.723,142.492 475.353,142.525C473.983,142.557 472.866,142.544 472.852,142.399C472.839,142.258 473.951,142.037 475.34,142.004C476.731,141.971 477.852,142.138 477.845,142.279Z" style="fill:rgb(12,43,52);fill-rule:nonzero;"></path> </g> <g transform="matrix(4.16667,0,0,4.16667,0,0)"> <path d="M487.715,143.773C487.676,143.913 486.573,143.725 485.231,143.444C483.889,143.16 482.804,142.888 482.825,142.744C482.844,142.603 483.977,142.647 485.339,142.934C486.7,143.219 487.755,143.637 487.715,143.773Z" style="fill:rgb(12,43,52);fill-rule:nonzero;"></path> </g> <g transform="matrix(4.16667,0,0,4.16667,0,0)"> <path d="M496.991,147.465C496.921,147.592 495.889,147.157 494.645,146.578C493.402,145.997 492.405,145.487 492.458,145.351C492.508,145.219 493.603,145.517 494.865,146.106C496.128,146.693 497.06,147.341 496.991,147.465Z" style="fill:rgb(12,43,52);fill-rule:nonzero;"></path> </g> <g transform="matrix(4.16667,0,0,4.16667,0,0)"> <path d="M505.132,153.225C505.033,153.331 504.14,152.659 503.072,151.802C502.004,150.943 501.156,150.215 501.239,150.095C501.319,149.979 502.313,150.524 503.398,151.396C504.483,152.266 505.229,153.121 505.132,153.225Z" style="fill:rgb(12,43,52);fill-rule:nonzero;"></path> </g> <g transform="matrix(4.16667,0,0,4.16667,0,0)"> <path d="M556.401,260.493C555.442,262.945 552.676,264.156 550.224,263.198C547.772,262.239 546.561,259.474 547.52,257.022C548.478,254.569 551.244,253.358 553.696,254.317C556.148,255.275 557.359,258.041 556.401,260.493Z" style="fill:rgb(243,115,104);fill-rule:nonzero;"></path> </g> <g transform="matrix(4.16667,0,0,4.16667,0,0)"> <path d="M572.313,256.475C571.354,258.928 568.589,260.139 566.137,259.181C563.684,258.221 562.473,255.457 563.432,253.004C564.391,250.551 567.156,249.34 569.608,250.299C572.061,251.258 573.272,254.023 572.313,256.475Z" style="fill:rgb(243,115,104);fill-rule:nonzero;"></path> </g> <g transform="matrix(4.16667,0,0,4.16667,0,0)"> <path d="M564.956,275.296C563.913,277.965 561.079,279.351 558.627,278.392C556.174,277.433 555.032,274.494 556.075,271.826C557.118,269.157 559.952,267.771 562.404,268.73C564.856,269.688 565.999,272.628 564.956,275.296Z" style="fill:rgb(243,115,104);fill-rule:nonzero;"></path> </g> <g transform="matrix(4.16667,0,0,4.16667,0,0)"> <path d="M559.428,272.478C559.13,272.682 556.836,269.847 554.305,266.146C551.775,262.444 549.966,259.278 550.265,259.074C550.565,258.871 552.858,261.704 555.389,265.406C557.92,269.107 559.728,272.273 559.428,272.478Z" style="fill:rgb(243,115,104);fill-rule:nonzero;"></path> </g> <g transform="matrix(4.16667,0,0,4.16667,0,0)"> <path d="M567.065,254.064C567.168,254.413 564.059,255.629 560.124,256.783C556.188,257.937 552.915,258.591 552.813,258.242C552.711,257.894 555.818,256.677 559.755,255.523C563.69,254.37 566.964,253.716 567.065,254.064Z" style="fill:rgb(243,115,104);fill-rule:nonzero;"></path> </g> <g transform="matrix(4.16667,0,0,4.16667,0,0)"> <path d="M497.848,304.33C497.813,304.329 497.769,303.926 497.716,303.169C497.7,302.789 497.665,302.321 497.561,301.775C497.476,301.227 497.398,300.593 497.195,299.902C496.888,298.501 496.254,296.843 495.25,295.084C494.238,293.331 492.773,291.495 490.769,289.923C488.771,288.366 486.246,287.026 483.313,286.447C480.401,285.886 477.103,285.907 473.942,287.031C472.352,287.545 470.812,288.338 469.39,289.353C468.657,289.833 468.011,290.44 467.337,291.021C466.724,291.67 466.081,292.302 465.548,293.042C463.295,295.897 461.976,299.603 461.846,303.452C461.788,307.305 462.925,311.071 465.038,314.035C465.533,314.798 466.145,315.462 466.725,316.139C467.372,316.753 467.986,317.391 468.697,317.906C470.067,318.988 471.567,319.857 473.131,320.447C476.234,321.722 479.527,321.904 482.464,321.485C485.421,321.048 488.008,319.833 490.08,318.374C492.157,316.901 493.709,315.138 494.804,313.437C495.892,311.727 496.606,310.103 496.981,308.719C497.217,308.039 497.326,307.41 497.437,306.867C497.568,306.326 497.625,305.861 497.66,305.482C497.75,304.727 497.813,304.329 497.848,304.33C497.882,304.33 497.886,304.731 497.862,305.5C497.859,305.885 497.833,306.361 497.732,306.916C497.65,307.472 497.569,308.12 497.357,308.823C497.033,310.253 496.356,311.944 495.28,313.736C494.196,315.519 492.629,317.379 490.496,318.949C488.371,320.503 485.686,321.812 482.596,322.306C479.529,322.783 476.072,322.625 472.795,321.308C471.144,320.698 469.558,319.795 468.107,318.662C467.357,318.123 466.704,317.456 466.021,316.81C465.405,316.1 464.758,315.401 464.231,314.597C461.993,311.479 460.778,307.496 460.842,303.427C460.976,299.363 462.383,295.444 464.771,292.44C465.337,291.663 466.015,290.997 466.666,290.317C467.379,289.706 468.064,289.072 468.84,288.569C470.342,287.508 471.97,286.683 473.648,286.154C476.985,284.999 480.446,285.007 483.486,285.632C486.548,286.276 489.166,287.714 491.214,289.37C493.267,291.04 494.742,292.974 495.739,294.808C496.726,296.65 497.321,298.372 497.576,299.816C497.754,300.529 497.802,301.179 497.857,301.74C497.931,302.299 497.934,302.775 497.919,303.161C497.906,303.929 497.882,304.33 497.848,304.33Z" style="fill:rgb(243,115,104);fill-rule:nonzero;"></path> </g> <g transform="matrix(4.16667,0,0,4.16667,0,0)"> <path d="M494.196,292.923C494.236,292.98 493.907,293.266 493.271,293.739C492.923,293.989 492.533,294.269 492.096,294.582C491.864,294.742 491.62,294.921 491.348,295.091C491.061,295.242 490.761,295.398 490.45,295.561C488.007,296.973 484.136,298.415 479.716,298.264C479.169,298.24 478.627,298.215 478.092,298.192C477.565,298.11 477.045,298.028 476.533,297.948C476.278,297.905 476.024,297.871 475.775,297.821C475.531,297.755 475.288,297.691 475.048,297.628C474.569,297.495 474.095,297.381 473.644,297.237C471.852,296.614 470.305,295.888 469.09,295.139C466.644,293.66 465.453,292.314 465.546,292.227C465.644,292.115 466.974,293.241 469.438,294.52C470.663,295.17 472.186,295.803 473.921,296.355C474.357,296.481 474.814,296.578 475.275,296.696C475.507,296.753 475.739,296.811 475.974,296.87C476.215,296.906 476.457,296.942 476.701,296.979C477.189,297.051 477.686,297.124 478.19,297.199C478.7,297.219 479.216,297.24 479.739,297.261C483.941,297.406 487.663,296.146 490.132,294.927C490.447,294.79 490.751,294.659 491.041,294.532C491.318,294.387 491.57,294.232 491.811,294.098C492.274,293.843 492.688,293.616 493.057,293.412C493.75,293.045 494.156,292.867 494.196,292.923Z" style="fill:rgb(243,115,104);fill-rule:nonzero;"></path> </g> <g transform="matrix(4.16667,0,0,4.16667,0,0)"> <path d="M464.99,315.12C464.949,315.063 465.279,314.777 465.915,314.304C466.263,314.054 466.653,313.774 467.09,313.462C467.322,313.302 467.565,313.122 467.837,312.952C468.124,312.801 468.423,312.645 468.736,312.482C471.178,311.07 475.048,309.628 479.468,309.779C480.017,309.803 480.559,309.828 481.093,309.851C481.621,309.934 482.14,310.015 482.652,310.095C482.907,310.138 483.162,310.172 483.41,310.222C483.655,310.288 483.898,310.352 484.138,310.417C484.617,310.549 485.09,310.662 485.542,310.806C487.333,311.429 488.881,312.156 490.095,312.904C492.542,314.383 493.732,315.729 493.64,315.816C493.542,315.929 492.212,314.802 489.748,313.523C488.523,312.873 486.999,312.241 485.264,311.689C484.828,311.562 484.371,311.465 483.911,311.347C483.679,311.29 483.446,311.232 483.211,311.173C482.971,311.137 482.729,311.101 482.485,311.064C481.996,310.993 481.5,310.92 480.995,310.845C480.486,310.825 479.969,310.803 479.447,310.783C475.245,310.637 471.523,311.897 469.053,313.117C468.738,313.253 468.435,313.385 468.144,313.511C467.868,313.656 467.616,313.811 467.374,313.945C466.912,314.2 466.498,314.427 466.128,314.631C465.435,314.999 465.03,315.176 464.99,315.12Z" style="fill:rgb(243,115,104);fill-rule:nonzero;"></path> </g> <g transform="matrix(4.16667,0,0,4.16667,0,0)"> <path d="M497.838,304.753C497.831,305.031 489.653,305.056 479.574,304.812C469.492,304.567 461.327,304.144 461.334,303.867C461.34,303.589 469.516,303.563 479.598,303.808C489.677,304.053 497.844,304.476 497.838,304.753Z" style="fill:rgb(243,115,104);fill-rule:nonzero;"></path> </g> <g transform="matrix(4.16667,0,0,4.16667,0,0)"> <path d="M478.744,322.121C478.467,322.114 478.441,313.939 478.685,303.864C478.93,293.785 479.353,285.623 479.631,285.629C479.907,285.636 479.933,293.809 479.689,303.888C479.444,313.963 479.021,322.128 478.744,322.121Z" style="fill:rgb(243,115,104);fill-rule:nonzero;"></path> </g> <g transform="matrix(4.16667,0,0,4.16667,0,0)"> <path d="M478.745,322.093C478.676,322.2 476.665,320.837 474.343,317.749C473.196,316.207 471.992,314.223 471.081,311.825C470.174,309.431 469.607,306.613 469.669,303.645C469.721,300.668 470.469,297.881 471.511,295.547C472.553,293.205 473.861,291.292 475.077,289.806C477.535,286.836 479.562,285.518 479.631,285.625C479.729,285.738 477.892,287.232 475.635,290.244C474.519,291.749 473.315,293.644 472.36,295.915C471.405,298.179 470.722,300.835 470.672,303.664C470.614,306.496 471.126,309.189 471.95,311.506C472.778,313.829 473.878,315.785 474.923,317.338C477.036,320.45 478.846,321.983 478.745,322.093Z" style="fill:rgb(243,115,104);fill-rule:nonzero;"></path> </g> <g transform="matrix(4.16667,0,0,4.16667,0,0)"> <path d="M480.04,285.634C480.108,285.528 482.119,286.892 484.44,289.979C485.589,291.521 486.793,293.505 487.703,295.903C488.609,298.296 489.177,301.115 489.116,304.083C489.063,307.06 488.314,309.846 487.273,312.18C486.231,314.523 484.923,316.436 483.708,317.921C481.249,320.892 479.221,322.21 479.154,322.103C479.055,321.99 480.891,320.496 483.148,317.484C484.264,315.979 485.469,314.085 486.424,311.813C487.38,309.548 488.062,306.893 488.112,304.064C488.171,301.232 487.659,298.539 486.835,296.221C486.007,293.899 484.906,291.943 483.861,290.389C481.749,287.278 479.937,285.745 480.04,285.634Z" style="fill:rgb(243,115,104);fill-rule:nonzero;"></path> </g> <g transform="matrix(4.16667,0,0,4.16667,0,0)"> <path d="M479.176,88.739C479.034,88.727 478.964,88.16 479.02,87.473C479.078,86.786 479.24,86.238 479.383,86.25C479.526,86.262 479.596,86.829 479.54,87.516C479.482,88.203 479.32,88.751 479.176,88.739Z" style="fill:rgb(12,43,52);fill-rule:nonzero;"></path> </g> <g transform="matrix(4.16667,0,0,4.16667,0,0)"> <path d="M478.316,99.038C478.173,99.026 478.153,97.863 478.272,96.44C478.391,95.017 478.604,93.873 478.748,93.885C478.891,93.897 478.911,95.061 478.792,96.484C478.673,97.906 478.46,99.05 478.316,99.038Z" style="fill:rgb(12,43,52);fill-rule:nonzero;"></path> </g> <g transform="matrix(4.16667,0,0,4.16667,0,0)"> <path d="M477.444,109.341C477.3,109.329 477.282,108.166 477.403,106.744C477.524,105.32 477.738,104.177 477.882,104.19C478.025,104.202 478.043,105.365 477.923,106.788C477.801,108.21 477.588,109.354 477.444,109.341Z" style="fill:rgb(12,43,52);fill-rule:nonzero;"></path> </g> <g transform="matrix(4.16667,0,0,4.16667,0,0)"> <path d="M476.556,119.644C476.414,119.632 476.397,118.469 476.52,117.047C476.643,115.625 476.859,114.483 477.003,114.495C477.146,114.507 477.162,115.67 477.039,117.092C476.916,118.514 476.7,119.657 476.556,119.644Z" style="fill:rgb(12,43,52);fill-rule:nonzero;"></path> </g> <g transform="matrix(4.16667,0,0,4.16667,0,0)"> <path d="M475.639,129.943C475.497,129.93 475.484,128.767 475.612,127.346C475.741,125.924 475.961,124.782 476.104,124.795C476.247,124.808 476.259,125.971 476.131,127.393C476.003,128.814 475.783,129.956 475.639,129.943Z" style="fill:rgb(12,43,52);fill-rule:nonzero;"></path> </g> <g transform="matrix(4.16667,0,0,4.16667,0,0)"> <path d="M474.853,137.564C474.714,137.531 474.664,136.958 474.744,136.283C474.823,135.608 475.005,135.072 475.148,135.085C475.291,135.098 475.34,135.671 475.257,136.366C475.174,137.061 474.993,137.597 474.853,137.564Z" style="fill:rgb(12,43,52);fill-rule:nonzero;"></path> </g> <g transform="matrix(4.16667,0,0,4.16667,0,0)"> <path d="M505.678,141.801C505.793,141.889 505.207,142.85 504.371,143.947C503.533,145.046 502.762,145.865 502.648,145.778C502.534,145.691 503.119,144.73 503.956,143.632C504.793,142.534 505.564,141.714 505.678,141.801Z" style="fill:rgb(12,43,52);fill-rule:nonzero;"></path> </g> <g transform="matrix(4.16667,0,0,4.16667,0,0)"> <path d="M511.74,133.848C511.855,133.935 511.269,134.896 510.432,135.994C509.594,137.092 508.824,137.912 508.71,137.825C508.595,137.737 509.18,136.777 510.018,135.678C510.855,134.581 511.626,133.761 511.74,133.848Z" style="fill:rgb(12,43,52);fill-rule:nonzero;"></path> </g> <g transform="matrix(4.16667,0,0,4.16667,0,0)"> <path d="M517.801,125.895C517.917,125.982 517.331,126.942 516.494,128.041C515.656,129.139 514.885,129.959 514.771,129.871C514.656,129.784 515.242,128.823 516.08,127.725C516.917,126.627 517.687,125.808 517.801,125.895Z" style="fill:rgb(12,43,52);fill-rule:nonzero;"></path> </g> <g transform="matrix(4.16667,0,0,4.16667,0,0)"> <path d="M523.864,117.941C523.978,118.028 523.392,118.989 522.555,120.087C521.718,121.186 520.947,122.005 520.833,121.918C520.718,121.831 521.304,120.87 522.141,119.772C522.978,118.674 523.749,117.854 523.864,117.941Z" style="fill:rgb(12,43,52);fill-rule:nonzero;"></path> </g> <g transform="matrix(4.16667,0,0,4.16667,0,0)"> <path d="M524.329,174.525C524.193,174.579 523.677,173.587 523.078,172.355C522.482,171.121 522.023,170.103 522.15,170.029C522.271,169.957 522.942,170.874 523.547,172.128C524.156,173.38 524.461,174.474 524.329,174.525Z" style="fill:rgb(12,43,52);fill-rule:nonzero;"></path> </g> <g transform="matrix(4.16667,0,0,4.16667,0,0)"> <path d="M526.904,184.16C526.759,184.179 526.498,183.092 526.224,181.749C525.954,180.405 525.771,179.302 525.912,179.264C526.047,179.225 526.461,180.282 526.735,181.646C527.011,183.008 527.044,184.142 526.904,184.16Z" style="fill:rgb(12,43,52);fill-rule:nonzero;"></path> </g> <g transform="matrix(4.16667,0,0,4.16667,0,0)"> <path d="M527.23,194.138C527.087,194.127 526.993,193.005 527.02,191.634C527.048,190.262 527.188,189.146 527.332,189.14C527.475,189.134 527.569,190.255 527.542,191.645C527.513,193.033 527.374,194.15 527.23,194.138Z" style="fill:rgb(12,43,52);fill-rule:nonzero;"></path> </g> <g transform="matrix(4.16667,0,0,4.16667,0,0)"> <path d="M525.583,203.991C525.444,203.953 525.565,202.834 525.854,201.492C526.143,200.149 526.494,199.08 526.635,199.103C526.778,199.126 526.656,200.244 526.364,201.601C526.071,202.959 525.721,204.028 525.583,203.991Z" style="fill:rgb(12,43,52);fill-rule:nonzero;"></path> </g> <g transform="matrix(4.16667,0,0,4.16667,0,0)"> <path d="M522.211,213.395C522.081,213.335 522.396,212.254 522.914,210.982C523.432,209.711 523.964,208.718 524.099,208.765C524.236,208.813 523.922,209.893 523.396,211.179C522.873,212.464 522.341,213.457 522.211,213.395Z" style="fill:rgb(12,43,52);fill-rule:nonzero;"></path> </g> <g transform="matrix(4.16667,0,0,4.16667,0,0)"> <path d="M517.284,222.087C517.167,222.004 517.661,220.993 518.388,219.829C519.117,218.665 519.81,217.778 519.935,217.847C520.06,217.918 519.567,218.928 518.831,220.105C518.094,221.282 517.401,222.169 517.284,222.087Z" style="fill:rgb(12,43,52);fill-rule:nonzero;"></path> </g> <g transform="matrix(4.16667,0,0,4.16667,0,0)"> <path d="M510.84,229.714C510.742,229.609 511.423,228.713 512.361,227.714C513.299,226.715 514.151,225.98 514.261,226.072C514.373,226.164 513.692,227.058 512.741,228.071C511.79,229.084 510.939,229.819 510.84,229.714Z" style="fill:rgb(12,43,52);fill-rule:nonzero;"></path> </g> <g transform="matrix(4.16667,0,0,4.16667,0,0)"> <path d="M502.944,235.829C502.87,235.706 503.721,234.971 504.848,234.188C505.975,233.405 506.961,232.861 507.049,232.974C507.138,233.087 506.286,233.822 505.145,234.616C504.005,235.409 503.019,235.952 502.944,235.829Z" style="fill:rgb(12,43,52);fill-rule:nonzero;"></path> </g> <g transform="matrix(4.16667,0,0,4.16667,0,0)"> <path d="M493.989,240.26C493.939,240.126 494.92,239.571 496.178,239.022C497.438,238.473 498.511,238.133 498.577,238.261C498.641,238.39 497.661,238.944 496.386,239.5C495.112,240.055 494.039,240.395 493.989,240.26Z" style="fill:rgb(12,43,52);fill-rule:nonzero;"></path> </g> <g transform="matrix(4.16667,0,0,4.16667,0,0)"> <path d="M484.354,242.894C484.331,242.752 485.398,242.395 486.738,242.097C488.078,241.799 489.195,241.67 489.235,241.808C489.274,241.947 488.207,242.304 486.85,242.605C485.495,242.907 484.377,243.036 484.354,242.894Z" style="fill:rgb(12,43,52);fill-rule:nonzero;"></path> </g> <g transform="matrix(4.16667,0,0,4.16667,0,0)"> <path d="M474.392,243.61C474.397,243.466 475.513,243.325 476.884,243.295C478.257,243.264 479.377,243.357 479.388,243.5C479.4,243.643 478.285,243.785 476.896,243.815C475.507,243.846 474.386,243.753 474.392,243.61Z" style="fill:rgb(12,43,52);fill-rule:nonzero;"></path> </g> <g transform="matrix(4.16667,0,0,4.16667,0,0)"> <path d="M464.499,242.279C464.535,242.14 465.656,242.233 467.002,242.488C468.349,242.743 469.425,243.065 469.408,243.208C469.39,243.35 468.27,243.257 466.905,243C465.541,242.741 464.464,242.419 464.499,242.279Z" style="fill:rgb(12,43,52);fill-rule:nonzero;"></path> </g> <g transform="matrix(4.16667,0,0,4.16667,0,0)"> <path d="M531.085,182.764C531.085,182.908 529.965,183.024 528.585,183.024C527.204,183.024 526.085,182.908 526.085,182.764C526.085,182.62 527.204,182.503 528.585,182.503C529.965,182.503 531.085,182.62 531.085,182.764Z" style="fill:rgb(12,43,52);fill-rule:nonzero;"></path> </g> <g transform="matrix(4.16667,0,0,4.16667,0,0)"> <path d="M541.085,182.764C541.085,182.908 539.965,183.024 538.585,183.024C537.204,183.024 536.085,182.908 536.085,182.764C536.085,182.62 537.204,182.503 538.585,182.503C539.965,182.503 541.085,182.62 541.085,182.764Z" style="fill:rgb(12,43,52);fill-rule:nonzero;"></path> </g> <g transform="matrix(4.16667,0,0,4.16667,0,0)"> <path d="M549.601,182.764C549.601,182.908 548.814,183.024 547.843,183.024C546.872,183.024 546.085,182.908 546.085,182.764C546.085,182.62 546.872,182.503 547.843,182.503C548.814,182.503 549.601,182.62 549.601,182.764Z" style="fill:rgb(12,43,52);fill-rule:nonzero;"></path> </g> <g transform="matrix(4.16667,0,0,4.16667,0,0)"> <path d="M516.883,230.658C516.792,230.768 515.857,230.14 514.797,229.256C513.737,228.372 512.952,227.565 513.044,227.455C513.136,227.344 514.07,227.971 515.13,228.856C516.19,229.741 516.974,230.547 516.883,230.658Z" style="fill:rgb(12,43,52);fill-rule:nonzero;"></path> </g> <g transform="matrix(4.16667,0,0,4.16667,0,0)"> <path d="M524.562,237.063C524.47,237.173 523.536,236.546 522.476,235.662C521.416,234.777 520.63,233.971 520.723,233.861C520.815,233.75 521.75,234.378 522.809,235.262C523.87,236.146 524.655,236.953 524.562,237.063Z" style="fill:rgb(12,43,52);fill-rule:nonzero;"></path> </g> <g transform="matrix(4.16667,0,0,4.16667,0,0)"> <path d="M532.242,243.469C532.149,243.58 531.215,242.952 530.155,242.068C529.094,241.183 528.31,240.377 528.402,240.266C528.494,240.156 529.428,240.783 530.489,241.668C531.548,242.552 532.334,243.359 532.242,243.469Z" style="fill:rgb(12,43,52);fill-rule:nonzero;"></path> </g> <g transform="matrix(4.16667,0,0,4.16667,0,0)"> <path d="M539.047,249.145C538.954,249.255 538.215,248.792 537.397,248.109C536.578,247.425 535.989,246.782 536.081,246.671C536.173,246.561 536.912,247.026 537.731,247.709C538.549,248.392 539.138,249.035 539.047,249.145Z" style="fill:rgb(12,43,52);fill-rule:nonzero;"></path> </g> <g transform="matrix(4.16667,0,0,4.16667,0,0)"> <path d="M477.226,248.124C477.083,248.124 476.965,247.004 476.965,245.624C476.965,244.243 477.083,243.124 477.226,243.124C477.37,243.124 477.487,244.243 477.487,245.624C477.487,247.004 477.37,248.124 477.226,248.124Z" style="fill:rgb(12,43,52);fill-rule:nonzero;"></path> </g> <g transform="matrix(4.16667,0,0,4.16667,0,0)"> <path d="M477.226,258.125C477.083,258.125 476.965,257.004 476.965,255.624C476.965,254.243 477.083,253.124 477.226,253.124C477.37,253.124 477.487,254.243 477.487,255.624C477.487,257.004 477.37,258.125 477.226,258.125Z" style="fill:rgb(12,43,52);fill-rule:nonzero;"></path> </g> <g transform="matrix(4.16667,0,0,4.16667,0,0)"> <path d="M477.226,268.124C477.083,268.124 476.965,267.004 476.965,265.624C476.965,264.243 477.083,263.124 477.226,263.124C477.37,263.124 477.487,264.243 477.487,265.624C477.487,267.004 477.37,268.124 477.226,268.124Z" style="fill:rgb(12,43,52);fill-rule:nonzero;"></path> </g> <g transform="matrix(4.16667,0,0,4.16667,0,0)"> <path d="M477.226,274.858C477.083,274.858 476.965,274.47 476.965,273.991C476.965,273.512 477.083,273.124 477.226,273.124C477.37,273.124 477.487,273.512 477.487,273.991C477.487,274.47 477.37,274.858 477.226,274.858Z" style="fill:rgb(12,43,52);fill-rule:nonzero;"></path> </g> <g transform="matrix(4.16667,0,0,4.16667,0,0)"> <path d="M398.122,93.67C396.546,89.623 394.984,85.544 394.128,81.286C393.271,77.027 393.146,72.545 394.423,68.394C394.618,67.765 396.334,63.519 396.992,63.546C397.462,63.566 396.479,67.491 396.739,67.883C399.217,71.629 400.097,76.254 399.992,80.744C399.887,85.234 399.187,89.308 398.122,93.67Z" style="fill:rgb(12,43,52);fill-rule:nonzero;"></path> </g> <g transform="matrix(4.16667,0,0,4.16667,0,0)"> <path d="M421.717,142.562C414.988,142.804 399.476,124.333 399.088,117.609L396.748,77.15C395.774,66.301 401.275,56.691 412.147,56.017L413.156,56.013C423.303,55.977 431.782,63.736 432.633,73.849C433.425,83.257 434.18,93.662 434.136,98.711C434.045,109.164 423.596,110.826 423.596,110.826C423.573,110.828 423.675,113.248 423.819,116.312C424.14,123.195 428.192,142.303 421.305,142.551L421.717,142.562Z" style="fill:rgb(249,178,153);fill-rule:nonzero;"></path> </g> <g transform="matrix(4.16667,0,0,4.16667,0,0)"> <path d="M423.596,110.826C423.596,110.826 417.009,111.236 409.972,106.852C409.972,106.852 413.274,114.698 423.701,113.719L423.596,110.826Z" style="fill:rgb(247,149,112);fill-rule:nonzero;"></path> </g> <g transform="matrix(4.16667,0,0,4.16667,0,0)"> <path d="M429.646,81.896C429.676,82.684 429.035,83.36 428.212,83.407C427.391,83.454 426.699,82.855 426.669,82.067C426.637,81.279 427.28,80.602 428.1,80.555C428.923,80.508 429.615,81.108 429.646,81.896Z" style="fill:rgb(12,43,52);fill-rule:nonzero;"></path> </g> <g transform="matrix(4.16667,0,0,4.16667,0,0)"> <path d="M430.427,78.472C430.243,78.668 429.109,77.835 427.503,77.845C425.898,77.832 424.722,78.662 424.548,78.466C424.462,78.379 424.649,78.027 425.161,77.651C425.665,77.278 426.525,76.913 427.526,76.913C428.526,76.916 429.369,77.28 429.854,77.656C430.349,78.033 430.518,78.385 430.427,78.472Z" style="fill:rgb(12,43,52);fill-rule:nonzero;"></path> </g> <g transform="matrix(4.16667,0,0,4.16667,0,0)"> <path d="M414.897,82.558C414.927,83.346 414.286,84.022 413.464,84.069C412.642,84.116 411.951,83.518 411.92,82.729C411.889,81.941 412.531,81.264 413.352,81.217C414.174,81.169 414.867,81.771 414.897,82.558Z" style="fill:rgb(12,43,52);fill-rule:nonzero;"></path> </g> <g transform="matrix(4.16667,0,0,4.16667,0,0)"> <path d="M414.683,78.9C414.499,79.096 413.364,78.263 411.758,78.273C410.154,78.26 408.978,79.091 408.803,78.895C408.717,78.808 408.903,78.456 409.417,78.081C409.921,77.707 410.781,77.342 411.782,77.342C412.782,77.344 413.625,77.71 414.11,78.085C414.604,78.462 414.774,78.814 414.683,78.9Z" style="fill:rgb(12,43,52);fill-rule:nonzero;"></path> </g> <g transform="matrix(4.16667,0,0,4.16667,0,0)"> <path d="M420.489,91.222C420.481,91.131 421.479,90.955 423.096,90.742C423.507,90.699 423.894,90.616 423.963,90.335C424.058,90.039 423.884,89.597 423.684,89.121C423.296,88.129 422.888,87.091 422.461,86.002C420.76,81.561 419.528,77.909 419.707,77.842C419.886,77.775 421.411,81.32 423.11,85.761C423.52,86.856 423.911,87.9 424.284,88.899C424.44,89.364 424.71,89.892 424.502,90.508C424.393,90.815 424.092,91.039 423.83,91.11C423.567,91.191 423.337,91.196 423.133,91.21C421.506,91.303 420.496,91.314 420.489,91.222Z" style="fill:rgb(12,43,52);fill-rule:nonzero;"></path> </g> <g transform="matrix(4.16667,0,0,4.16667,0,0)"> <path d="M414.518,72.898C414.301,73.309 412.742,72.883 410.844,72.849C408.947,72.777 407.366,73.115 407.172,72.692C407.088,72.491 407.406,72.121 408.073,71.787C408.734,71.452 409.752,71.189 410.889,71.219C412.027,71.252 413.028,71.572 413.67,71.943C414.317,72.314 414.615,72.702 414.518,72.898Z" style="fill:rgb(12,43,52);fill-rule:nonzero;"></path> </g> <g transform="matrix(4.16667,0,0,4.16667,0,0)"> <path d="M430.034,74.718C429.707,75.089 428.392,74.734 426.819,74.746C425.247,74.71 423.921,75.044 423.607,74.668C423.469,74.486 423.672,74.117 424.248,73.761C424.814,73.406 425.768,73.107 426.849,73.115C427.93,73.124 428.872,73.437 429.426,73.8C429.989,74.165 430.178,74.537 430.034,74.718Z" style="fill:rgb(12,43,52);fill-rule:nonzero;"></path> </g> <g transform="matrix(4.16667,0,0,4.16667,0,0)"> <path d="M397.63,84.887C397.451,84.811 390.44,82.788 390.694,89.933C390.948,97.078 398.068,95.35 398.074,95.145C398.079,94.939 397.63,84.887 397.63,84.887Z" style="fill:rgb(249,178,153);fill-rule:nonzero;"></path> </g> <g transform="matrix(4.16667,0,0,4.16667,0,0)"> <path d="M395.795,92.515C395.762,92.493 395.673,92.606 395.466,92.71C395.265,92.812 394.915,92.889 394.537,92.763C393.772,92.512 393.094,91.336 393.013,90.05C392.972,89.4 393.087,88.776 393.298,88.255C393.499,87.725 393.824,87.348 394.201,87.267C394.576,87.166 394.853,87.384 394.948,87.582C395.05,87.778 395.01,87.923 395.048,87.934C395.069,87.951 395.198,87.808 395.13,87.515C395.095,87.375 395.006,87.209 394.833,87.078C394.656,86.944 394.402,86.882 394.138,86.92C393.589,86.978 393.11,87.502 392.877,88.074C392.614,88.649 392.469,89.352 392.516,90.081C392.613,91.519 393.398,92.84 394.441,93.102C394.949,93.215 395.363,93.049 395.573,92.873C395.788,92.688 395.82,92.527 395.795,92.515Z" style="fill:rgb(247,149,112);fill-rule:nonzero;"></path> </g> <g transform="matrix(4.16667,0,0,4.16667,0,0)"> <path d="M427.487,62.221C428.615,61.532 424.98,57.942 422.083,56.78C417.703,55.023 411.093,54.113 407.185,55.412C402.479,56.975 398.625,59.521 396.423,63.965C394.223,68.409 393.548,73.503 393.907,78.449C394.016,79.958 394.243,81.526 395.106,82.768C396.173,84.303 398.132,85.212 398.145,87.395C398.149,88.192 398.413,88.985 398.984,89.542C400.352,90.875 401.893,89.497 402.57,88.155C404.015,85.288 404.043,81.94 404.039,78.729C404.036,76.446 404.025,74.116 403.286,71.956C402.883,70.781 402.272,69.681 401.935,68.486C401.599,67.29 401.575,65.918 402.284,64.898C402.399,64.731 402.591,64.521 402.838,64.285C404.782,62.422 407.59,61.766 410.165,62.55C414.251,63.795 421.213,65.616 422.946,64.171C425.44,62.093 426.001,60.785 426.001,60.785L427.487,62.221Z" style="fill:rgb(12,43,52);fill-rule:nonzero;"></path> </g> <g transform="matrix(4.16667,0,0,4.16667,0,0)"> <path d="M416.119,92.282C416.023,92.3 415.982,92.692 416.147,93.303C416.3,93.907 416.757,94.741 417.531,95.342C418.292,95.953 419.094,96.271 419.669,96.455C420.249,96.637 420.625,96.682 420.665,96.588C420.705,96.49 420.394,96.269 419.884,95.969C419.377,95.667 418.665,95.291 418.005,94.758C416.654,93.718 416.347,92.221 416.119,92.282Z" style="fill:rgb(12,43,52);fill-rule:nonzero;"></path> </g> <g transform="matrix(4.16667,0,0,4.16667,0,0)"> <path d="M488.075,205.844L438.002,209.22L436.349,192.533L496.953,194.751L488.075,205.844Z" style="fill:rgb(249,178,153);fill-rule:nonzero;"></path> </g> <g transform="matrix(4.16667,0,0,4.16667,0,0)"> <path d="M523.649,151.313L524.255,152.524C520.255,161.065 505.724,191.989 505.724,191.989L486.625,202.332L439.91,202.578L439.797,200.058L463.36,189.471L493.381,188.865L508.056,156.24C508.43,155.408 509.169,154.796 510.055,154.583L523.649,151.313Z" style="fill:rgb(51,88,99);fill-rule:nonzero;"></path> </g> <g transform="matrix(4.16667,0,0,4.16667,0,0)"> <path d="M486.625,202.332C486.686,202.358 487.125,201.609 487.783,200.378C488.44,199.146 489.317,197.431 490.259,195.525C491.201,193.619 492.028,191.881 492.606,190.612C493.183,189.342 493.51,188.542 493.45,188.512C493.389,188.482 492.953,189.228 492.295,190.46C491.637,191.691 490.758,193.409 489.815,195.319C488.872,197.229 488.043,198.969 487.465,200.238C486.888,201.507 486.562,202.305 486.625,202.332Z" style="fill:rgb(12,43,52);fill-rule:nonzero;"></path> </g> <g transform="matrix(4.16667,0,0,4.16667,0,0)"> <path d="M482.093,198.406L462.105,198.645L476.813,190.115L492.951,189.753L482.093,198.406Z" style="fill:rgb(12,43,52);fill-rule:nonzero;"></path> </g> <g transform="matrix(4.16667,0,0,4.16667,0,0)"> <path d="M439.797,200.058C439.798,200.075 439.965,200.085 440.286,200.088C440.661,200.085 441.123,200.082 441.683,200.077C442.969,200.055 444.707,200.024 446.821,199.987C451.159,199.91 457.152,199.863 463.773,199.815C470.396,199.766 476.394,199.665 480.733,199.5C482.902,199.418 484.657,199.335 485.869,199.253C486.428,199.212 486.888,199.178 487.263,199.151C487.582,199.122 487.749,199.099 487.748,199.082C487.747,199.065 487.579,199.055 487.258,199.052C486.883,199.055 486.422,199.059 485.861,199.063C484.575,199.086 482.838,199.116 480.723,199.153C476.386,199.23 470.392,199.277 463.769,199.325C457.148,199.374 451.151,199.476 446.812,199.641C444.642,199.722 442.887,199.805 441.676,199.887C441.117,199.928 440.656,199.962 440.281,199.989C439.963,200.018 439.796,200.042 439.797,200.058Z" style="fill:rgb(12,43,52);fill-rule:nonzero;"></path> </g> <g transform="matrix(4.16667,0,0,4.16667,0,0)"> <path d="M489.419,200.819C489.434,200.826 489.542,200.628 489.732,200.245C489.94,199.816 490.21,199.257 490.545,198.562C491.255,197.039 492.241,194.924 493.449,192.333C495.879,187.007 499.196,179.737 502.861,171.706C505.439,165.976 507.843,160.631 509.863,156.14L509.723,156.256C514.065,155.168 517.685,154.26 520.284,153.609C521.511,153.287 522.495,153.029 523.224,152.838C523.901,152.653 524.258,152.545 524.255,152.524C524.249,152.503 523.88,152.57 523.195,152.715C522.459,152.879 521.466,153.1 520.228,153.376C517.62,153.985 513.984,154.835 509.626,155.854L509.529,155.877L509.486,155.97C507.446,160.452 505.018,165.785 502.416,171.504C498.801,179.559 495.53,186.85 493.133,192.19C491.984,194.808 491.047,196.945 490.371,198.483C490.07,199.194 489.829,199.766 489.642,200.205C489.481,200.6 489.403,200.812 489.419,200.819Z" style="fill:rgb(12,43,52);fill-rule:nonzero;"></path> </g> <g transform="matrix(4.16667,0,0,4.16667,0,0)"> <path d="M500.808,189.135C500.808,189.135 499.942,188.343 498.378,190.537C496.814,192.732 494.327,199.031 494.327,199.031L491.347,200.55C491.347,200.55 493.879,197.296 493.821,196.006C493.763,194.715 491.736,194.807 490.713,196.699C489.689,198.592 486.625,202.332 486.625,202.332C486.625,202.332 487.806,206.016 488.075,205.844C488.344,205.671 493.401,205.168 493.401,205.168L494.755,204.461C494.755,204.461 498.165,204.307 498.308,203.378C498.451,202.448 503.899,198.324 503.862,197.495C503.825,196.665 503.622,192.149 503.622,192.149C503.622,192.149 505.922,185.766 505.34,185.146C504.757,184.525 502.391,183.246 500.808,189.135Z" style="fill:rgb(249,178,153);fill-rule:nonzero;"></path> </g> <g transform="matrix(4.16667,0,0,4.16667,0,0)"> <path d="M500.44,189.054C500.442,189.08 500.538,189.071 500.686,189.119C500.834,189.157 501.001,189.342 501.012,189.632L501.014,189.603C500.833,190.291 500.624,191.351 500.401,192.648C500.173,193.942 499.944,195.483 499.54,197.073C499.268,198.218 498.663,199.129 498.044,199.966C497.473,200.777 496.942,201.531 496.46,202.216C495.57,203.505 495.047,204.323 495.101,204.363C495.156,204.403 495.777,203.658 496.739,202.42C497.248,201.754 497.806,201.022 498.408,200.233C498.717,199.819 499.051,199.378 499.343,198.872C499.638,198.365 499.853,197.789 500.011,197.201C500.429,195.562 500.629,194.015 500.813,192.712C500.974,191.548 501.116,190.527 501.237,189.649L501.24,189.627L501.239,189.619C501.194,189.233 500.908,189.007 500.713,189.003C500.521,188.987 500.437,189.041 500.44,189.054Z" style="fill:rgb(247,149,112);fill-rule:nonzero;"></path> </g> <g transform="matrix(4.16667,0,0,4.16667,0,0)"> <path d="M501.748,199.855C501.88,199.887 502.405,198.188 502.923,196.06C503.44,193.932 503.754,192.181 503.622,192.149C503.491,192.117 502.965,193.816 502.447,195.944C501.929,198.072 501.617,199.823 501.748,199.855Z" style="fill:rgb(247,149,112);fill-rule:nonzero;"></path> </g> <g transform="matrix(4.16667,0,0,4.16667,0,0)"> <path d="M492.076,195.346C492.081,195.381 492.217,195.389 492.453,195.404C492.674,195.426 493.051,195.444 493.28,195.691C493.52,195.935 493.445,196.407 493.22,196.906C492.988,197.462 492.754,198.023 492.507,198.61C492.256,199.186 492.016,199.736 491.778,200.281C491.526,200.773 491.25,201.202 491.035,201.577C490.59,202.321 490.412,202.842 490.473,202.869C490.536,202.896 490.812,202.452 491.324,201.765C491.575,201.419 491.884,201.004 492.174,200.497C492.422,199.978 492.695,199.402 492.961,198.794C493.195,198.2 493.419,197.634 493.639,197.072C493.742,196.797 493.828,196.514 493.832,196.219C493.843,195.927 493.725,195.62 493.523,195.445C493.093,195.099 492.674,195.191 492.443,195.214C492.197,195.258 492.072,195.315 492.076,195.346Z" style="fill:rgb(247,149,112);fill-rule:nonzero;"></path> </g> <g transform="matrix(4.16667,0,0,4.16667,0,0)"> <path d="M421.586,388.02L416.843,407.723C416.843,407.723 435.279,419.161 434.756,422.887L396.223,415.065L402.352,384.061L421.586,388.02Z" style="fill:rgb(51,88,99);fill-rule:nonzero;"></path> </g> <g transform="matrix(4.16667,0,0,4.16667,0,0)"> <path d="M405.267,403.635C404.48,403.688 403.795,404.421 403.815,405.211C403.835,405.999 404.575,406.703 405.363,406.664C406.151,406.625 407.001,405.769 406.893,404.988C406.785,404.207 405.87,403.427 405.115,403.654" style="fill:rgb(215,217,217);fill-rule:nonzero;"></path> </g> <g transform="matrix(4.16667,0,0,4.16667,0,0)"> <path d="M434.756,422.887L426.833,421.279L434.756,422.887C434.832,422.349 434.512,421.649 433.908,420.846C434.335,421.225 435.076,422.037 434.756,422.887Z" style="fill:white;fill-rule:nonzero;"></path> </g> <g transform="matrix(4.16667,0,0,4.16667,0,0)"> <path d="M434.756,422.887L426.833,421.279C424.519,419.79 420.991,418.201 417.644,416.848L433.632,420.624C433.632,420.624 433.748,420.705 433.908,420.846C434.512,421.649 434.832,422.349 434.756,422.887Z" style="fill:rgb(166,182,187);fill-rule:nonzero;"></path> </g> <g transform="matrix(4.16667,0,0,4.16667,0,0)"> <path d="M417.508,407.654C417.464,407.841 416.506,407.736 415.457,408.153C414.397,408.543 413.755,409.26 413.596,409.151C413.43,409.079 413.939,408.011 415.218,407.529C416.492,407.035 417.584,407.49 417.508,407.654Z" style="fill:rgb(12,43,52);fill-rule:nonzero;"></path> </g> <g transform="matrix(4.16667,0,0,4.16667,0,0)"> <path d="M421.211,410.146C421.216,410.337 420.337,410.492 419.536,411.158C418.715,411.8 418.38,412.628 418.194,412.583C418.011,412.576 418.105,411.448 419.116,410.638C420.12,409.821 421.243,409.966 421.211,410.146Z" style="fill:rgb(12,43,52);fill-rule:nonzero;"></path> </g> <g transform="matrix(4.16667,0,0,4.16667,0,0)"> <path d="M422.524,415.45C422.345,415.455 422.274,414.462 422.966,413.53C423.652,412.592 424.622,412.366 424.67,412.539C424.745,412.714 424.061,413.152 423.505,413.926C422.929,414.686 422.715,415.469 422.524,415.45Z" style="fill:rgb(12,43,52);fill-rule:nonzero;"></path> </g> <g transform="matrix(4.16667,0,0,4.16667,0,0)"> <path d="M418.09,403.045C417.977,403.2 417.167,402.764 416.089,402.621C415.013,402.456 414.113,402.644 414.048,402.463C413.966,402.305 414.916,401.773 416.183,401.96C417.452,402.137 418.214,402.915 418.09,403.045Z" style="fill:rgb(12,43,52);fill-rule:nonzero;"></path> </g> <g transform="matrix(4.16667,0,0,4.16667,0,0)"> <path d="M408.433,393.2L408.457,413.465C408.457,413.465 429.064,420.248 429.432,423.993L390.14,425.45L388.807,393.875L408.433,393.2Z" style="fill:rgb(51,88,99);fill-rule:nonzero;"></path> </g> <g transform="matrix(4.16667,0,0,4.16667,0,0)"> <path d="M396.244,412.213C395.491,412.45 394.997,413.324 395.202,414.086C395.407,414.848 396.292,415.358 397.048,415.134C397.805,414.912 398.43,413.88 398.141,413.146C397.852,412.412 396.78,411.871 396.099,412.268" style="fill:rgb(215,217,217);fill-rule:nonzero;"></path> </g> <g transform="matrix(4.16667,0,0,4.16667,0,0)"> <path d="M392.314,425.369L429.432,423.993C429.379,423.452 428.904,422.848 428.13,422.21C428.635,422.478 429.543,423.092 429.432,423.993L392.314,425.369Z" style="fill:white;fill-rule:nonzero;"></path> </g> <g transform="matrix(4.16667,0,0,4.16667,0,0)"> <path d="M390.14,425.45L390.131,422.262L427.807,422.057C427.807,422.057 427.94,422.109 428.13,422.21C428.904,422.848 429.379,423.452 429.432,423.993L392.314,425.369L390.14,425.45Z" style="fill:rgb(166,182,187);fill-rule:nonzero;"></path> </g> <g transform="matrix(4.16667,0,0,4.16667,0,0)"> <path d="M409.086,413.242C409.087,413.434 408.131,413.557 407.21,414.209C406.271,414.837 405.815,415.686 405.635,415.617C405.458,415.586 405.701,414.428 406.831,413.659C407.953,412.878 409.121,413.064 409.086,413.242Z" style="fill:rgb(12,43,52);fill-rule:nonzero;"></path> </g> <g transform="matrix(4.16667,0,0,4.16667,0,0)"> <path d="M413.27,414.794C413.321,414.978 412.503,415.336 411.881,416.17C411.235,416.988 411.103,417.872 410.911,417.871C410.732,417.908 410.557,416.789 411.35,415.764C412.133,414.733 413.259,414.611 413.27,414.794Z" style="fill:rgb(12,43,52);fill-rule:nonzero;"></path> </g> <g transform="matrix(4.16667,0,0,4.16667,0,0)"> <path d="M415.794,419.639C415.622,419.687 415.319,418.738 415.772,417.67C416.218,416.596 417.108,416.149 417.195,416.305C417.309,416.46 416.748,417.045 416.388,417.928C416.008,418.802 415.984,419.614 415.794,419.639Z" style="fill:rgb(12,43,52);fill-rule:nonzero;"></path> </g> <g transform="matrix(4.16667,0,0,4.16667,0,0)"> <path d="M408.568,408.625C408.494,408.802 407.604,408.57 406.522,408.684C405.438,408.776 404.608,409.171 404.502,409.01C404.385,408.876 405.183,408.134 406.46,408.018C407.734,407.892 408.657,408.47 408.568,408.625Z" style="fill:rgb(12,43,52);fill-rule:nonzero;"></path> </g> <g transform="matrix(4.16667,0,0,4.16667,0,0)"> <path d="M377.49,246.283L378.208,262.276L385.299,324.39C385.299,324.39 383.983,354.735 383.108,371.871C382.347,386.752 385.836,412.451 385.836,412.451L410.837,411.329L415.92,324.87L419.063,270.951L427.626,246.089L377.49,246.283Z" style="fill:rgb(12,43,52);fill-rule:nonzero;"></path> </g> <g transform="matrix(4.16667,0,0,4.16667,0,0)"> <path d="M444.764,246.118L442.567,333.255L420.195,399.473L419.21,403.445L404.11,400.504L408.306,245.994L444.764,246.118Z" style="fill:rgb(12,43,52);fill-rule:nonzero;"></path> </g> <g transform="matrix(4.16667,0,0,4.16667,0,0)"> <path d="M419.025,271.595C419.033,271.594 419.042,271.717 419.049,271.957C419.056,272.217 419.065,272.569 419.077,273.017C419.09,273.975 419.109,275.345 419.133,277.097C419.192,280.641 419.168,285.769 419.092,292.106C418.905,304.777 418.281,322.281 416.948,341.571C415.65,360.871 414.043,378.306 412.862,390.921C412.257,397.21 411.766,402.306 411.425,405.858C411.248,407.601 411.109,408.963 411.012,409.917C410.963,410.362 410.923,410.712 410.893,410.971C410.864,411.209 410.845,411.33 410.837,411.329C410.829,411.329 410.833,411.206 410.846,410.967C410.864,410.707 410.888,410.355 410.919,409.909C410.995,408.953 411.104,407.587 411.244,405.841C411.55,402.287 411.991,397.185 412.533,390.891C413.63,378.269 415.185,360.833 416.482,341.54C417.815,322.255 418.491,304.764 418.762,292.1C418.881,285.767 418.955,280.64 418.952,277.097C418.965,275.346 418.975,273.976 418.982,273.018C418.991,272.57 418.998,272.218 419.003,271.957C419.009,271.717 419.017,271.595 419.025,271.595Z" style="fill:rgb(51,88,99);fill-rule:nonzero;"></path> </g> <g transform="matrix(4.16667,0,0,4.16667,0,0)"> <path d="M396.431,247.023C396.46,247.027 396.451,247.357 396.368,247.946C396.287,248.536 396.106,249.383 395.767,250.396C395.105,252.414 393.654,255.111 391.182,257.287C388.709,259.462 385.848,260.56 383.763,260.961C382.715,261.168 381.852,261.238 381.257,261.244C380.662,261.251 380.334,261.217 380.334,261.19C380.33,261.1 381.651,261.126 383.692,260.638C385.719,260.164 388.474,259.047 390.874,256.936C393.272,254.826 394.728,252.235 395.457,250.285C396.201,248.323 396.343,247.007 396.431,247.023Z" style="fill:rgb(51,88,99);fill-rule:nonzero;"></path> </g> <g transform="matrix(4.16667,0,0,4.16667,0,0)"> <path d="M419.632,249.778C419.665,250.489 419.115,251.09 418.404,251.122C417.694,251.154 417.092,250.604 417.06,249.893C417.029,249.183 417.579,248.582 418.289,248.549C419,248.518 419.601,249.068 419.632,249.778Z" style="fill:rgb(51,88,99);fill-rule:nonzero;"></path> </g> <g transform="matrix(4.16667,0,0,4.16667,0,0)"> <path d="M442.158,260.933C442.126,260.974 441.365,260.437 440.321,259.36C439.277,258.289 437.99,256.632 436.956,254.583C435.926,252.528 435.366,250.508 435.128,249.031C434.886,247.549 434.91,246.62 434.961,246.618C435.038,246.611 435.132,247.527 435.452,248.967C435.768,250.407 436.366,252.363 437.373,254.373C438.384,256.378 439.598,258.026 440.565,259.138C441.53,260.254 442.21,260.876 442.158,260.933Z" style="fill:rgb(51,88,99);fill-rule:nonzero;"></path> </g> <g transform="matrix(4.16667,0,0,4.16667,0,0)"> <path d="M419.536,121.726L397.966,105.157L393.893,112.072C393.893,112.072 376.362,126.169 373.092,130.073L380.332,190.189C380.332,190.189 376.911,222.129 376.711,224.643C376.51,227.157 374.625,249.179 374.625,249.179C374.435,253.34 378.079,258.216 378.777,258.185C378.777,258.185 382.092,253.838 385.857,253.983C389.621,254.128 415.401,259.86 415.401,259.86L446.034,251.595L440.016,190.798L437.092,150.062L433.69,134.581L427.308,128.763L423.953,118.608C423.953,118.608 423.095,131.492 422.919,131.03C422.741,130.568 419.536,121.726 419.536,121.726Z" style="fill:rgb(243,115,104);fill-rule:nonzero;"></path> </g> <g transform="matrix(4.16667,0,0,4.16667,0,0)"> <path d="M394.498,113.118C394.472,113.141 394.787,113.529 395.38,114.212C395.978,114.889 396.865,115.852 398.002,117.001C400.258,119.316 403.547,122.334 407.114,125.72C408.874,127.399 410.523,129.026 411.967,130.558L412.14,130.74L412.305,130.56C414.502,128.164 416.059,125.902 417.269,124.396C417.832,123.694 418.3,123.11 418.68,122.637C419.014,122.234 419.191,122.012 419.172,121.993C419.153,121.976 418.94,122.163 418.569,122.537C418.199,122.911 417.679,123.479 417.05,124.218C415.775,125.679 414.158,127.91 411.969,130.241L412.307,130.242C410.872,128.684 409.224,127.04 407.461,125.357C403.884,121.963 400.565,118.992 398.251,116.748C397.086,115.635 396.164,114.712 395.522,114.079C394.887,113.438 394.523,113.094 394.498,113.118Z" style="fill:rgb(12,43,52);fill-rule:nonzero;"></path> </g> <g transform="matrix(4.16667,0,0,4.16667,0,0)"> <path d="M434.546,221.24C434.554,221.239 434.553,221.159 434.544,221.003C434.528,220.818 434.51,220.591 434.487,220.314C434.423,219.668 434.335,218.785 434.222,217.67C433.964,215.332 433.596,212.025 433.145,207.956C432.208,199.757 430.868,188.437 429.309,175.943C427.752,163.445 426.256,152.142 425.074,143.974C424.487,139.889 423.965,136.59 423.586,134.313C423.383,133.21 423.223,132.337 423.106,131.699C423.051,131.426 423.006,131.203 422.969,131.021C422.935,130.869 422.914,130.792 422.906,130.793C422.897,130.795 422.902,130.875 422.919,131.03C422.942,131.214 422.971,131.44 423.007,131.716C423.101,132.357 423.23,133.235 423.393,134.344C423.713,136.672 424.166,139.968 424.722,144.023C425.814,152.201 427.254,163.508 428.811,176.006C430.364,188.48 431.769,199.773 432.793,207.999C433.31,212.059 433.731,215.36 434.028,217.692C434.179,218.803 434.299,219.683 434.387,220.326C434.429,220.601 434.465,220.826 434.493,221.009C434.519,221.163 434.537,221.241 434.546,221.24Z" style="fill:rgb(12,43,52);fill-rule:nonzero;"></path> </g> <g transform="matrix(4.16667,0,0,4.16667,0,0)"> <path d="M392.379,219.673C388.536,219.673 384.63,218.929 381.697,216.523C380.375,215.439 379.288,213.904 378.949,212.268C381.271,210.833 383.658,209.262 386.049,207.51C387.397,206.524 388.748,205.482 390.041,204.321C390.37,204.038 390.691,203.743 390.999,203.428C391.299,203.127 391.613,202.838 391.889,202.505C398.596,200.076 405.304,197.647 412.012,195.217C417.549,193.213 423.109,191.201 428.879,190.021C429.423,189.909 429.969,189.805 430.517,189.709C431.002,193.608 431.459,197.28 431.878,200.648C430.884,201.439 429.971,202.34 429.044,203.213C419.56,212.146 407.43,218.794 394.428,219.607C393.751,219.649 393.066,219.673 392.379,219.673Z" style="fill:rgb(204,87,73);fill-rule:nonzero;"></path> </g> <g transform="matrix(4.16667,0,0,4.16667,0,0)"> <path d="M440.626,192.69L440.202,192.674L440.016,190.798L439.873,188.802C440.132,188.797 440.391,188.794 440.65,188.792L440.626,192.69Z" style="fill:rgb(168,171,171);fill-rule:nonzero;"></path> </g> <g transform="matrix(4.16667,0,0,4.16667,0,0)"> <path d="M440.576,196.452L440.202,192.674L440.626,192.69L440.602,196.437C440.593,196.442 440.585,196.447 440.576,196.452Z" style="fill:rgb(186,129,109);fill-rule:nonzero;"></path> </g> <g transform="matrix(4.16667,0,0,4.16667,0,0)"> <path d="M432.264,200.349C431.876,197.043 431.449,193.445 430.988,189.628C433.924,189.135 436.896,188.859 439.873,188.802L440.016,190.798L440.202,192.674L440.576,196.452C438.278,197.723 435.618,198.252 433.367,199.604C432.985,199.833 432.619,200.083 432.264,200.349Z" style="fill:rgb(204,87,73);fill-rule:nonzero;"></path> </g> <g transform="matrix(4.16667,0,0,4.16667,0,0)"> <path d="M431.878,200.648C431.459,197.28 431.002,193.608 430.517,189.709C430.674,189.681 430.831,189.654 430.988,189.628C431.449,193.445 431.876,197.043 432.264,200.349C432.134,200.447 432.005,200.546 431.878,200.648Z" style="fill:rgb(1,23,33);fill-rule:nonzero;"></path> </g> <g transform="matrix(4.16667,0,0,4.16667,0,0)"> <path d="M412.705,234.95C412.778,235.067 419.054,231.307 426.722,226.551C434.393,221.795 440.55,217.844 440.478,217.726C440.405,217.608 434.129,221.368 426.458,226.125C418.79,230.88 412.632,234.832 412.705,234.95Z" style="fill:rgb(12,43,52);fill-rule:nonzero;"></path> </g> <g transform="matrix(4.16667,0,0,4.16667,0,0)"> <path d="M434.018,254.896C434.053,254.89 434.015,254.444 433.927,253.641C433.839,252.738 433.727,251.598 433.593,250.24C433.335,247.367 433.132,243.386 432.991,238.981C432.842,234.574 432.684,230.584 432.543,227.698C432.466,226.333 432.402,225.187 432.35,224.28C432.294,223.473 432.246,223.028 432.212,223.029C432.176,223.03 432.158,223.478 432.155,224.286C432.164,225.195 432.174,226.342 432.188,227.71C432.239,230.599 432.34,234.589 432.489,238.999C432.632,243.407 432.89,247.401 433.24,250.276C433.411,251.713 433.591,252.872 433.734,253.669C433.882,254.464 433.985,254.901 434.018,254.896Z" style="fill:rgb(12,43,52);fill-rule:nonzero;"></path> </g> <g transform="matrix(4.16667,0,0,4.16667,0,0)"> <path d="M397.297,187.551C397.32,187.478 397.342,187.404 397.365,187.33L397.394,187.235L397.353,187.151C396.409,185.204 395.491,183.313 394.622,181.519C395.985,173.045 397.141,165.86 397.963,160.746C398.004,160.485 398.043,160.229 398.082,159.979C398.246,168.739 398.507,178.483 401.095,186.875L397.297,187.551Z" style="fill:rgb(204,87,73);fill-rule:nonzero;"></path> </g> <g transform="matrix(4.16667,0,0,4.16667,0,0)"> <path d="M422.919,131.03C422.741,130.568 419.536,121.726 419.536,121.726L422.919,131.03Z" style="fill:rgb(186,129,109);fill-rule:nonzero;"></path> </g> <g transform="matrix(4.16667,0,0,4.16667,0,0)"> <path d="M413.029,133.852C409.776,130.748 406.518,127.639 403.553,124.258C401.467,121.879 399.529,119.37 397.755,116.75C397.836,116.833 397.918,116.916 398.002,117.001C400.258,119.316 403.547,122.334 407.114,125.72C408.874,127.399 410.523,129.026 411.967,130.558L412.14,130.74L412.305,130.56C414.502,128.164 416.059,125.902 417.269,124.396C417.328,124.323 417.386,124.251 417.442,124.18L419.536,121.726C419.536,121.726 422.741,130.568 422.919,131.03C422.919,131.03 422.115,130.651 421.869,130.328C420.939,129.105 420.391,127.631 419.48,126.394C417.161,128.727 415.004,131.221 413.029,133.852Z" style="fill:rgb(204,87,73);fill-rule:nonzero;"></path> </g> <g transform="matrix(4.16667,0,0,4.16667,0,0)"> <path d="M412.14,130.74L411.967,130.558C410.523,129.026 408.874,127.399 407.114,125.72C403.547,122.334 400.258,119.316 398.002,117.001C397.918,116.916 397.836,116.833 397.755,116.75C397.509,116.387 397.266,116.022 397.027,115.655L412.137,130.4L417.442,124.18C417.386,124.251 417.328,124.323 417.269,124.396C416.059,125.902 414.502,128.164 412.305,130.56L412.14,130.74Z" style="fill:rgb(1,23,33);fill-rule:nonzero;"></path> </g> <g transform="matrix(4.16667,0,0,4.16667,0,0)"> <path d="M423.653,123.072C423.557,123.139 424.266,124.532 425.165,126.283C426.065,128.052 427.256,129.229 427.358,129.122C427.446,129.036 426.486,127.8 425.6,126.061C424.709,124.324 423.781,122.986 423.653,123.072Z" style="fill:rgb(12,43,52);fill-rule:nonzero;"></path> </g> <g transform="matrix(4.16667,0,0,4.16667,0,0)"> <path d="M401.908,134.572C401.933,134.556 401.76,134.219 401.371,133.659C400.976,133.104 400.354,132.331 399.484,131.475C398.619,130.615 397.507,129.677 396.234,128.7C394.965,127.737 393.52,126.621 391.689,126.045C389.859,125.478 388.02,125.558 386.426,125.749C384.819,125.932 383.423,126.309 382.237,126.577C381.055,126.854 380.102,127.087 379.446,127.258C378.791,127.43 378.433,127.541 378.442,127.574C378.451,127.608 378.825,127.561 379.493,127.448C380.161,127.336 381.124,127.156 382.308,126.925C383.494,126.703 384.898,126.362 386.479,126.208C388.048,126.045 389.818,125.99 391.539,126.525C393.258,127.062 394.676,128.128 395.955,129.069C397.237,130.02 398.355,130.917 399.239,131.732C401.019,133.355 401.839,134.622 401.908,134.572Z" style="fill:rgb(12,43,52);fill-rule:nonzero;"></path> </g> <g transform="matrix(4.16667,0,0,4.16667,0,0)"> <path d="M432.964,181.698L432.836,193.872C432.836,193.872 415.206,203.095 403.561,206.653C391.918,210.211 378.025,210.369 378.025,210.369L382.091,190.417L432.964,181.698Z" style="fill:rgb(249,178,153);fill-rule:nonzero;"></path> </g> <g transform="matrix(4.16667,0,0,4.16667,0,0)"> <path d="M467.896,182.619C467.896,182.619 468.075,181.088 466.47,180.194C464.867,179.299 461.486,177.311 461.486,177.311L451.507,176.854L432.964,181.698L432.836,193.872C432.836,193.872 442.401,193.968 444.615,193.787C446.829,193.605 452.9,191.358 452.9,191.358C452.9,191.358 463.307,192.207 463.774,191.61C464.241,191.013 464.869,190.326 464.193,189.945C463.517,189.564 455.459,187.868 455.459,187.868L460.779,187.218C460.779,187.218 468.655,188.51 469.218,188.238C469.782,187.966 470.477,186.947 469.951,186.23L469.425,185.513C469.425,185.513 469.852,184.013 468.511,183.497L467.761,183.284L467.896,182.619Z" style="fill:rgb(249,178,153);fill-rule:nonzero;"></path> </g> <g transform="matrix(4.16667,0,0,4.16667,0,0)"> <path d="M453.723,183.107C453.709,183.162 454.627,183.404 456.134,183.399C457.628,183.449 459.717,183.113 461.876,183.64C462.947,183.92 463.923,184.395 464.856,184.743C465.786,185.097 466.645,185.354 467.375,185.534C468.835,185.893 469.763,185.966 469.772,185.909C469.785,185.839 468.881,185.649 467.464,185.214C466.756,184.996 465.92,184.711 465.014,184.341C464.109,183.979 463.13,183.484 461.993,183.185C460.852,182.894 459.734,182.877 458.744,182.912C457.751,182.952 456.868,183.033 456.127,183.067C454.646,183.156 453.735,183.034 453.723,183.107Z" style="fill:rgb(247,149,112);fill-rule:nonzero;"></path> </g> <g transform="matrix(4.16667,0,0,4.16667,0,0)"> <path d="M454.463,180.274C454.448,180.335 455.278,180.525 456.618,180.455C457.952,180.409 459.776,180.133 461.65,180.882C463.541,181.574 465.251,182.25 466.503,182.684C467.753,183.128 468.54,183.372 468.564,183.312C468.589,183.253 467.846,182.899 466.626,182.376C465.398,181.86 463.716,181.139 461.802,180.439C460.84,180.091 459.83,179.907 458.933,179.936C458.037,179.948 457.252,180.061 456.594,180.125C455.283,180.277 454.473,180.207 454.463,180.274Z" style="fill:rgb(247,149,112);fill-rule:nonzero;"></path> </g> <g transform="matrix(4.16667,0,0,4.16667,0,0)"> <path d="M373.092,130.073C373.092,130.073 368.125,138.834 367.48,143.024C366.836,147.214 366.726,191.117 367.593,191.91C368.462,192.703 369.962,193.676 369.962,193.676C369.962,193.676 365.233,194.929 366.798,197.355C368.363,199.781 369.901,201.584 369.901,201.584C369.901,201.584 370.979,209.65 371.877,209.818C372.774,209.986 377.947,212.613 377.947,212.613C377.947,212.613 392.135,204.124 393.264,199.912C394.394,195.7 397.135,187.255 397.135,187.255L394.383,181.554L400.274,145.921C400.274,145.921 403.778,134.447 396.35,130.152C388.922,125.858 375.595,125.296 373.092,130.073Z" style="fill:rgb(243,115,104);fill-rule:nonzero;"></path> </g> <g transform="matrix(4.16667,0,0,4.16667,0,0)"> <path d="M399.156,152.681C399.143,152.679 399.1,152.861 399.03,153.216C398.956,153.607 398.858,154.126 398.734,154.783C398.485,156.195 398.133,158.192 397.69,160.701C396.821,165.823 395.598,173.023 394.157,181.516L394.145,181.587L394.176,181.653C395.049,183.47 395.97,185.387 396.919,187.36L396.906,187.181C395.659,191.2 394.351,195.584 392.939,200.037L392.696,200.605L392.341,201.135C392.12,201.499 391.82,201.814 391.541,202.14C391.271,202.473 390.952,202.767 390.648,203.071C390.348,203.38 390.032,203.669 389.708,203.95C388.435,205.094 387.095,206.131 385.758,207.115C383.085,209.083 380.403,210.835 377.83,212.416L378.05,212.409C376.756,211.758 375.49,211.139 374.249,210.561C373.625,210.276 373.016,209.994 372.381,209.756L372.138,209.67L371.917,209.605C371.896,209.603 371.785,209.46 371.727,209.335C371.595,209.065 371.495,208.762 371.405,208.462C370.731,206.031 370.396,203.672 370.074,201.562L370.066,201.51L370.033,201.471C369.251,200.544 368.555,199.624 367.93,198.754C367.618,198.318 367.324,197.892 367.049,197.477C366.897,197.27 366.814,197.066 366.705,196.866C366.653,196.653 366.598,196.444 366.633,196.236C366.765,195.386 367.555,194.874 368.168,194.515C368.815,194.158 369.441,193.922 369.983,193.757L370.159,193.704L370.006,193.607C369.175,193.074 368.575,192.644 368.182,192.351C367.79,192.057 367.605,191.898 367.593,191.91L367.716,192.048C367.804,192.134 367.941,192.259 368.129,192.418C368.506,192.735 369.093,193.188 369.917,193.746L369.94,193.596C369.377,193.749 368.741,193.97 368.063,194.325C367.727,194.506 367.381,194.723 367.058,195.012C366.748,195.308 366.443,195.699 366.371,196.202C366.326,196.457 366.383,196.706 366.446,196.96C366.558,197.186 366.666,197.436 366.809,197.634C367.08,198.056 367.37,198.488 367.678,198.932C368.298,199.818 368.982,200.747 369.767,201.698L369.727,201.608C370.031,203.739 370.34,206.085 371.01,208.581C371.102,208.892 371.202,209.205 371.352,209.52C371.448,209.673 371.489,209.848 371.763,209.998C371.914,210.053 371.923,210.047 372.011,210.074L372.235,210.154C372.837,210.384 373.448,210.671 374.063,210.958C375.294,211.539 376.555,212.164 377.843,212.817L377.957,212.876L378.065,212.81C380.663,211.23 383.353,209.485 386.049,207.51C387.397,206.524 388.748,205.482 390.041,204.321C390.37,204.038 390.691,203.743 390.999,203.428C391.309,203.117 391.634,202.819 391.916,202.472C392.207,202.133 392.514,201.811 392.755,201.418C392.881,201.229 393.014,201.045 393.135,200.849L393.415,200.196C394.842,195.693 396.129,191.359 397.365,187.33L397.394,187.235L397.353,187.151C396.398,185.181 395.469,183.267 394.59,181.454L394.61,181.591C395.978,173.086 397.138,165.875 397.963,160.746C398.351,158.229 398.661,156.224 398.88,154.807C398.973,154.145 399.048,153.622 399.104,153.229C399.151,152.87 399.169,152.683 399.156,152.681Z" style="fill:rgb(12,43,52);fill-rule:nonzero;"></path> </g> <g transform="matrix(4.16667,0,0,4.16667,0,0)"> <path d="M369.719,193.516C369.712,193.548 369.974,193.654 370.47,193.786C370.966,193.905 371.703,194.078 372.647,194.015C373.112,193.978 373.65,193.848 374.133,193.572C374.616,193.315 375.106,193 375.596,192.64C376.578,191.917 377.57,191.059 378.675,190.231C380.873,188.554 382.939,187.134 384.423,186.086C385.911,185.044 386.818,184.376 386.779,184.317C386.741,184.261 385.766,184.822 384.226,185.791C382.69,186.764 380.585,188.143 378.371,189.832C377.257,190.666 376.257,191.547 375.319,192.269C374.366,192.982 373.485,193.592 372.61,193.662C371.738,193.765 371.006,193.654 370.508,193.594C370.009,193.523 369.728,193.481 369.719,193.516Z" style="fill:rgb(12,43,52);fill-rule:nonzero;"></path> </g> <g transform="matrix(4.16667,0,0,4.16667,0,0)"> <path d="M369.901,201.585C369.896,201.61 370.22,201.72 370.839,201.758C371.45,201.795 372.388,201.691 373.382,201.181C375.303,200.111 377.84,198.501 380.372,196.321C382.899,194.153 384.965,191.962 386.431,190.361C387.163,189.558 387.742,188.898 388.134,188.434C388.526,187.969 388.731,187.702 388.706,187.678C388.653,187.629 387.699,188.575 386.174,190.117C384.645,191.653 382.548,193.793 380.046,195.939C377.559,198.086 375.038,199.75 373.22,200.866C372.291,201.391 371.433,201.537 370.839,201.563C370.243,201.586 369.907,201.542 369.901,201.585Z" style="fill:rgb(12,43,52);fill-rule:nonzero;"></path> </g> <g transform="matrix(4.16667,0,0,4.16667,0,0)"> <path d="M373.504,196.234C373.415,196.234 373.326,196.23 373.236,196.222C372.436,196.147 371.713,195.732 371.032,195.304C370.468,194.95 369.845,194.434 369.837,193.802C369.887,193.787 369.935,193.772 369.983,193.757L370.159,193.704L370.14,193.692C370.235,193.721 370.345,193.753 370.47,193.786C370.893,193.888 371.491,194.028 372.243,194.028C372.373,194.028 372.508,194.024 372.647,194.015C373.112,193.978 373.65,193.848 374.133,193.572C374.616,193.315 375.106,193 375.596,192.64C376.578,191.917 377.57,191.059 378.675,190.231C380.873,188.554 382.939,187.134 384.423,186.086C385.007,185.677 385.501,185.326 385.884,185.047C386.089,184.931 386.293,184.816 386.498,184.7C385.659,186.133 384.438,187.303 383.235,188.45C381.254,190.339 379.273,192.229 377.292,194.118C376.218,195.141 374.957,196.234 373.504,196.234Z" style="fill:rgb(204,87,73);fill-rule:nonzero;"></path> </g> <g transform="matrix(4.16667,0,0,4.16667,0,0)"> <path d="M369.837,193.802C369.837,193.738 369.842,193.672 369.855,193.605C369.919,193.625 369.983,193.645 370.048,193.663C370.077,193.672 370.108,193.682 370.14,193.692L370.159,193.704L369.983,193.757C369.935,193.772 369.887,193.787 369.837,193.802Z" style="fill:rgb(1,23,33);fill-rule:nonzero;"></path> </g> <g transform="matrix(4.16667,0,0,4.16667,0,0)"> <path d="M386.498,184.7C386.526,184.652 386.554,184.603 386.582,184.554L386.543,184.675C386.528,184.684 386.513,184.692 386.498,184.7Z" style="fill:rgb(204,87,73);fill-rule:nonzero;"></path> </g> <g transform="matrix(4.16667,0,0,4.16667,0,0)"> <path d="M372.243,194.028C371.491,194.028 370.893,193.888 370.47,193.786C370.345,193.753 370.235,193.721 370.14,193.692C370.108,193.682 370.077,193.672 370.048,193.663C370.567,193.808 371.106,193.88 371.646,193.88C372.869,193.88 374.095,193.512 375.099,192.812C375.764,192.348 376.328,191.755 376.915,191.196C379.549,188.692 382.715,186.837 385.884,185.047C385.501,185.326 385.007,185.677 384.423,186.086C382.939,187.134 380.873,188.554 378.675,190.231C377.57,191.059 376.578,191.917 375.596,192.64C375.106,193 374.616,193.315 374.133,193.572C373.65,193.848 373.112,193.978 372.647,194.015C372.508,194.024 372.373,194.028 372.243,194.028Z" style="fill:rgb(1,23,33);fill-rule:nonzero;"></path> </g> <g transform="matrix(4.16667,0,0,4.16667,0,0)"> <path d="M431.967,193.985C431.967,194.02 432.404,194.05 433.195,194.074C434.088,194.089 435.21,194.108 436.544,194.129C437.994,194.134 439.671,194.14 441.512,194.147C442.451,194.145 443.431,194.142 444.446,194.14C445.024,194.113 445.49,193.93 446.009,193.805C446.515,193.66 447.028,193.513 447.548,193.364C449.677,192.733 451.69,192.098 453.503,191.514L453.422,191.524C456.181,191.651 458.525,191.744 460.18,191.792C460.937,191.806 461.577,191.818 462.111,191.829C462.559,191.829 462.801,191.817 462.802,191.792C462.803,191.766 462.564,191.728 462.119,191.681C461.587,191.635 460.949,191.579 460.195,191.514C458.545,191.386 456.204,191.23 453.446,191.065L453.406,191.062L453.364,191.075C451.532,191.631 449.52,192.241 447.406,192.882C446.889,193.031 446.38,193.178 445.876,193.323C445.381,193.448 444.859,193.636 444.419,193.649C443.407,193.661 442.428,193.673 441.492,193.685C439.655,193.718 437.982,193.748 436.536,193.774C435.204,193.816 434.084,193.851 433.193,193.878C432.404,193.914 431.966,193.95 431.967,193.985Z" style="fill:rgb(247,149,112);fill-rule:nonzero;"></path> </g> </g> </svg>