<svg xmlns="http://www.w3.org/2000/svg" id="Capa_1" fill="#8932dd" height="512" viewBox="0 0 512.023 512.023" width="512"><g><path d="m509.907 244.208c3.368-6.25 2.664-13.857-1.795-19.381l-24.744-30.66c-.438-.543-.64-1.251-.552-1.944l4.966-39.155c.896-7.056-2.51-13.905-8.675-17.45l-34.071-19.596c-.606-.349-1.05-.938-1.218-1.617l-9.447-38.283c-1.709-6.925-7.37-12.093-14.421-13.165l-38.774-5.905c-.693-.106-1.322-.496-1.725-1.072l-22.556-32.233c-4.099-5.858-11.255-8.637-18.239-7.077l-38.255 8.554c-.688.153-1.416.019-2-.375l-32.599-21.857c-5.949-3.99-13.634-3.989-19.581-.001l-32.601 21.856c-.584.392-1.313.527-1.998.374l-38.257-8.554c-6.984-1.562-14.14 1.218-18.238 7.077l-22.555 32.236c-.402.575-1.031.965-1.725 1.071l-38.774 5.904c-7.051 1.073-12.712 6.241-14.421 13.167l-9.447 38.282c-.168.68-.611 1.269-1.219 1.618l-34.07 19.594c-6.165 3.546-9.57 10.396-8.675 17.45l4.966 39.158c.088.691-.113 1.399-.551 1.942l-24.745 30.66c-4.459 5.524-5.163 13.132-1.794 19.383l18.719 34.714c.331.614.398 1.348.187 2.011l-12.05 37.579c-2.169 6.764-.081 14.116 5.32 18.731l29.921 25.562c.531.454.859 1.115.9 1.812l2.282 39.393c.412 7.108 5.021 13.222 11.743 15.575l37.055 12.967c.662.231 1.207.73 1.497 1.367l16.281 35.867c2.952 6.505 9.49 10.593 16.612 10.303l39.179-1.35c.694-.027 1.394.244 1.896.737l28.056 27.509c3.363 3.298 7.783 5.038 12.288 5.037 2.34 0 4.704-.47 6.953-1.436l36.038-15.466c.646-.277 1.388-.277 2.034 0l36.036 15.466c6.577 2.823 14.129 1.409 19.242-3.602l28.056-27.51c.503-.492 1.192-.75 1.896-.736l39.178 1.35c7.131.28 13.661-3.797 16.613-10.303l16.281-35.866c.29-.638.835-1.137 1.497-1.368l37.055-12.967c6.722-2.354 11.331-8.467 11.743-15.575l2.282-39.392c.041-.697.369-1.358.9-1.813l29.921-25.562c5.401-4.615 7.489-11.968 5.32-18.731l-12.048-37.576c-.213-.666-.146-1.399.186-2.014zm-33.19 41.306 12.049 37.579c.317.992.011 2.07-.781 2.747l-29.921 25.562c-3.62 3.094-5.854 7.594-6.131 12.349l-2.282 39.393c-.061 1.042-.737 1.939-1.724 2.284l-37.055 12.967c-4.508 1.578-8.226 4.977-10.2 9.326l-16.281 35.867c-.434.954-1.404 1.555-2.438 1.512l-39.179-1.35c-4.806-.157-9.494 1.663-12.913 5.017l-28.056 27.509c-.75.736-1.858.943-2.823.529l-36.036-15.466c-4.408-1.893-9.462-1.892-13.868-.001l-36.037 15.467c-.963.414-2.073.207-2.823-.529l-28.056-27.508c-3.277-3.215-7.738-5.028-12.318-5.028-.198 0-.396.004-.595.011l-39.18 1.35c-1.035.031-2.004-.558-2.438-1.512l-16.281-35.868c-1.975-4.349-5.692-7.747-10.2-9.325l-37.055-12.967c-.986-.345-1.663-1.242-1.724-2.284l-2.282-39.394c-.276-4.754-2.511-9.254-6.132-12.348l-29.92-25.562c-.792-.677-1.099-1.755-.781-2.747l12.05-37.582c1.45-4.528.988-9.524-1.268-13.707l-18.718-34.713c-.495-.917-.392-2.033.262-2.844l24.746-30.66c2.988-3.703 4.358-8.534 3.759-13.251l-4.966-39.157c-.132-1.034.368-2.039 1.272-2.559l34.069-19.595c4.135-2.378 7.162-6.397 8.304-11.027l9.447-38.281c.251-1.017 1.081-1.774 2.116-1.933l38.774-5.905c4.73-.72 9.016-3.381 11.758-7.301l22.554-32.233c.603-.86 1.66-1.265 2.677-1.038l38.256 8.554c4.68 1.044 9.645.113 13.626-2.555l32.601-21.856c.871-.584 2-.584 2.871 0 .001.001.001.001.001.001l32.599 21.854c3.979 2.67 8.946 3.603 13.627 2.556l38.255-8.554c1.028-.229 2.075.18 2.678 1.038l22.554 32.232c2.742 3.921 7.027 6.582 11.758 7.302l38.774 5.906c1.035.157 1.865.915 2.116 1.931l9.447 38.282c1.142 4.63 4.169 8.649 8.303 11.026l34.07 19.596c.904.52 1.404 1.524 1.272 2.56l-4.966 39.154c-.6 4.719.771 9.55 3.76 13.253l24.745 30.661c.653.81.757 1.926.263 2.842l-18.719 34.714c-2.255 4.182-2.717 9.178-1.266 13.709z"></path><path d="m384.254 379.753c-34.086 35.313-79.808 54.76-128.743 54.76-95.977 1.531-180.648-82.432-179-179-.511-60.48 32.689-120.297 84.727-152.111 3.517-2.188 4.595-6.813 2.406-10.33-2.188-3.517-6.812-4.593-10.33-2.406-55.909 34.221-92.332 98.606-91.803 164.848-.014 109.955 90.494 194.264 194 194 53.042 0 102.598-21.075 139.536-59.342 2.876-2.98 2.793-7.729-.188-10.605-2.981-2.879-7.729-2.793-10.605.186z"></path><path d="m255.511 61.513c-22.638.004-46.868 4.178-68.68 12.553-3.872 1.473-5.817 5.805-4.346 9.676 1.472 3.873 5.808 5.813 9.676 4.346 18.893-7.26 42.061-11.701 63.35-11.574 64.289 0 123.997 34.86 155.823 90.979 28.179 48.977 30.979 112.798 6.094 164.307-3.283 6.94-7.06 13.745-11.223 20.224-2.239 3.484-1.229 8.125 2.255 10.364 1.255.807 2.659 1.191 4.048 1.191 2.467 0 4.884-1.217 6.316-3.446 4.512-7.021 8.604-14.396 12.162-21.918 26.676-55.141 24.297-124.5-6.605-178.122-34.483-60.807-99.191-98.58-168.87-98.58z"></path><path d="m136.511 220.757v16.312c0 4.143 3.357 7.5 7.5 7.5s7.5-3.357 7.5-7.5v-16.312c0-3.032 2.468-5.5 5.5-5.5h29c3.032 0 5.5 2.468 5.5 5.5v121c0 3.032-2.468 5.5-5.5 5.5h-29c-3.032 0-5.5-2.468-5.5-5.5v-69.446c0-4.143-3.357-7.5-7.5-7.5s-7.5 3.357-7.5 7.5v69.446c0 11.304 9.196 20.5 20.5 20.5h29c9.279 0 17.127-6.202 19.645-14.675 14.017 5.096 28.691 7.675 43.755 7.675h33.271c4.143 0 7.5-3.357 7.5-7.5s-3.357-7.5-7.5-7.5h-33.271c-14.839 0-29.246-2.841-42.9-8.432v-95.708c12.583-2.08 23.445-12.742 31.715-22.159 12.82-14.599 20.375-33.681 21.272-53.731l1.505-33.623c.005-.111.008-.224.008-.335 0-1.379 1.121-2.5 2.5-2.5h.376c5.026.004 9.732 1.988 13.252 5.588 3.531 3.611 5.416 8.382 5.307 13.432l-1.152 53.234c-.003.138-.002.275.002.413.359 10.729 8.199 18.821 18.236 18.821h69.979c5.514 0 10 4.486 10 10s-4.486 10-10 10c-2.893 0-6.761 0-10.5 0-4.143 0-7.5 3.357-7.5 7.5s3.357 7.5 7.5 7.5h7.5c5.514 0 10 4.486 10 10s-4.486 10-10 10c-4.386.002-11.751.003-16.5 0-4.143 0-7.5 3.357-7.5 7.5s3.357 7.5 7.5 7.5h7.5c5.514 0 10 4.486 10 10s-4.486 10-10 10c-3.934 0-11.269 0-15.5 0-4.143 0-7.5 3.357-7.5 7.5s3.357 7.5 7.5 7.5h7.5c5.514 0 10 4.486 10 10s-4.486 10-10 10h-31.586c-4.143 0-7.5 3.357-7.5 7.5s3.357 7.5 7.5 7.5h31.586c13.785 0 25-11.215 25-25 0-5.022-1.494-9.699-4.052-13.621 7.22-4.389 12.052-12.33 12.052-21.379 0-4.844-1.389-9.367-3.783-13.2 7.621-4.288 12.783-12.45 12.783-21.8 0-6.075-2.18-11.649-5.796-15.985 5.377-4.589 8.796-11.408 8.796-19.015 0-13.785-11.215-25-25-25h-69.979c-1.982 0-3.113-2.063-3.236-4.155l1.146-52.989c.197-9.114-3.204-17.725-9.578-24.243-6.362-6.506-14.873-10.094-23.971-10.101h-.382c-9.586 0-17.396 7.747-17.499 17.31l-1.498 33.478c-.746 16.655-6.981 32.46-17.56 44.505-3.22 3.667-12.037 13.704-20.447 16.617-.043-11.267-9.219-20.421-20.496-20.421h-29c-11.303-.001-20.5 9.195-20.5 20.499z"></path></g></svg>